<svg width="112" height="178" viewBox="0 0 112 178" fill="none" xmlns="http://www.w3.org/2000/svg">
<rect x="53.4272" y="0.000244141" width="61.7674" height="166.471" rx="5" transform="rotate(18.5894 53.4272 0.000244141)" fill="#005C4B"/>
<circle cx="54.9762" cy="43.8336" r="7.90924" transform="rotate(18.5894 54.9762 43.8336)" fill="white"/>
<circle cx="84.2487" cy="53.6793" r="7.90924" transform="rotate(18.5894 84.2487 53.6793)" fill="white"/>
<circle cx="48.2531" cy="63.8238" r="7.90924" transform="rotate(18.5894 48.2531 63.8238)" fill="white"/>
<circle cx="77.5255" cy="73.6695" r="7.90924" transform="rotate(18.5894 77.5255 73.6695)" fill="white"/>
<circle cx="41.5294" cy="83.816" r="7.90924" transform="rotate(18.5894 41.5294 83.816)" fill="white"/>
<circle cx="70.8017" cy="93.6608" r="7.90924" transform="rotate(18.5894 70.8017 93.6608)" fill="white"/>
<path d="M80.0392 21.6661C80.3913 20.6192 79.8281 19.485 78.7811 19.1329C77.7342 18.7808 76.6 19.3441 76.2479 20.391L80.0392 21.6661ZM76.2479 20.391L44.7911 113.92L48.5824 115.195L80.0392 21.6661L76.2479 20.391Z" fill="white"/>
<ellipse cx="61.82" cy="23.4855" rx="7.90924" ry="8.28587" transform="rotate(18.5894 61.82 23.4855)" fill="white"/>
<ellipse cx="91.0925" cy="33.3302" rx="7.90924" ry="8.28587" transform="rotate(18.5894 91.0925 33.3302)" fill="white"/>
</svg>
