<svg width="160" height="143" viewBox="0 0 160 143" fill="none" xmlns="http://www.w3.org/2000/svg">
<path d="M118.348 133.04C119.929 132.046 121.304 130.851 122.483 129.522C127.98 123.323 129.001 114.019 124.37 106.649L67.3773 15.964C62.7454 8.59472 53.9201 5.47861 45.9496 7.74387C44.2395 8.22992 42.5672 8.95028 40.9866 9.94409C32.0358 15.5693 29.3409 27.3849 34.9653 36.3352L91.9575 127.02C97.5824 135.969 109.398 138.665 118.348 133.04Z" stroke="#005C4B" stroke-width="2" stroke-miterlimit="10" stroke-linecap="round" stroke-linejoin="round"/>
<path d="M94.2921 97.4263L96.6931 95.9176C97.1922 95.603 97.6477 95.2482 98.0805 94.8746C102.282 91.2474 103.331 85.0067 100.287 80.1628L80.7976 49.1514C77.7537 44.3075 71.6759 42.5467 66.5844 44.7594C66.06 44.9877 65.5419 45.243 65.0428 45.5575L62.6418 47.0661C57.2988 50.4245 55.6895 57.4779 59.047 62.8204L78.5364 93.8319C81.8948 99.1749 88.949 100.785 94.2921 97.4263Z" fill="#005C4B"/>
</svg>
