<svg width="113" height="116" viewBox="0 0 113 116" fill="none" xmlns="http://www.w3.org/2000/svg">
<mask id="mask0_932_1329" style="mask-type:luminance" maskUnits="userSpaceOnUse" x="10" y="9" width="87" height="100">
<path d="M94.2697 43.9108L94.7038 44.159L94.2697 43.9108L57.661 107.933L10.8377 81.159L47.446 17.137C51.3572 10.2968 60.072 7.92289 66.9122 11.8341L88.9673 24.4451C95.8069 28.3559 98.181 37.0716 94.2697 43.9108Z" fill="white" stroke="white"/>
</mask>
<g mask="url(#mask0_932_1329)">
<path d="M57.6612 107.934L10.8379 81.16L49.0848 14.2734L49.0849 14.2733C52.0904 9.0152 58.7895 7.19002 64.0468 10.1966L91.8316 26.0842C97.0884 29.0904 98.9136 35.7896 95.9075 41.0473L57.6612 107.934Z" fill="white" stroke="#005C4B"/>
</g>
<path d="M68.0915 34.3353L46.746 71.6654L23.7676 58.5263L45.1131 21.1962L68.0915 34.3353Z" fill="#005C4B" stroke="#005C4B"/>
<path d="M28.9581 62.078L46.9375 72.3594L68.7794 34.1621L65.6956 32.3991L44.9333 20.5268L23.0923 58.7239L28.9581 62.078Z" stroke="#005C4B" stroke-miterlimit="10" stroke-linecap="round" stroke-linejoin="round"/>
<path d="M57.8477 108.616L61.8159 101.676L62.9523 99.6878L94.7125 44.1448C98.7553 37.0736 96.3015 28.0632 89.2303 24.0204L67.1455 11.3918C60.0743 7.34805 51.0639 9.80286 47.0212 16.874L15.2605 72.4176L14.1241 74.4054L10.1554 81.3454L57.8477 108.616Z" stroke="#005C4B" stroke-miterlimit="10" stroke-linecap="round" stroke-linejoin="round"/>
</svg>
