<svg width="145" height="127" viewBox="0 0 145 127" fill="none" xmlns="http://www.w3.org/2000/svg">
<path d="M131.105 70.8642L131.361 71.2935L131.105 70.8642L49.2217 119.745C45.2384 122.122 40.0823 120.821 37.7044 116.838L12.2869 74.259L11.8579 74.515L12.2869 74.2589C9.90906 70.2758 11.2105 65.1195 15.1937 62.7417L97.077 13.8613L96.8208 13.4321L97.077 13.8613C101.06 11.4835 106.216 12.7849 108.594 16.7681L134.012 59.3469C136.389 63.3302 135.088 68.4868 131.105 70.8642Z" fill="#005C4B" stroke="#005C4B"/>
<path d="M20.4198 87.8809L19.4766 86.301L115.787 28.8094L116.73 30.3893L20.4198 87.8809Z" fill="#F0F0F0" fill-opacity="0.2" stroke="white"/>
<path d="M69.9659 13.3344L27.5957 38.6273L34.6949 50.5198L38.5922 48.1935L34.0871 40.6463L68.6625 20.0062L73.1679 27.5533L77.0651 25.2269L69.9659 13.3344Z" fill="#005C4B"/>
<path d="M41.6598 80.02L36.4708 71.3273L41.7087 68.2006L46.8977 76.8933L41.6598 80.02Z" fill="white" stroke="white"/>
<path d="M94.7194 35.973L88.6228 39.6123L94.3244 49.1637L100.421 45.5243L94.7194 35.973Z" fill="white"/>
<path d="M88.6172 39.6128L90.9372 43.4993L91.9987 45.2776L94.3187 49.1641L100.415 45.5247L98.0951 41.6382L97.0337 39.8602L94.7137 35.9737L88.6172 39.6128Z" stroke="white" stroke-miterlimit="10" stroke-linecap="round" stroke-linejoin="round"/>
<path d="M88.2693 67.6235L80.1108 72.4937L75.2405 64.3352L69.9876 67.4712L74.8578 75.6294L66.6993 80.4996L69.835 85.7526L77.9934 80.8824L82.8637 89.0409L88.1167 85.9052L83.2464 77.7467L91.4049 72.8765L88.2693 67.6235Z" fill="white"/>
</svg>
