<svg width="22" height="94" viewBox="0 0 22 94" fill="none" xmlns="http://www.w3.org/2000/svg">
<path d="M3.13598 12.1338L3.0709 11.6887L12.4093 10.3231L12.4743 10.7682L3.13598 12.1338Z" fill="#F0F0F0" stroke="#005C4B" stroke-width="0.5"/>
<path d="M3.03163 4.09984L3.01939 4.01613L10.2611 2.95714L10.2733 3.04085L3.03163 4.09984Z" fill="#F0F0F0" stroke="#005C4B" stroke-width="0.5"/>
<path d="M11.2303 7.87783L10.4692 2.67221L11.5177 2.51881L11.2956 1.00024L8.80126 1.36503L1.46276 2.43807L1.68478 3.95664L2.73325 3.80324L3.49436 9.00885L1 9.37363L1.33835 11.6874L2.78426 11.4761L11.1297 68.5477C11.4101 70.4652 13.1918 71.7922 15.1093 71.5118L15.5042 71.4542L17.9985 71.0894C19.916 70.809 21.243 69.0273 20.9626 67.1099L12.6171 10.0382L14.0634 9.82685L13.725 7.51304L11.2303 7.87783Z" stroke="#005C4B" stroke-width="0.5" stroke-miterlimit="10" stroke-linecap="round" stroke-linejoin="round"/>
<path d="M9.53112 17.6757L5.51855 18.2625L12.6493 67.0275C12.842 68.3442 13.8428 69.3333 15.0732 69.5905C15.4182 69.6628 15.7786 69.6874 16.1478 69.6331L16.4663 69.5865C18.1518 69.3399 19.3188 67.7736 19.0722 66.0881L11.9414 17.323L9.53112 17.6757Z" fill="#005C4B"/>
<path d="M15.6792 71.5253L15.8517 72.7048C15.8965 73.0116 16.182 73.2241 16.4888 73.1793L16.9919 73.1055L19.8672 92.7687L20.5472 92.2017L17.7391 72.9966L18.3402 72.9088C18.647 72.8641 18.8594 72.5786 18.8147 72.2718L18.6422 71.0923L15.6792 71.5253Z" stroke="#005C4B" stroke-width="0.5" stroke-miterlimit="10" stroke-linecap="round" stroke-linejoin="round"/>
<path d="M10.5137 64.3361L15.4305 63.6172" stroke="#005C4B" stroke-width="0.5" stroke-miterlimit="10" stroke-linecap="round" stroke-linejoin="round"/>
<path d="M9.44238 57.0099L14.3588 56.291" stroke="#005C4B" stroke-width="0.5" stroke-miterlimit="10" stroke-linecap="round" stroke-linejoin="round"/>
<path d="M8.37109 49.6835L13.2875 48.9646" stroke="#005C4B" stroke-width="0.5" stroke-miterlimit="10" stroke-linecap="round" stroke-linejoin="round"/>
<path d="M7.2998 42.3551L12.2162 41.6362" stroke="#005C4B" stroke-width="0.5" stroke-miterlimit="10" stroke-linecap="round" stroke-linejoin="round"/>
<path d="M6.22852 35.0309L11.1449 34.312" stroke="#005C4B" stroke-width="0.5" stroke-miterlimit="10" stroke-linecap="round" stroke-linejoin="round"/>
<path d="M5.15698 27.7026L10.0734 26.9836" stroke="#005C4B" stroke-width="0.5" stroke-miterlimit="10" stroke-linecap="round" stroke-linejoin="round"/>
</svg>
