<svg width="44" height="116" viewBox="0 0 44 116" fill="none" xmlns="http://www.w3.org/2000/svg">
<path d="M8.15575 1.24775L4.8279 2.28347C1.95721 3.17723 0.353705 6.22882 1.24747 9.09996L2.38347 12.7498C1.48971 9.87865 3.09276 6.82706 5.9639 5.93329L9.29178 4.89713C12.1629 4.00337 15.2145 5.60641 16.1083 8.47755L14.9723 4.82772C14.0785 1.95703 11.0264 0.353992 8.15575 1.24775Z" fill="#005C4B"/>
<path d="M8.15575 1.24873L4.8279 2.28445C1.95721 3.17821 0.353705 6.2298 1.24747 9.10094L2.38347 12.7508L24.2014 82.8439C24.4141 83.5272 24.7414 84.1693 25.169 84.7429L34.1792 96.8266C34.2096 96.8678 34.2446 96.9005 34.2768 96.9381L35.4128 100.588L39.394 113.378C39.548 113.873 39.904 114.246 40.341 114.446C40.7212 114.62 41.1618 114.666 41.5921 114.532C42.5181 114.244 43.0349 113.26 42.7469 112.334L38.7658 99.5437L37.6297 95.8939C37.6351 95.8446 37.645 95.7976 37.6468 95.7466L38.2069 80.6838C38.2333 79.9687 38.1384 79.2541 37.9257 78.5712L16.1078 8.47809L14.9718 4.82826C14.0785 1.95802 11.0264 0.35497 8.15575 1.24873Z" stroke="#005C4B" stroke-miterlimit="10" stroke-linecap="round" stroke-linejoin="round"/>
<path d="M9.98214 12.8224L9.89258 12.8502C9.6172 12.9357 9.37361 13.0718 9.14972 13.2295C8.21879 13.885 7.76385 15.0788 8.12028 16.2242L12.9218 31.6496C13.2782 32.795 14.3305 33.5195 15.4692 33.5312C15.7432 33.5339 16.0204 33.5075 16.2958 33.4219L16.3853 33.3942C17.8066 32.9518 18.6 31.441 18.1576 30.0202L13.3561 14.5952C12.9137 13.173 11.4034 12.3796 9.98214 12.8224Z" fill="#005C4B"/>
<path d="M17.7452 36.4468C17.5993 36.4472 17.4515 36.462 17.3051 36.5077C16.5112 36.7549 16.0679 37.5989 16.3146 38.3933C16.3741 38.584 16.4695 38.7533 16.5891 38.8988C16.9666 39.3591 17.597 39.5709 18.1997 39.3833C18.9936 39.1361 19.4369 38.2921 19.1902 37.4982C18.9887 36.8507 18.3896 36.4437 17.7452 36.4468Z" stroke="#005C4B" stroke-width="0.5" stroke-miterlimit="10" stroke-linecap="round" stroke-linejoin="round"/>
</svg>
