<svg width="39" height="84" viewBox="0 0 39 84" fill="none" xmlns="http://www.w3.org/2000/svg">
<path d="M5.88179 77.8789C3.68441 77.1213 2.51725 74.7257 3.27488 72.5284L14.4787 40.0333L22.4361 42.7769L11.2323 75.272C10.4747 77.4694 8.07917 78.6365 5.88179 77.8789Z" fill="#005C4B" fill-opacity="0.5"/>
<path d="M37.8902 8.80253L34.993 7.79001L23.5561 3.79367L22.1974 7.68224L23.992 8.30953L1.59789 72.3965C0.736843 74.8609 1.67417 77.513 3.71542 78.9368C4.13184 79.2273 4.59024 79.4706 5.09305 79.6463C8.06029 80.683 11.3058 79.1183 12.3427 76.1514L34.7369 12.0641L36.5315 12.6914L37.8902 8.80253Z" stroke="#005C4B" stroke-width="2" stroke-miterlimit="10" stroke-linecap="round" stroke-linejoin="round"/>
<rect x="27.0247" y="3.64014" width="3.86065" height="9.65163" transform="rotate(-70.5338 27.0247 3.64014)" fill="#005C4B"/>
</svg>
