<svg width="705" height="412" viewBox="0 0 705 412" fill="none" xmlns="http://www.w3.org/2000/svg">
<path d="M203.811 29.643C201.667 30.169 199.745 31.127 198.104 32.398C197.529 32.843 196.902 33.212 196.234 33.485L188.796 3.17C188.248 0.938005 185.996 -0.426995 183.764 0.121005L152.221 7.86001L153.099 11.44C153.302 12.267 153.667 13.044 154.165 13.735C155.167 15.124 155.928 16.72 156.362 18.485C158.222 26.066 153.425 33.721 145.701 35.293C138.895 36.678 131.952 32.608 129.831 25.995C129.084 23.664 128.998 21.309 129.442 19.099C129.64 18.112 129.645 17.097 129.405 16.119L128.789 13.609L96.8073 21.348C94.0673 22.02 92.3903 24.787 93.0633 27.527L99.9303 55.649L97.7513 56.184C97.5043 56.245 97.2513 56.299 96.9963 56.343C93.8163 55.036 90.2093 54.686 86.6143 55.568C77.5973 57.78 72.0813 66.883 74.2933 75.901C76.5053 84.919 85.6083 90.434 94.6253 88.222C97.5743 87.498 100.145 86.034 102.198 84.08C102.609 83.88 103.038 83.72 103.485 83.611L106.281 82.925L113.98 114.304C114.652 117.044 117.419 118.721 120.159 118.049L207.442 96.634C209.674 96.086 211.039 93.833 210.491 91.602L202.652 59.653C203.223 59.656 203.795 59.721 204.358 59.842C207.347 60.486 210.583 60.257 213.721 58.894C219.948 56.189 223.687 49.516 222.787 42.746C221.549 33.43 212.629 27.48 203.811 29.643Z" fill="#005C4B" fill-opacity="0.5"/>
<path d="M592.475 197.251C593.737 197.837 595.06 198.123 596.368 198.144C596.826 198.152 597.28 198.217 597.716 198.346L589.428 216.189C588.818 217.502 589.388 219.062 590.702 219.672L609.268 228.296L610.247 226.189C610.473 225.702 610.6 225.176 610.627 224.64C610.682 223.562 610.936 222.477 611.419 221.438C613.492 216.976 618.868 215.101 623.287 217.371C627.181 219.372 628.992 224.11 627.429 228.199C626.878 229.64 625.992 230.832 624.903 231.745C624.416 232.153 624.014 232.65 623.747 233.225L623.061 234.702L641.843 243.499C643.456 244.248 645.371 243.548 646.12 241.935L653.825 225.395L655.107 225.991C655.253 226.058 655.398 226.131 655.541 226.21C656.59 228.106 658.227 229.7 660.343 230.683C665.65 233.148 671.951 230.844 674.417 225.537C676.882 220.23 674.578 213.929 669.271 211.463C667.535 210.657 665.693 210.364 663.914 210.516C663.633 210.452 663.359 210.362 663.096 210.24L661.45 209.476L670.029 191.007C670.778 189.394 670.078 187.479 668.465 186.73L617.09 162.866C615.776 162.256 614.217 162.826 613.607 164.14L604.872 182.945C604.592 182.719 604.337 182.461 604.108 182.18C602.891 180.685 601.21 179.522 599.129 178.957C595 177.834 590.53 179.643 588.306 183.327C585.242 188.398 587.285 194.84 592.475 197.251Z" fill="#005C4B"/>
<path d="M504.789 51.2661C503.112 50.8011 501.421 50.7181 499.802 50.9591C499.235 51.0431 498.661 51.0551 498.097 50.9851L504.678 27.2731C505.162 25.5281 504.14 23.7201 502.394 23.2351L477.722 16.3881L476.945 19.1881C476.765 19.8351 476.716 20.51 476.793 21.177C476.946 22.518 476.854 23.9091 476.471 25.2901C474.825 31.2201 468.574 34.6321 462.657 32.7341C457.444 31.0611 454.239 25.584 455.333 20.219C455.718 18.328 456.568 16.6761 457.726 15.3271C458.243 14.7251 458.638 14.0291 458.85 13.2641L459.395 11.3011L434.421 4.28505C432.278 3.69005 430.058 4.94605 429.463 7.08905L423.336 29.073L421.632 28.6C421.439 28.546 421.244 28.4871 421.052 28.4181C419.37 26.2931 417.024 24.6611 414.213 23.8801C407.16 21.9231 399.856 26.0541 397.898 33.1061C395.941 40.1591 400.071 47.4631 407.125 49.4211C409.432 50.0611 411.764 50.0461 413.929 49.4951C414.289 49.5161 414.646 49.5721 414.995 49.6691L417.182 50.2761L410.371 74.8201C409.776 76.9641 411.031 79.1831 413.175 79.7781L481.447 98.7251C483.193 99.2091 485 98.187 485.485 96.442L492.42 71.452C492.811 71.674 493.179 71.939 493.52 72.2401C495.327 73.8361 497.64 74.927 500.323 75.2001C505.648 75.7421 510.793 72.5971 512.785 67.5951C515.524 60.7131 511.687 53.1811 504.789 51.2661Z" fill="#005C4B" fill-opacity="0.5"/>
<path d="M342.237 274.091C342.237 274.091 345.6 272.357 348.57 273.008C351.54 273.659 362.324 280.69 362.324 280.69L371.013 279.067L376.134 303.601L342.237 317.688V274.091Z" fill="#AE7461"/>
<path d="M317.162 282.645C317.162 282.645 324.927 281.664 327.74 280.258C330.553 278.852 337.26 272.902 338.666 273.01C340.072 273.118 345.157 274.092 345.157 274.092L343.101 280.258C343.101 280.258 353.27 286.424 356.299 288.696C359.328 290.968 368.848 301.137 369.281 303.625C369.714 306.113 368.956 309.034 367.766 310.008C366.576 310.982 362.249 309.034 362.249 309.034C362.249 309.034 362.898 311.306 361.275 313.469C359.652 315.633 355.866 314.875 355.866 314.875C355.866 314.875 355.542 318.445 353.81 319.094C352.079 319.743 348.185 317.796 348.185 317.796C348.185 317.796 347.01 320.825 345.596 321.15C344.182 321.475 340.179 319.095 340.179 319.095C340.179 319.095 322.87 306.654 318.975 304.815C315.08 302.976 313.89 302.868 313.89 302.868L317.162 282.645Z" fill="#FFBE9D"/>
<path d="M348.187 317.797C348.109 317.794 348.06 317.492 347.877 317.037C347.697 316.581 347.391 315.969 347.007 315.309C346.236 313.99 345.544 312.934 345.668 312.843C345.774 312.762 346.658 313.683 347.458 315.049C347.855 315.731 348.13 316.411 348.231 316.934C348.336 317.462 348.252 317.803 348.187 317.797Z" fill="#EB996E"/>
<path d="M355.379 315.693C355.238 315.766 354.392 314.212 353.197 312.425C352.014 310.624 350.746 309.421 350.837 309.309C350.919 309.189 352.408 310.276 353.629 312.133C354.855 313.97 355.494 315.638 355.379 315.693Z" fill="#EB996E"/>
<path d="M362.324 309.449C362.171 309.487 361.688 307.615 360.492 305.596C359.316 303.565 357.919 302.229 358.027 302.114C358.102 302.007 359.713 303.218 360.941 305.333C362.186 307.438 362.454 309.436 362.324 309.449Z" fill="#EB996E"/>
<path d="M357.255 295.947C357.391 295.918 357.763 297.206 357.833 298.847C357.909 300.488 357.652 301.804 357.514 301.787C357.366 301.772 357.387 300.467 357.312 298.87C357.245 297.273 357.109 295.975 357.255 295.947Z" fill="#EB996E"/>
<path d="M332.067 286.207C332.067 286.207 334.772 277.552 335.745 276.471C336.719 275.389 345.765 273.008 345.765 273.008L348.569 280.258L346.562 282.381L342.235 282.097C342.237 282.096 339.532 289.236 332.067 286.207Z" fill="#AE7461"/>
<path d="M315.468 303.321C315.468 303.321 314.231 304.273 315.468 306.545C316.705 308.817 320.059 307.194 321.141 306.545C321.141 306.545 319.518 310.331 321.574 311.521C323.629 312.711 326.118 312.387 326.118 312.387C326.118 312.387 326.01 314.659 328.931 316.173C331.852 317.687 332.609 316.173 332.609 316.173C332.609 316.173 332.934 319.959 336.287 320.284C339.641 320.608 340.821 319.456 340.821 319.456L339.316 317.22C339.316 317.22 341.263 313.251 339.749 311.521C338.234 309.79 335.746 310.007 335.746 310.007C335.746 310.007 336.408 306.492 334.479 305.513C330.894 303.694 329.363 307.087 329.363 307.087C329.363 307.087 329.147 303.235 326.334 303.322C323.521 303.409 322.007 305.14 322.007 305.14L315.468 303.321Z" fill="#AE7461"/>
<path d="M329.363 307.087C329.49 307.15 328.959 308.468 328.073 309.972C327.189 311.478 326.294 312.581 326.178 312.501C326.057 312.419 326.751 311.197 327.625 309.708C328.5 308.22 329.232 307.021 329.363 307.087Z" fill="#6F4439"/>
<path d="M335.815 310.494C335.94 310.553 335.389 311.96 334.34 313.487C333.296 315.019 332.185 316.043 332.085 315.947C331.975 315.846 332.891 314.689 333.91 313.193C334.935 311.702 335.681 310.428 335.815 310.494Z" fill="#6F4439"/>
<path d="M268.806 351.319H252.396L248.195 410.993H264.648C267.448 401.904 274.45 354.544 274.45 354.544L268.806 351.319Z" fill="#263238"/>
<path d="M175.867 351.319C175.867 351.319 165.365 375.946 166.415 385.914C167.465 395.882 173.363 410.993 173.363 410.993H254.638C254.638 410.993 256.906 402.667 258.657 390.354C260.407 378.04 265.133 351.319 265.133 351.319H175.867Z" fill="#263238"/>
<path d="M283.27 113.653C280.525 110.189 277.132 106.853 276.43 102.49C275.783 98.478 277.538 94.085 275.739 90.442C273.526 85.959 267.164 85.083 264.405 80.914C263.069 78.895 262.752 76.337 261.434 74.307C259.187 70.847 254.574 69.733 250.456 69.97C246.337 70.207 242.319 71.487 238.195 71.573C232.537 71.692 226.807 69.569 221.312 70.924C215.249 72.419 211.337 77.529 207.201 82.458L201.844 88.147C200.746 89.112 199.591 89.993 198.334 90.722C196.135 91.997 193.649 92.83 191.731 94.498C187.627 98.067 187.604 105.317 191.686 108.912C187.276 110.086 183.94 114.468 183.981 119.031C184.004 121.542 184.929 123.941 185.562 126.37C186.196 128.799 186.518 131.485 185.407 133.736C184.295 135.987 181.279 137.421 179.154 136.083C179.768 139.366 181.953 142.318 184.914 143.862C183.679 145.015 181.991 145.669 180.301 145.65C184.357 156.613 196.53 162.858 208.202 163.477C219.875 164.096 231.262 160.202 242.302 156.36L274.129 149.684C276.919 149.183 278.228 145.883 278.323 143.049C278.417 140.215 277.84 137.235 278.977 134.637C280.535 131.076 284.843 129.351 286.465 125.818C288.309 121.802 286.014 117.117 283.27 113.653Z" fill="#263238"/>
<path d="M207.527 138.801C205.587 131.589 203.678 124.325 203.008 116.887C202.338 109.449 202.958 101.763 205.917 94.906C206.366 93.867 210.09 86.929 211.209 87.098C212.009 87.219 209.599 93.745 209.969 94.464C213.507 101.329 214.149 109.399 213.133 117.054C212.118 124.709 210.162 131.542 207.527 138.801Z" fill="#263238"/>
<path d="M208.258 110.306C208.614 91.5791 219.809 76.1771 238.519 77.0511L240.244 77.2321C257.597 79.0621 270.642 93.9051 270.214 111.349C269.816 127.579 269.167 145.506 268.15 154.129C266.045 171.979 247.875 172.874 247.875 172.874C247.835 172.872 247.386 202.36 247.386 202.36L204.842 172.881L208.258 110.306Z" fill="#FFBE9D"/>
<path d="M247.875 172.875C247.875 172.875 236.539 172.348 225.328 163.542C225.328 163.542 229.517 178.648 247.522 178.919L247.875 172.875Z" fill="#EB996E"/>
<path d="M264.02 125.201C263.926 126.554 262.702 127.59 261.287 127.517C259.875 127.444 258.804 126.291 258.899 124.938C258.993 123.585 260.217 122.548 261.629 122.62C263.043 122.693 264.114 123.849 264.02 125.201Z" fill="#263238"/>
<path d="M265.612 118.365C265.261 118.664 263.478 117.029 260.73 116.747C257.99 116.426 255.825 117.626 255.563 117.258C255.432 117.094 255.818 116.527 256.763 115.98C257.694 115.435 259.233 114.971 260.943 115.159C262.653 115.349 264.026 116.13 264.785 116.862C265.56 117.6 265.783 118.232 265.612 118.365Z" fill="#263238"/>
<path d="M239.163 125.201C239.069 126.554 237.845 127.59 236.43 127.517C235.018 127.444 233.947 126.292 234.042 124.938C234.137 123.586 235.36 122.548 236.773 122.621C238.187 122.693 239.257 123.849 239.163 125.201Z" fill="#263238"/>
<path d="M238.59 116.64C238.238 116.939 236.452 115.304 233.707 115.022C230.967 114.701 228.802 115.901 228.539 115.533C228.409 115.369 228.791 114.802 229.74 114.256C230.671 113.71 232.21 113.247 233.92 113.434C235.63 113.624 237.002 114.406 237.762 115.137C238.536 115.876 238.76 116.508 238.59 116.64Z" fill="#263238"/>
<path d="M246.218 138.784C246.222 138.627 247.96 138.511 250.764 138.449C251.473 138.451 252.152 138.381 252.32 137.915C252.539 137.426 252.325 136.639 252.071 135.787C251.59 134.02 251.088 132.169 250.56 130.228C248.481 122.321 247.055 115.849 247.374 115.767C247.694 115.686 249.638 122.03 251.716 129.938C252.212 131.887 252.686 133.743 253.137 135.52C253.318 136.345 253.679 137.297 253.211 138.311C252.967 138.815 252.412 139.141 251.95 139.215C251.486 139.305 251.091 139.271 250.741 139.255C247.94 139.111 246.212 138.942 246.218 138.784Z" fill="#263238"/>
<path d="M237.934 139.832C238.384 139.853 238.075 142.835 240.404 145.22C242.727 147.611 245.941 147.611 245.92 148.031C245.942 148.222 245.151 148.536 243.806 148.431C242.485 148.337 240.608 147.712 239.183 146.253C237.763 144.791 237.277 142.989 237.304 141.755C237.322 140.497 237.732 139.793 237.934 139.832Z" fill="#263238"/>
<path d="M239.614 105.478C239.264 106.197 236.559 105.553 233.296 105.602C230.032 105.585 227.333 106.254 226.976 105.54C226.819 105.199 227.347 104.545 228.473 103.932C229.59 103.32 231.324 102.809 233.282 102.797C235.239 102.79 236.978 103.283 238.101 103.884C239.234 104.487 239.768 105.136 239.614 105.478Z" fill="#263238"/>
<path d="M265.439 109.115C264.89 109.688 263.066 108.841 260.794 108.57C258.532 108.22 256.548 108.547 256.173 107.847C256.012 107.51 256.381 106.917 257.285 106.415C258.176 105.914 259.616 105.58 261.174 105.792C262.732 106.006 264.027 106.714 264.752 107.437C265.488 108.163 265.684 108.833 265.439 109.115Z" fill="#263238"/>
<path d="M208.323 123.695C208.032 123.531 196.425 118.768 195.527 131.029C194.63 143.289 207.124 141.662 207.171 141.312C207.217 140.961 208.323 123.695 208.323 123.695Z" fill="#FFBE9D"/>
<path d="M203.765 136.392C203.714 136.349 203.54 136.525 203.167 136.665C202.803 136.8 202.189 136.867 201.568 136.581C200.307 136.011 199.367 133.875 199.469 131.66C199.52 130.542 199.831 129.497 200.291 128.646C200.731 127.777 201.357 127.192 202.018 127.124C202.678 127.022 203.111 127.446 203.236 127.802C203.375 128.157 203.279 128.396 203.343 128.422C203.375 128.456 203.621 128.236 203.56 127.722C203.527 127.475 203.404 127.175 203.134 126.918C202.857 126.658 202.433 126.503 201.976 126.519C201.026 126.515 200.111 127.322 199.606 128.256C199.048 129.191 198.672 130.364 198.615 131.62C198.513 134.096 199.608 136.501 201.343 137.143C202.189 137.431 202.927 137.224 203.32 136.962C203.722 136.687 203.806 136.418 203.765 136.392Z" fill="#EB996E"/>
<path d="M263.585 90.515C265.641 89.548 260.096 82.734 255.36 80.206C248.201 76.386 237.073 73.601 230.149 75.091C221.814 76.885 214.75 80.521 210.161 87.707C205.571 94.893 203.468 103.475 203.159 111.995C203.065 114.595 203.16 117.318 204.405 119.602C205.944 122.425 209.122 124.345 208.737 128.077C208.596 129.441 208.898 130.847 209.771 131.904C211.861 134.437 214.752 132.37 216.159 130.201C219.165 125.569 219.835 119.852 220.426 114.362C220.847 110.46 221.262 106.474 220.401 102.645C219.933 100.562 219.093 98.568 218.74 96.461C218.387 94.354 218.602 92.004 220.003 90.393C220.231 90.131 220.6 89.806 221.064 89.449C224.734 86.627 229.656 86.029 233.913 87.85C240.664 90.739 252.227 95.148 255.459 93.002C260.109 89.914 261.311 87.783 261.311 87.783L263.585 90.515Z" fill="#263238"/>
<path d="M230.897 73.468C237.783 71.647 245.451 72.26 251.55 75.939C254.787 77.892 257.634 80.8639 258.422 84.5619C259.21 88.2599 257.371 92.6299 253.785 93.8279L253.535 93.9639C248.188 95.3889 244.831 94.469 239.728 92.327C235.435 90.524 231.704 87.563 227.402 85.781C222.829 83.887 217.682 83.405 212.837 84.417C217.872 79.38 224.011 75.288 230.897 73.468Z" fill="#263238"/>
<path d="M234 71.338C234.005 71.305 234.449 71.341 235.248 71.462C236.041 71.611 237.189 71.861 238.55 72.361C239.909 72.859 241.477 73.611 243.068 74.69C244.653 75.764 246.277 77.175 247.569 79C248.873 80.83 249.584 82.868 250.046 84.721C250.5 86.585 250.699 88.3011 250.8 89.7391C250.902 91.1781 250.905 92.345 250.89 93.149C250.874 93.954 250.834 94.398 250.801 94.398C250.763 94.398 250.734 93.954 250.687 93.153C250.64 92.352 250.58 91.194 250.433 89.771C250.286 88.35 250.051 86.661 249.58 84.839C249.103 83.028 248.394 81.053 247.143 79.301C245.899 77.543 244.329 76.156 242.794 75.086C241.255 74.011 239.735 73.239 238.415 72.705C235.765 71.645 233.98 71.438 234 71.338Z" fill="#455A64"/>
<path d="M245.29 70.6569C245.301 70.6229 245.675 70.7279 246.349 70.9499C246.679 71.0769 247.114 71.1659 247.56 71.4029C248.03 71.6409 248.541 71.8999 249.093 72.1799C251.276 73.4569 253.971 76.0229 255.453 79.6599C255.858 80.5509 256.098 81.4739 256.355 82.3569C256.523 83.2609 256.717 84.1279 256.755 84.9739C256.864 85.8129 256.801 86.6189 256.802 87.3679C256.709 88.1119 256.68 88.8149 256.521 89.4339C256.375 90.0559 256.266 90.6219 256.066 91.0909C255.885 91.5639 255.764 91.9829 255.573 92.2889C255.236 92.9169 255.036 93.2509 255.005 93.2339C254.898 93.1839 255.745 91.8319 256.159 89.3679C256.292 88.7609 256.298 88.0719 256.371 87.3479C256.35 86.6169 256.397 85.8339 256.277 85.0189C256.228 84.1969 256.027 83.3559 255.859 82.4789C255.602 81.6229 255.366 80.7269 254.973 79.8629C253.534 76.3359 250.981 73.8249 248.899 72.4939C248.371 72.1959 247.883 71.9199 247.434 71.6669C247.008 71.4089 246.591 71.2939 246.276 71.1399C245.633 70.8629 245.279 70.6919 245.29 70.6569Z" fill="#455A64"/>
<path d="M253.288 199.399C253.288 201.082 261.722 238.125 264.95 247.224C268.178 256.323 278.4 347.569 277.055 354.068C275.71 360.567 272.213 360.307 272.213 360.307C272.213 360.307 189.63 355.108 180.753 355.888C171.876 356.668 168.11 356.408 165.958 346.269C163.806 336.13 166.022 283.438 164.139 270.7C162.256 257.962 162.24 251.787 161.512 232.862C160.881 216.46 164.613 203.303 172.414 193.808C180.215 184.313 197.483 174.712 197.483 174.712L203.608 165.779L246.953 188.704L247.944 183.486L250.574 191.609L253.288 199.399Z" fill="#455A64"/>
<g opacity="0.3">
<path d="M271.919 312.303C271.197 310.463 268.856 310 266.891 309.782C248.526 307.745 229.409 303.161 215.996 290.452C210.748 285.48 206.61 279.472 202.622 273.443C193.905 260.262 185.71 246.745 177.518 233.232L171.157 235.638C175.059 254.718 178.899 268.532 185.252 284.171C191.613 299.828 196.54 314.984 212.644 320.107C223.054 323.418 242.824 320.88 253.715 320.027C258.262 319.671 262.84 319.231 267.206 317.913C268.526 317.515 269.863 317.012 270.857 316.056C271.851 315.1 272.422 313.586 271.919 312.303Z" fill="black"/>
</g>
<path d="M168.917 230.65C169.392 231.496 206.145 309.993 222.554 313.221C238.963 316.449 289.96 317.203 299.913 315.32C309.866 313.437 319.604 311.684 319.604 311.684C319.604 311.684 326.81 294.566 320.232 279.982L306.534 280.415C306.534 280.415 268.446 278.361 263.066 276.889C257.686 275.418 253.038 270.372 248.196 270.641L219.221 203.211C219.221 203.211 200.391 185.726 186.941 191.106C173.49 196.487 164.976 223.639 168.917 230.65Z" fill="#455A64"/>
<path d="M307.588 314.405C307.554 314.394 307.653 313.924 307.86 313.086C308.077 312.251 308.348 311.029 308.633 309.515C308.926 308.002 309.178 306.182 309.36 304.155C309.518 302.125 309.592 299.886 309.503 297.539C309.3 292.839 308.464 288.642 307.639 285.674C307.229 284.189 306.858 282.994 306.573 282.179C306.297 281.36 306.16 280.9 306.193 280.887C306.226 280.873 306.427 281.308 306.763 282.109C307.108 282.905 307.534 284.088 307.993 285.572C308.915 288.535 309.819 292.768 310.024 297.518C310.114 299.89 310.025 302.153 309.839 304.199C309.629 306.244 309.336 308.074 308.995 309.589C308.661 311.105 308.334 312.32 308.056 313.142C307.787 313.966 307.622 314.416 307.588 314.405Z" fill="#263238"/>
<path d="M219.22 203.212C219.22 203.212 219.415 203.614 219.767 204.407C220.121 205.214 220.638 206.392 221.313 207.93C222.663 211.039 224.641 215.594 227.175 221.43C232.23 233.14 239.5 249.981 248.384 270.56L248.184 270.436C250.472 270.329 252.621 271.324 254.608 272.403C256.607 273.505 258.543 274.786 260.667 275.756C262.765 276.822 265.147 277.069 267.56 277.36C269.973 277.646 272.436 277.857 274.933 278.074C284.928 278.9 295.519 279.551 306.547 280.166H306.526C310.834 280.028 315.495 279.879 320.224 279.728L320.396 279.723L320.464 279.878C322.577 284.714 323.462 290.153 323.207 295.599C322.973 301.05 321.857 306.535 319.844 311.785L319.795 311.913L319.65 311.94C316.891 312.45 313.924 312.997 310.941 313.549C307.743 314.139 304.565 314.726 301.407 315.309C298.245 315.925 295.021 316.162 291.863 316.292C285.526 316.581 279.281 316.605 273.146 316.573C267.011 316.539 260.985 316.397 255.087 316.178C249.189 315.97 243.418 315.664 237.794 315.235C234.982 315.034 232.209 314.763 229.476 314.464C226.743 314.103 224.06 313.86 221.421 313.126C220.134 312.646 218.993 311.91 217.933 311.113C216.87 310.315 215.897 309.428 214.97 308.515C213.113 306.69 211.452 304.741 209.884 302.78C203.67 294.882 198.799 286.879 194.445 279.555C185.83 264.835 179.612 252.507 175.343 243.986C173.22 239.718 171.613 236.384 170.534 234.118C169.456 231.852 168.916 230.649 168.916 230.649C168.916 230.649 169.079 230.936 169.365 231.512C169.655 232.1 170.077 232.955 170.628 234.072C171.753 236.329 173.402 239.637 175.524 243.894C179.847 252.385 186.114 264.684 194.762 279.367C199.131 286.67 204.018 294.655 210.221 302.509C211.785 304.458 213.441 306.393 215.282 308.196C216.2 309.098 217.163 309.972 218.205 310.752C219.244 311.531 220.357 312.243 221.577 312.695C224.076 313.386 226.828 313.648 229.529 313.997C232.254 314.291 235.022 314.558 237.83 314.755C243.445 315.177 249.211 315.477 255.104 315.68C260.997 315.893 267.018 316.031 273.148 316.061C279.277 316.089 285.518 316.062 291.837 315.772C295.004 315.639 298.164 315.408 301.31 314.796C304.468 314.213 307.648 313.625 310.846 313.035C313.83 312.484 316.798 311.936 319.558 311.427L319.364 311.582C321.343 306.421 322.46 300.957 322.69 295.577C322.945 290.192 322.07 284.837 320 280.085L320.24 280.234C315.511 280.382 310.85 280.527 306.542 280.662H306.531L306.521 280.661C295.488 280.037 284.898 279.374 274.894 278.532C272.394 278.311 269.929 278.096 267.507 277.805C266.295 277.667 265.096 277.511 263.904 277.285C262.696 277.103 261.566 276.633 260.484 276.152C258.319 275.158 256.38 273.867 254.402 272.772C252.438 271.697 250.352 270.745 248.207 270.843L248.062 270.85L248.006 270.719C239.191 250.111 231.977 233.245 226.962 221.518C224.472 215.663 222.529 211.093 221.202 207.974C220.551 206.426 220.052 205.24 219.711 204.428C219.377 203.63 219.22 203.212 219.22 203.212Z" fill="#263238"/>
<path d="M215.381 197.918C215.346 197.95 214.869 197.445 213.955 196.598C213.044 195.748 211.642 194.6 209.751 193.428C207.865 192.253 205.448 191.115 202.616 190.339C199.79 189.559 196.537 189.195 193.168 189.511C189.802 189.867 186.685 190.868 184.069 192.193C181.446 193.515 179.302 195.109 177.686 196.634C176.065 198.156 174.917 199.559 174.193 200.573C173.464 201.585 173.097 202.173 173.056 202.149C173.041 202.14 173.117 201.984 173.278 201.696C173.448 201.413 173.664 200.972 174.026 200.458C174.705 199.401 175.821 197.946 177.432 196.368C179.038 194.788 181.193 193.135 183.851 191.766C186.502 190.394 189.678 189.357 193.116 188.994C196.557 188.67 199.875 189.058 202.744 189.877C205.62 190.693 208.06 191.886 209.947 193.117C211.839 194.345 213.22 195.55 214.095 196.452C214.551 196.884 214.851 197.275 215.073 197.518C215.288 197.769 215.394 197.906 215.381 197.918Z" fill="#263238"/>
<path d="M248.084 270.7C248.219 270.75 247.389 273.3 246.23 276.394C245.071 279.489 244.023 281.957 243.888 281.906C243.753 281.856 244.583 279.306 245.742 276.211C246.901 273.118 247.949 270.65 248.084 270.7Z" fill="#263238"/>
<path d="M314.66 283.63C314.66 283.601 314.801 283.561 315.038 283.646C315.273 283.728 315.575 283.968 315.775 284.367C315.964 284.744 316.099 285.37 315.738 285.925C315.398 286.439 314.752 286.833 313.999 286.728C313.233 286.585 312.786 285.921 312.689 285.331C312.584 284.713 312.84 284.151 313.189 283.854C313.546 283.544 313.943 283.512 314.174 283.532C314.414 283.555 314.532 283.618 314.527 283.65C314.544 283.75 313.944 283.614 313.445 284.119C313.215 284.369 313.06 284.802 313.161 285.24C313.251 285.676 313.611 286.136 314.087 286.215C314.566 286.293 315.091 286.012 315.34 285.658C315.603 285.31 315.556 284.85 315.438 284.513C315.18 283.797 314.64 283.697 314.66 283.63Z" fill="#263238"/>
<path d="M247.989 191.314C247.977 191.334 247.635 191.156 247.002 190.803C246.321 190.414 245.407 189.892 244.267 189.24L244.459 189.156C243.919 191.889 243.395 195.911 242.478 200.731L242.417 201.051L242.138 200.875C238.114 198.339 233.286 195.44 228.135 192.327C224.295 190.028 220.705 187.707 217.398 185.702C214.074 183.713 211.037 181.991 208.48 180.557C205.959 179.155 203.9 178.009 202.411 177.181C201.734 176.8 201.188 176.493 200.765 176.255C200.391 176.039 200.198 175.919 200.206 175.903C200.214 175.887 200.423 175.976 200.814 176.162C201.249 176.378 201.811 176.656 202.507 177.002C203.97 177.745 206.076 178.841 208.658 180.234C211.24 181.628 214.298 183.319 217.644 185.289C220.957 187.319 224.59 189.544 228.405 191.881C233.553 194.993 238.374 197.918 242.378 200.495L242.038 200.639C242.996 195.856 243.587 191.83 244.206 189.103L244.247 188.924L244.399 189.019C245.513 189.714 246.406 190.271 247.071 190.687C247.682 191.077 248.001 191.294 247.989 191.314Z" fill="#263238"/>
<g opacity="0.3">
<path d="M206.298 179.14C213.838 184.758 221.378 190.376 228.917 195.994C233.894 199.702 238.99 203.473 244.899 205.37C244.79 200.13 244.681 194.89 244.572 189.651L242.257 200.685L206.298 179.14Z" fill="black"/>
</g>
<path d="M439.221 100.405C435.283 100.932 431.179 98.1109 430.26 94.2459C429.34 90.3809 431.734 86.0149 435.486 84.7109C432.983 82.2429 432.288 78.1299 433.842 74.9769C435.396 71.8239 439.081 69.8689 442.563 70.3509C442.64 66.8809 444.648 63.5169 447.665 61.8009C450.682 60.0859 454.6 60.0809 457.621 61.7889C461.389 58.4289 467.566 58.1859 471.587 61.2389C474.945 60.5509 478.654 62.2749 480.294 65.2839C481.934 68.2929 481.372 72.3449 478.975 74.7939" fill="#263238"/>
<path d="M438.066 101.565C439.142 83.6698 453.781 69.6048 471.704 69.2408L473.485 69.2048C492.711 69.9358 502.831 86.6718 501.569 105.871L502.712 174.366L455.994 191.136L455.586 166.469C455.586 166.469 437.067 163.975 436.463 145.522C436.171 136.609 437.064 118.208 438.066 101.565Z" fill="#AE7461"/>
<path d="M455.433 166.444C455.433 166.444 467.234 166.913 479.474 158.873C479.474 158.873 474.056 172.272 455.605 170.985L455.433 166.444Z" fill="#6F4439"/>
<path d="M443.25 118.254C443.229 119.647 444.391 120.813 445.846 120.862C447.298 120.91 448.494 119.823 448.515 118.43C448.536 117.037 447.374 115.869 445.922 115.82C444.467 115.772 443.271 116.861 443.25 118.254Z" fill="#263238"/>
<path d="M442.217 110.514C442.551 110.851 444.517 109.332 447.354 109.282C450.187 109.191 452.298 110.608 452.598 110.255C452.746 110.098 452.401 109.484 451.481 108.843C450.575 108.204 449.041 107.596 447.273 107.639C445.507 107.685 444.034 108.366 443.193 109.049C442.335 109.736 442.053 110.364 442.217 110.514Z" fill="#263238"/>
<path d="M469.093 118.254C469.072 119.647 470.235 120.813 471.689 120.861C473.141 120.91 474.337 119.823 474.358 118.429C474.379 117.037 473.216 115.869 471.764 115.82C470.31 115.771 469.113 116.861 469.093 118.254Z" fill="#263238"/>
<path d="M470.109 110.475C470.443 110.812 472.412 109.294 475.247 109.244C478.079 109.153 480.191 110.57 480.491 110.216C480.639 110.059 480.297 109.446 479.373 108.804C478.468 108.165 476.933 107.557 475.166 107.6C473.4 107.646 471.926 108.327 471.085 109.01C470.23 109.697 469.945 110.325 470.109 110.475Z" fill="#263238"/>
<path d="M460.243 131.721C460.253 131.559 458.484 131.29 455.62 130.983C454.894 130.923 454.206 130.793 454.074 130.301C453.893 129.781 454.18 128.995 454.514 128.144C455.159 126.378 455.834 124.526 456.543 122.585C459.358 114.672 461.379 108.172 461.06 108.061C460.74 107.951 458.2 114.275 455.385 122.188C454.708 124.139 454.061 125.999 453.446 127.778C453.189 128.607 452.736 129.55 453.128 130.628C453.334 131.165 453.874 131.548 454.34 131.663C454.807 131.795 455.215 131.795 455.573 131.809C458.452 131.905 460.235 131.881 460.243 131.721Z" fill="#263238"/>
<path d="M469.052 100.838C469.441 101.549 471.855 100.72 474.847 100.563C477.834 100.338 480.367 100.85 480.626 100.097C480.737 99.7387 480.192 99.1037 479.102 98.5497C478.021 97.9957 476.385 97.5837 474.592 97.6967C472.801 97.8137 471.256 98.4287 470.285 99.1147C469.305 99.7997 468.878 100.498 469.052 100.838Z" fill="#263238"/>
<path d="M441.669 100.481C442.28 101.113 444.607 100.396 447.422 100.308C450.233 100.137 452.63 100.635 453.164 99.9499C453.398 99.6179 453.01 98.9799 451.956 98.3919C450.918 97.8049 449.19 97.3429 447.257 97.4319C445.324 97.5229 443.659 98.1409 442.693 98.8199C441.712 99.5019 441.398 100.172 441.669 100.481Z" fill="#263238"/>
<path d="M439.668 93.0638C439.668 93.0638 444.301 81.4058 449.82 78.5948C456.501 75.1918 459.557 82.5388 465.95 80.6108C472.344 78.6828 478.721 75.4178 485.394 80.2548C492.698 85.5488 489.405 89.4349 490.016 97.6159C492.494 130.782 498.748 140.048 500.155 124.374C500.309 122.657 505.036 121.197 505.594 113.944C506.317 104.538 506.445 93.1328 504.215 86.5138C502.334 80.9348 499.054 77.1208 493.226 72.9608C484.026 66.3938 471.575 66.5028 463.139 67.5248C454.704 68.5468 438.603 78.6058 439.668 93.0638Z" fill="#263238"/>
<path d="M498.969 123.895C499.027 121.044 501.436 118.745 504.28 118.957C507.729 119.214 511.599 121.091 511.517 128.209C511.371 140.836 498.724 138.085 498.706 137.722C498.695 137.476 498.861 129.178 498.969 123.895Z" fill="#AE7461"/>
<path d="M501.509 133.003C501.565 132.964 501.728 133.16 502.097 133.334C502.457 133.504 503.079 133.626 503.741 133.387C505.081 132.913 506.228 130.808 506.316 128.533C506.361 127.385 506.133 126.288 505.736 125.377C505.361 124.449 504.772 123.797 504.101 123.67C503.434 123.507 502.954 123.904 502.796 124.258C502.623 124.609 502.7 124.862 502.633 124.883C502.597 124.914 502.365 124.668 502.472 124.148C502.527 123.898 502.679 123.602 502.978 123.363C503.284 123.12 503.731 122.999 504.198 123.056C505.171 123.134 506.037 124.04 506.473 125.04C506.963 126.045 507.246 127.278 507.195 128.568C507.084 131.112 505.755 133.478 503.923 133.984C503.032 134.205 502.294 133.929 501.915 133.627C501.528 133.308 501.465 133.025 501.509 133.003Z" fill="#6F4439"/>
<path d="M498.225 99.4509C496.609 100.603 494.901 101.792 492.93 102.028C490.959 102.264 488.678 101.176 488.305 99.2259C488.138 98.3509 488.331 97.3269 487.74 96.6599C487.034 95.8639 485.768 96.1439 484.713 96.2769C481.052 96.7409 477.242 94.2219 476.235 90.6719C475.328 92.0919 473.143 92.0759 471.708 91.1919C470.273 90.3079 469.331 88.8329 468.197 87.5859C467.063 86.3399 465.485 85.2359 463.821 85.5069C462.891 85.6579 462.029 86.2319 461.089 86.1679C459.429 86.0539 458.58 84.1309 458.296 82.4909C458.012 80.8509 457.778 78.9359 456.356 78.0709C455.039 77.2689 453.363 77.7819 451.842 78.0379C450.321 78.2939 448.344 77.9759 447.923 76.4919C447.702 75.7139 448.021 74.8839 448.441 74.1919C450.343 71.0589 454.6 69.5969 458.025 70.9019C459.175 66.7069 463.008 63.3829 467.324 62.8389C471.64 62.2939 476.179 64.5629 478.334 68.3409C480.952 65.8669 484.806 64.7719 488.334 65.5019C491.861 66.2309 494.966 68.7639 496.388 72.0739C499.441 71.2039 502.964 72.3199 504.96 74.7889C506.955 77.2579 507.308 80.9369 505.817 83.7399C508.112 84.9899 510.099 87.2039 510.2 89.8149C510.3 92.4259 507.809 95.0799 505.274 94.4439C506.334 96.4569 505.561 99.2339 503.614 100.41C501.667 101.586 498.849 100.978 497.561 99.1039" fill="#263238"/>
<path d="M457.165 74.6338C457.155 74.6348 457.157 74.7128 457.173 74.8648C457.193 75.0158 457.207 75.2448 457.267 75.5368C457.395 76.1168 457.647 76.9748 458.233 77.9498C458.822 78.9088 459.728 80.0128 461.092 80.8758C462.428 81.7498 464.251 82.3978 466.291 82.2448L466.071 81.9698C465.701 83.0568 465.835 84.3498 466.395 85.4488C466.927 86.5668 467.749 87.5508 468.618 88.5078C469.062 88.9668 469.45 89.5098 470.06 89.9268C470.652 90.3278 471.356 90.5528 472.075 90.6278C473.502 90.7808 475.099 90.3078 476.107 89.0898L475.632 88.9648C476.004 91.4668 477.482 93.9478 479.78 95.4318C480.997 96.2748 482.492 96.7738 483.951 96.7048C485.412 96.6608 486.76 96.2048 488.016 95.7258L487.676 95.5838C488.386 97.1388 489.456 98.4558 490.742 99.4178C492.004 100.379 493.672 100.924 495.163 100.525C498.129 99.8338 500.054 97.3168 500.404 94.9758L500.121 95.1148C501.615 95.8898 503.203 95.9348 504.47 95.6638C505.755 95.4018 506.756 94.8208 507.467 94.2538C508.18 93.6758 508.596 93.0888 508.846 92.6828C509.074 92.2618 509.167 92.0298 509.153 92.0238C509.088 91.9728 508.754 92.9918 507.337 94.0868C506.629 94.6098 505.649 95.1418 504.412 95.3638C503.192 95.5978 501.687 95.5198 500.307 94.7758L500.068 94.6468L500.024 94.9148C499.668 97.0988 497.812 99.4488 495.062 100.058C493.711 100.404 492.245 99.9158 491.049 99.0068C489.847 98.0988 488.827 96.8298 488.168 95.3678L488.064 95.1358L487.828 95.2258C486.591 95.6938 485.289 96.1218 483.939 96.1588C482.589 96.2158 481.247 95.7708 480.087 94.9728C477.916 93.5688 476.529 91.2478 476.165 88.8788L476.074 88.2838L475.69 88.7538C474.84 89.7958 473.411 90.2458 472.129 90.1108C471.485 90.0468 470.86 89.8498 470.343 89.5038C469.839 89.1728 469.434 88.6368 468.984 88.1738C468.117 87.2338 467.318 86.2868 466.812 85.2468C466.279 84.2198 466.158 83.0828 466.473 82.0988L466.57 81.7958L466.253 81.8238C464.331 81.9928 462.577 81.4078 461.273 80.5898C459.942 79.7838 459.038 78.7378 458.435 77.8228C457.244 75.9408 457.254 74.6028 457.165 74.6338Z" fill="#455A64"/>
<path d="M470.021 132.697C469.57 132.75 470.091 135.726 467.918 138.288C465.751 140.856 462.521 141.082 462.571 141.502C462.563 141.696 463.379 141.955 464.725 141.755C466.046 141.568 467.889 140.806 469.218 139.24C470.542 137.67 470.904 135.824 470.79 134.586C470.684 133.322 470.221 132.644 470.021 132.697Z" fill="#263238"/>
<path d="M366.903 276.304C368.503 275.664 421.352 269.314 421.352 269.314L442.795 251.161L440.783 303.714L373.303 310.22L366.903 276.304Z" fill="#005C4B"/>
<path opacity="0.3" d="M433.314 259.187C432.671 259.508 427.375 264.215 427.375 264.215L428.99 304.683L433.314 259.187Z" fill="black"/>
<path d="M523.356 354.357H434.091C434.091 354.357 438.817 379.544 440.567 391.151C442.317 402.757 444.875 410.993 444.875 410.993H525.722C525.722 410.993 531.757 396.362 532.808 386.966C533.857 377.57 523.356 354.357 523.356 354.357Z" fill="#263238"/>
<path d="M427.439 357.397C427.439 357.397 424.945 386.108 427.439 410.993H458.36V388.064L427.439 357.397Z" fill="#263238"/>
<path d="M444.618 216.662L454.238 195.596L455.433 182.584C455.433 182.584 473.88 170.99 482.631 166.614C491.382 162.238 503.172 158.277 503.172 158.277V170.554L444.618 216.662Z" fill="#EBEBEB"/>
<path d="M525.026 324.254C525.026 324.254 530.251 254.036 530.605 248.818C530.605 248.818 533.691 211.3 527.029 197.013C520.367 182.727 505.46 170.17 505.46 170.17L504.088 162.67L474.97 181.022L461.51 192.729C461.51 192.729 453.87 200.795 448.81 208.531C444.989 213.817 440.741 220.618 438.851 229.17C438.16 232.296 430.149 269.675 429.91 295.731C429.91 295.731 428.679 318.461 427.366 331.337C425.741 347.273 423.265 383.602 423.803 405.126L518.156 402.244C541.473 398.687 537.372 396.369 537.372 396.369L525.026 324.254Z" fill="#005C4B"/>
<path d="M503.172 170.556C503.172 170.556 502.953 170.669 502.518 170.854C502.058 171.046 501.417 171.314 500.593 171.659C499.77 172.055 498.77 172.578 497.595 173.188C496.468 173.886 495.124 174.607 493.732 175.599C488.072 179.397 480.603 185.834 473.001 194.76L472.947 194.823L472.869 194.837C469.996 195.365 466.96 195.924 463.816 196.502L464.011 196.276C463.869 200.482 463.72 204.896 463.566 209.464L463.563 209.567L463.485 209.641C458.951 213.934 454.345 218.793 450.174 224.232C448.482 226.461 446.923 228.752 445.61 231.13L445.117 232.019L444.74 232.948C444.483 233.562 444.238 234.18 444.057 234.831C443.653 236.109 443.255 237.378 442.926 238.66C441.529 243.759 440.377 248.736 439.297 253.478C437.148 262.966 435.359 271.544 433.876 278.751C430.914 293.167 429.246 302.114 429.246 302.114C429.246 302.114 429.268 301.541 429.448 300.473C429.613 299.401 429.887 297.827 430.247 295.801C430.978 291.75 432.082 285.898 433.515 278.678C434.953 271.46 436.705 262.872 438.829 253.372C439.897 248.623 441.04 243.642 442.435 238.524C442.763 237.24 443.162 235.96 443.568 234.67C443.748 234.021 443.999 233.382 444.266 232.743L444.657 231.783L445.156 230.881C446.485 228.47 448.057 226.16 449.759 223.917C453.959 218.442 458.575 213.581 463.143 209.269L463.061 209.446C463.225 204.878 463.384 200.464 463.536 196.259L463.543 196.067L463.731 196.033C466.876 195.466 469.914 194.917 472.789 194.399L472.657 194.476C480.33 185.537 487.857 179.137 493.588 175.382C494.996 174.403 496.357 173.694 497.499 173.012C498.689 172.417 499.703 171.911 500.537 171.534C501.375 171.215 502.027 170.966 502.494 170.789C502.938 170.624 503.172 170.556 503.172 170.556Z" fill="#263238"/>
<path d="M471.496 226.041L472.628 319.737L458.36 410.992H495.975C495.975 410.992 513.07 341.704 517.051 327.143C520.917 313.004 526.709 241.835 527.223 238.341C527.424 236.971 531.502 212.393 519.497 200.798" fill="#005C4B"/>
<path d="M519.497 200.799C519.497 200.799 519.769 201.057 520.284 201.581C520.795 202.106 521.514 202.934 522.339 204.107C523.984 206.444 525.921 210.306 527.037 215.653C528.162 220.984 528.558 227.718 527.752 235.422C527.187 239.26 526.904 243.363 526.488 247.737C526.091 252.104 525.672 256.721 525.231 261.571C524.334 271.269 523.321 281.893 522.098 293.293C521.47 298.991 520.818 304.886 520.014 310.945C519.193 316.993 518.395 323.265 516.701 329.519C510.417 354.548 503.501 382.094 496.229 411.056L496.179 411.254H495.976C494.695 411.254 493.308 411.254 491.918 411.254C480.503 411.253 469.292 411.252 458.361 411.251H458.06L458.107 410.954C463.386 377.296 468.258 346.23 472.418 319.706L472.415 319.741C472.11 291.369 471.859 267.948 471.683 251.608C471.609 243.45 471.552 237.062 471.513 232.701C471.501 230.534 471.491 228.872 471.484 227.74C471.481 226.619 471.496 226.042 471.496 226.042C471.496 226.042 471.525 226.619 471.549 227.74C471.57 228.872 471.6 230.533 471.64 232.7C471.706 237.061 471.803 243.448 471.926 251.605C472.145 267.945 472.459 291.364 472.84 319.736V319.754L472.837 319.772C468.702 346.301 463.859 377.372 458.613 411.034L458.359 410.737C469.29 410.736 480.501 410.735 491.916 410.734C493.306 410.734 494.693 410.734 495.974 410.734L495.721 410.932C503.009 381.97 509.94 354.424 516.238 329.394C517.929 323.179 518.731 316.934 519.56 310.886C520.372 304.834 521.032 298.942 521.669 293.247C522.911 281.853 523.945 271.232 524.865 261.537C525.318 256.689 525.75 252.073 526.158 247.707C526.585 243.353 526.887 239.201 527.462 235.391C528.293 227.718 527.928 221.007 526.838 215.694C525.756 210.365 523.861 206.512 522.251 204.166C521.444 202.989 520.74 202.153 520.243 201.617C519.744 201.083 519.497 200.799 519.497 200.799Z" fill="#263238"/>
<path d="M491.389 328.958C491.367 329.023 490.251 328.72 488.482 328.116C486.714 327.513 484.299 326.593 481.692 325.437C479.085 324.278 476.782 323.104 475.149 322.197C473.515 321.291 472.542 320.665 472.575 320.606C472.612 320.54 473.647 321.051 475.319 321.871C476.991 322.692 479.308 323.808 481.903 324.961C484.499 326.112 486.88 327.081 488.61 327.771C490.34 328.461 491.414 328.886 491.389 328.958Z" fill="#263238"/>
<path d="M426.995 335.169C426.986 335.168 426.983 335.085 426.986 334.923C426.993 334.73 427.001 334.495 427.011 334.205C427.047 333.532 427.096 332.612 427.159 331.449C427.314 329.012 427.534 325.563 427.804 321.32C428.381 312.77 429.205 300.958 430.358 287.931C431.513 274.899 432.843 263.129 433.928 254.627C434.473 250.376 434.935 246.939 435.283 244.568C435.455 243.416 435.591 242.505 435.691 241.839C435.739 241.553 435.778 241.321 435.81 241.131C435.84 240.972 435.859 240.891 435.868 240.892C435.877 240.893 435.875 240.976 435.863 241.138C435.845 241.33 435.823 241.565 435.795 241.853C435.719 242.522 435.615 243.438 435.484 244.595C435.198 247.02 434.792 250.451 434.294 254.672C433.303 263.183 432.032 274.952 430.878 287.978C429.726 300.999 428.844 312.804 428.173 321.347C427.834 325.585 427.558 329.03 427.363 331.464C427.259 332.624 427.178 333.542 427.118 334.213C427.087 334.501 427.062 334.735 427.041 334.927C427.019 335.088 427.004 335.17 426.995 335.169Z" fill="#263238"/>
<path d="M503.172 188.978C503.009 189.033 502.087 185.378 499.633 181.514C497.214 177.626 494.321 175.211 494.441 175.088C494.48 175.041 495.251 175.579 496.348 176.63C497.444 177.678 498.835 179.27 500.074 181.236C501.308 183.204 502.141 185.148 502.609 186.59C503.081 188.034 503.232 188.963 503.172 188.978Z" fill="#263238"/>
<path d="M436.798 305.389C436.825 305.383 436.92 305.619 436.89 306.07C436.857 306.51 436.662 307.183 436.073 307.766C435.522 308.356 434.426 308.777 433.36 308.382C432.837 308.204 432.339 307.865 431.966 307.385C431.59 306.909 431.383 306.256 431.402 305.627C431.412 304.821 431.661 304.049 432.126 303.447C432.359 303.149 432.66 302.9 433.002 302.755C433.362 302.622 433.623 302.559 433.921 302.464L433.958 302.452L433.991 302.453C434.672 302.47 435.333 302.617 435.805 302.974C436.284 303.319 436.523 303.793 436.645 304.166C436.876 304.934 436.831 305.385 436.798 305.389C436.736 305.402 436.681 304.949 436.395 304.264C436.246 303.93 436.005 303.543 435.592 303.283C435.187 303.01 434.614 302.905 433.99 302.909L434.059 302.898C433.787 302.994 433.442 303.098 433.195 303.198C432.941 303.313 432.709 303.508 432.522 303.757C432.147 304.254 431.928 304.939 431.921 305.631C431.867 306.73 432.646 307.616 433.52 307.931C434.403 308.279 435.294 307.982 435.82 307.498C436.368 307.021 436.599 306.437 436.688 306.041C436.777 305.635 436.755 305.394 436.798 305.389Z" fill="#263238"/>
<path d="M435.399 338.519C435.425 338.513 435.52 338.749 435.491 339.2C435.458 339.64 435.263 340.313 434.674 340.896C434.124 341.485 433.027 341.907 431.961 341.512C431.438 341.334 430.94 340.995 430.567 340.515C430.191 340.039 429.984 339.386 430.003 338.757C430.014 337.951 430.262 337.179 430.727 336.577C430.96 336.279 431.261 336.03 431.604 335.885C431.964 335.752 432.225 335.689 432.523 335.594L432.56 335.582L432.593 335.583C433.274 335.6 433.935 335.747 434.407 336.104C434.886 336.449 435.125 336.923 435.247 337.297C435.477 338.064 435.432 338.515 435.399 338.519C435.337 338.532 435.282 338.079 434.996 337.394C434.847 337.06 434.606 336.673 434.193 336.413C433.788 336.14 433.215 336.035 432.591 336.039L432.66 336.028C432.388 336.124 432.043 336.228 431.796 336.328C431.542 336.443 431.31 336.638 431.123 336.887C430.748 337.384 430.528 338.069 430.522 338.761C430.468 339.86 431.247 340.746 432.121 341.061C433.004 341.409 433.895 341.111 434.421 340.628C434.969 340.151 435.2 339.567 435.289 339.171C435.378 338.765 435.356 338.524 435.399 338.519Z" fill="#263238"/>
<path d="M515.262 195.254C515.209 195.343 513.968 194.548 511.773 193.707C510.68 193.277 509.333 192.89 507.815 192.58C506.291 192.301 504.593 192.119 502.804 192.132C501.015 192.168 499.322 192.398 497.806 192.718C496.297 193.07 494.961 193.494 493.881 193.954C491.71 194.856 490.491 195.684 490.436 195.597C490.416 195.567 490.71 195.348 491.262 194.975C491.535 194.783 491.878 194.562 492.299 194.345C492.717 194.123 493.181 193.842 493.734 193.617C494.814 193.106 496.164 192.636 497.698 192.251C499.239 191.897 500.969 191.648 502.797 191.612C504.625 191.598 506.36 191.8 507.91 192.111C509.454 192.453 510.816 192.886 511.91 193.367C512.47 193.577 512.941 193.844 513.365 194.055C513.792 194.26 514.141 194.472 514.419 194.657C514.981 195.012 515.281 195.223 515.262 195.254Z" fill="#263238"/>
<g opacity="0.3">
<path d="M432.87 282.897C436.945 276.968 438.44 271.376 440.617 264.519C443.852 254.329 444.755 242.816 449.831 233.407C452.821 227.866 456.336 222.181 461.534 218.628C466.604 215.163 467.355 210.757 467.255 198.842C470.879 198.878 474.71 196.084 475.165 195.595C477.634 192.942 479.42 188.73 479.609 187.267C477.067 190.031 472.829 194.617 472.829 194.617C472.829 194.617 463.638 196.325 463.773 196.266C463.547 200.85 463.539 204.87 463.313 209.454C463.313 209.454 445.681 228.161 444.309 231.922C442.936 235.684 432.87 282.897 432.87 282.897Z" fill="black"/>
</g>
<g opacity="0.3">
<path d="M498.333 399.69C520.678 357.397 527.622 301.788 526.293 248.817C526.293 248.817 519.879 313.201 517.717 324.253C515.57 335.228 498.333 399.69 498.333 399.69Z" fill="black"/>
</g>
<path d="M501.744 163.749C501.753 163.764 501.581 163.896 501.243 164.132C500.857 164.394 500.363 164.729 499.754 165.142C498.393 166.037 496.518 167.269 494.225 168.776C489.481 171.833 483.02 175.996 475.883 180.596C473.12 182.358 470.458 184.055 467.968 185.643L467.986 185.63C467.121 186.299 466.277 186.952 465.458 187.586C464.618 188.202 463.897 188.829 463.2 189.514C461.815 190.852 460.582 192.153 459.473 193.334L459.273 193.547L459.158 193.282C457.96 190.513 456.98 188.249 456.272 186.612C455.96 185.862 455.708 185.256 455.512 184.786C455.344 184.366 455.264 184.141 455.281 184.134C455.298 184.126 455.412 184.336 455.613 184.741C455.833 185.2 456.115 185.792 456.466 186.526C457.213 188.146 458.245 190.386 459.508 193.127L459.192 193.076C460.285 191.874 461.504 190.555 462.887 189.192C463.561 188.512 464.35 187.817 465.174 187.204C465.987 186.567 466.823 185.911 467.681 185.238L467.69 185.231L467.699 185.225C470.185 183.631 472.843 181.926 475.602 180.156C482.773 175.605 489.263 171.487 494.03 168.462C496.359 167.013 498.264 165.829 499.647 164.969C500.278 164.589 500.788 164.282 501.188 164.042C501.544 163.835 501.735 163.734 501.744 163.749Z" fill="#263238"/>
<path d="M31.5183 120.275C31.3993 120.342 27.1483 112.968 22.0253 103.806C16.9003 94.642 12.8443 87.161 12.9643 87.094C13.0833 87.027 17.3333 94.4 22.4583 103.564C27.5803 112.726 31.6373 120.209 31.5183 120.275Z" fill="#263238"/>
<path d="M45.8823 88.471C46.0193 88.479 45.8173 94.126 45.4323 101.083C45.0473 108.043 44.6243 113.677 44.4873 113.669C44.3503 113.662 44.5523 108.015 44.9373 101.056C45.3223 94.0989 45.7453 88.464 45.8823 88.471Z" fill="#263238"/>
<path d="M21.2483 128.094C21.2043 128.224 16.4123 126.721 10.5453 124.738C4.67631 122.754 -0.0436949 121.042 0.000305143 120.912C0.0443051 120.782 4.83531 122.285 10.7043 124.269C16.5703 126.252 21.2923 127.965 21.2483 128.094Z" fill="#263238"/>
<path d="M93.1073 142.28C84.2693 122.106 60.7503 112.916 40.5763 121.754C20.4023 130.592 11.2123 154.111 20.0493 174.285C26.4483 188.891 40.5423 197.733 55.4923 198.151C57.3883 202.48 59.5293 207.366 59.5293 207.366L91.5453 193.341C91.5453 193.341 89.4733 188.084 87.5223 183.436C96.6283 172.214 99.3053 156.428 93.1073 142.28Z" fill="#005C4B"/>
<path d="M86.7483 195.432C86.7483 195.432 86.6573 195.29 86.4903 195.006C86.3213 194.715 86.0773 194.293 85.7583 193.742C85.1203 192.628 84.1923 190.977 83.0273 188.834C80.7093 184.544 77.4453 178.278 73.8673 170.322C72.9703 168.335 72.0563 166.24 71.1313 164.047C70.6753 162.947 70.2103 161.826 69.7363 160.683C69.2763 159.543 68.7603 158.356 68.6523 157.043C68.5983 156.391 68.6793 155.711 68.9373 155.087C69.1933 154.471 69.6583 153.885 70.3263 153.629C70.9963 153.366 71.7543 153.517 72.3573 153.855C72.9623 154.204 73.4733 154.719 73.8053 155.344C74.4873 156.612 74.3403 158.181 73.7373 159.466C73.1303 160.769 72.0673 161.854 70.7893 162.569C69.5093 163.284 67.9983 163.624 66.4993 163.5C64.9943 163.385 63.5403 162.763 62.3253 161.838C61.1073 160.911 60.1033 159.676 59.4483 158.256C59.1253 157.548 58.8643 156.791 58.7923 155.994C58.7173 155.211 58.8003 154.342 59.3153 153.662C59.5683 153.328 59.9323 153.075 60.3303 152.943C60.7303 152.817 61.1573 152.789 61.5653 152.854C62.3883 152.967 63.1393 153.413 63.7123 153.991C64.2953 154.569 64.7393 155.262 65.1233 155.976C65.5033 156.693 65.8393 157.43 66.1473 158.185C66.7563 159.694 67.2143 161.294 67.3533 162.952C67.4933 164.598 67.3053 166.337 66.5273 167.854C66.1483 168.61 65.6523 169.311 65.0353 169.892C64.4163 170.467 63.6773 170.921 62.8663 171.168C62.0533 171.412 61.1853 171.417 60.3663 171.256C59.5433 171.092 58.7753 170.737 58.0833 170.295C56.6963 169.402 55.5673 168.205 54.5663 166.957C54.0633 166.332 53.5923 165.688 53.1413 165.036C52.6913 164.386 52.2333 163.732 51.8953 163.003C51.5583 162.284 51.3533 161.454 51.5063 160.646C51.5783 160.247 51.7273 159.853 51.9843 159.524C52.2383 159.192 52.6223 158.958 53.0333 158.884C53.4473 158.802 53.8703 158.883 54.2373 159.042C54.6073 159.199 54.9383 159.422 55.2393 159.672C55.8423 160.17 56.3233 160.792 56.7423 161.421C58.4283 163.934 59.4573 166.915 59.2033 169.847C59.0703 171.305 58.5683 172.709 57.7603 173.886C56.9563 175.061 55.8043 176.007 54.4633 176.424C53.1213 176.863 51.6603 176.661 50.4453 176.091C49.2193 175.53 48.1803 174.601 47.5493 173.451C47.2283 172.88 47.0113 172.259 46.9243 171.615C46.8533 170.977 46.9043 170.295 47.2623 169.729C47.4433 169.45 47.7183 169.231 48.0323 169.122C48.3483 169.012 48.6973 169.026 49.0013 169.126C49.6183 169.331 50.0833 169.774 50.4773 170.226C51.2853 171.144 51.7253 172.256 52.2523 173.258C52.7623 174.278 53.2623 175.276 53.7503 176.251C57.6403 184.055 60.6733 190.429 62.6883 194.87C63.6983 197.089 64.4493 198.828 64.9533 200.009C65.1973 200.597 65.3833 201.047 65.5123 201.358C65.6363 201.663 65.6933 201.822 65.6933 201.822C65.6933 201.822 65.6183 201.671 65.4853 201.37C65.3503 201.062 65.1553 200.615 64.9003 200.032C64.3793 198.859 63.6123 197.129 62.5863 194.917C60.5403 190.492 57.4803 184.134 53.5673 176.343C53.0763 175.37 52.5743 174.373 52.0613 173.355C51.5283 172.347 51.0893 171.251 50.3083 170.373C49.9293 169.938 49.4763 169.521 48.9323 169.344C48.3973 169.149 47.7603 169.362 47.4553 169.858C47.1433 170.348 47.0873 170.988 47.1573 171.589C47.2403 172.193 47.4493 172.794 47.7583 173.337C48.3643 174.437 49.3673 175.331 50.5483 175.869C51.7203 176.415 53.1153 176.603 54.3873 176.184C55.6643 175.784 56.7703 174.878 57.5463 173.741C58.3253 172.602 58.8123 171.238 58.9393 169.825C59.1833 166.974 58.1763 164.048 56.5143 161.577C56.0973 160.953 55.6383 160.363 55.0623 159.888C54.5023 159.427 53.7923 159.023 53.0863 159.161C52.3643 159.27 51.8983 159.976 51.7843 160.698C51.6453 161.433 51.8303 162.195 52.1533 162.888C52.4763 163.585 52.9253 164.229 53.3763 164.877C53.8253 165.525 54.2933 166.164 54.7913 166.782C55.7813 168.016 56.8953 169.192 58.2393 170.056C58.9093 170.484 59.6453 170.822 60.4263 170.978C61.2043 171.131 62.0223 171.126 62.7853 170.896C64.3253 170.431 65.5553 169.187 66.2703 167.73C67.0193 166.27 67.2033 164.592 67.0673 162.98C66.9313 161.361 66.4833 159.786 65.8823 158.296C65.2553 156.826 64.6113 155.31 63.5133 154.197C62.9673 153.646 62.2803 153.244 61.5263 153.138C60.7843 153.015 59.9833 153.241 59.5413 153.837C59.0923 154.426 59.0013 155.226 59.0743 155.97C59.1403 156.726 59.3903 157.454 59.7043 158.143C60.3373 159.52 61.3133 160.722 62.4943 161.622C63.6733 162.521 65.0763 163.121 66.5243 163.233C67.9683 163.354 69.4273 163.028 70.6623 162.34C71.8953 161.653 72.9213 160.607 73.5033 159.359C74.0853 158.13 74.2143 156.639 73.5843 155.467C73.2773 154.884 72.7953 154.399 72.2373 154.076C71.6783 153.763 71.0013 153.633 70.4173 153.862C69.8313 154.084 69.4043 154.608 69.1643 155.183C68.9223 155.766 68.8423 156.404 68.8933 157.028C68.9923 158.286 69.4933 159.457 69.9533 160.6C70.4243 161.743 70.8863 162.865 71.3393 163.965C72.2573 166.159 73.1653 168.254 74.0553 170.243C77.6063 178.204 80.8403 184.48 83.1273 188.785C84.2763 190.935 85.1883 192.594 85.8103 193.717C86.1183 194.274 86.3543 194.7 86.5173 194.995C86.6733 195.28 86.7483 195.432 86.7483 195.432Z" fill="white"/>
<path d="M58.6513 195.35C58.6523 195.36 58.4833 195.375 58.1623 195.395C57.8413 195.408 57.3673 195.456 56.7553 195.452C55.5323 195.481 53.7573 195.425 51.5843 195.146C49.4123 194.871 46.8483 194.322 44.1113 193.368C41.3743 192.419 38.4793 191.032 35.6913 189.179C32.9163 187.305 30.5323 185.154 28.6133 182.984C26.6893 180.814 25.2063 178.652 24.1263 176.748C23.0423 174.845 22.3153 173.224 21.8773 172.083C21.6413 171.519 21.5053 171.062 21.3953 170.76C21.2913 170.455 21.2423 170.294 21.2513 170.291C21.2603 170.288 21.3293 170.443 21.4503 170.74C21.5783 171.035 21.7303 171.484 21.9813 172.04C22.4503 173.165 23.2023 174.766 24.3033 176.645C25.4003 178.525 26.8913 180.662 28.8123 182.806C30.7293 184.952 33.1003 187.079 35.8533 188.939C38.6193 190.777 41.4883 192.16 44.2013 193.117C46.9153 194.078 49.4583 194.644 51.6143 194.944C53.7713 195.247 55.5373 195.334 56.7563 195.34C57.3663 195.36 57.8393 195.331 58.1613 195.337C58.4813 195.336 58.6503 195.34 58.6513 195.35Z" fill="#263238"/>
<path d="M19.7493 162.647C19.8273 162.634 20.0483 163.533 20.2423 164.656C20.4363 165.779 20.5293 166.7 20.4513 166.714C20.3733 166.728 20.1523 165.828 19.9583 164.705C19.7643 163.582 19.6703 162.661 19.7493 162.647Z" fill="#263238"/>
<path d="M92.7843 152.537C92.7743 152.538 92.7373 152.397 92.6743 152.126C92.6093 151.828 92.5233 151.434 92.4153 150.941C92.3603 150.681 92.3003 150.395 92.2353 150.084C92.1593 149.773 92.0533 149.441 91.9533 149.081C91.7383 148.366 91.5453 147.535 91.1953 146.661C91.0343 146.219 90.8653 145.756 90.6903 145.275C90.5113 144.795 90.2713 144.316 90.0523 143.809C89.6333 142.785 89.0513 141.756 88.4703 140.659C87.2243 138.512 85.6723 136.254 83.7833 134.096C81.8663 131.962 79.8093 130.151 77.8253 128.658C76.8053 127.95 75.8533 127.25 74.8863 126.711C74.4093 126.434 73.9623 126.138 73.5073 125.903C73.0503 125.672 72.6113 125.449 72.1913 125.236C71.3653 124.784 70.5633 124.494 69.8793 124.195C69.5343 124.053 69.2173 123.908 68.9173 123.796C68.6163 123.694 68.3403 123.6 68.0883 123.515C67.6113 123.349 67.2303 123.217 66.9423 123.116C66.6813 123.022 66.5453 122.968 66.5473 122.958C66.5503 122.948 66.6913 122.984 66.9583 123.06C67.2513 123.147 67.6383 123.263 68.1233 123.408C68.3783 123.486 68.6593 123.573 68.9633 123.666C69.2673 123.771 69.5883 123.909 69.9373 124.045C70.6313 124.331 71.4423 124.61 72.2793 125.052C72.7043 125.261 73.1483 125.479 73.6113 125.706C74.0723 125.938 74.5243 126.23 75.0073 126.505C75.9853 127.038 76.9493 127.736 77.9813 128.443C79.9883 129.935 82.0663 131.754 83.9983 133.904C85.9023 136.078 87.4593 138.358 88.7013 140.528C89.2803 141.637 89.8573 142.676 90.2703 143.711C90.4853 144.224 90.7213 144.707 90.8963 145.193C91.0663 145.679 91.2303 146.147 91.3873 146.594C91.7273 147.477 91.9073 148.316 92.1083 149.039C92.2013 149.403 92.3003 149.738 92.3683 150.052C92.4253 150.366 92.4773 150.654 92.5243 150.917C92.6103 151.415 92.6793 151.814 92.7313 152.115C92.7763 152.391 92.7943 152.536 92.7843 152.537Z" fill="#263238"/>
<g opacity="0.2">
<path d="M43.6633 132.666C42.3563 131.407 40.1693 131.035 37.8903 131.315C34.6303 131.716 31.7113 133.5 29.6683 136.071C23.6573 143.637 21.3993 150.57 22.5393 160.617C22.9253 164.02 24.6353 169.171 27.3923 171.463C28.7783 172.615 30.5563 173.246 32.3433 173.011C36.9913 172.4 38.5093 166.957 38.1093 162.569C37.7363 158.48 36.3993 154.262 37.7153 150.372C38.8003 147.167 41.4943 144.816 43.3623 141.996C45.2303 139.176 46.1003 135.012 43.6633 132.666Z" fill="white"/>
</g>
<g opacity="0.2">
<path d="M57.6843 124.822C55.3153 123.075 51.5083 123.59 49.9273 125.344C48.6583 126.837 48.0753 128.92 48.4943 130.834C48.9993 133.141 51.0173 135.058 53.3583 135.372C55.6993 135.686 58.1863 134.327 59.1223 132.158C60.0573 129.99 59.5853 126.224 57.6843 124.822Z" fill="white"/>
</g>
<path d="M76.5923 222.024C76.5923 222.024 78.2763 222.3 79.4953 222.961C80.1283 223.304 80.8903 223.315 81.5503 223.025L87.9913 220.198C88.7133 219.881 89.2383 219.23 89.3773 218.454C89.5403 217.545 90.0233 216.344 90.8273 215.775L76.5923 222.024Z" fill="#263238"/>
<path d="M61.7473 207.15C61.8043 207.279 67.7143 216.684 69.9753 220.279C70.9033 221.755 72.4943 222.732 74.2383 222.755C74.8743 222.764 75.5573 222.656 76.2473 222.353C79.0073 221.141 90.3343 216.169 90.3343 216.169C90.3343 216.169 94.0153 214.553 93.5683 211.266C93.0973 207.806 89.4533 194.988 89.4533 194.988L61.7473 207.15Z" fill="#E0E0E0"/>
<path d="M93.8733 209.524L69.3703 220.384C68.9853 220.555 68.5353 220.381 68.3643 219.996L68.3303 219.92C68.1593 219.535 68.3333 219.085 68.7183 218.914L93.2213 208.054C93.6063 207.883 94.0563 208.057 94.2273 208.442L94.2613 208.518C94.4323 208.903 94.2583 209.353 93.8733 209.524Z" fill="#E0E0E0"/>
<path d="M93.8733 209.524C93.8543 209.509 94.1003 209.454 94.2493 209.095C94.3173 208.919 94.3193 208.671 94.1763 208.427C94.0603 208.187 93.7463 207.98 93.3993 208.052C92.0593 208.62 90.0983 209.535 87.6833 210.609C82.8293 212.771 76.1503 215.746 68.7723 219.032C68.5783 219.117 68.4373 219.301 68.4033 219.508C68.3873 219.611 68.3943 219.717 68.4293 219.815C68.4693 219.919 68.5173 220.027 68.5823 220.1C68.7173 220.258 68.9323 220.34 69.1373 220.315C69.3233 220.289 69.5683 220.144 69.7883 220.057C70.6883 219.659 71.5753 219.266 72.4473 218.881C74.1903 218.111 75.8723 217.368 77.4753 216.661C80.6783 215.253 83.5653 213.984 85.9953 212.915C88.4123 211.863 90.3733 211.009 91.7483 210.41C92.4173 210.125 92.9423 209.901 93.3173 209.741C93.4873 209.672 93.6223 209.616 93.7283 209.573C93.8223 209.536 93.8713 209.519 93.8733 209.524C93.8753 209.528 93.8303 209.553 93.7403 209.597C93.6373 209.646 93.5053 209.71 93.3403 209.789C92.9693 209.96 92.4503 210.199 91.7903 210.503C90.4233 211.12 88.4733 211.999 86.0703 213.083C83.6463 214.166 80.7673 215.452 77.5723 216.88C75.9713 217.592 74.2913 218.34 72.5503 219.114C71.6793 219.501 70.7923 219.894 69.8933 220.294L69.5553 220.444C69.4513 220.491 69.3153 220.557 69.1683 220.573C68.8793 220.609 68.5773 220.494 68.3853 220.271C68.2863 220.154 68.2323 220.03 68.1833 219.901C68.1343 219.763 68.1243 219.611 68.1473 219.467C68.1933 219.176 68.3953 218.914 68.6673 218.796C76.0573 215.537 82.7473 212.587 87.6093 210.442C90.0443 209.387 91.9843 208.507 93.3813 207.954C93.7803 207.881 94.1263 208.125 94.2463 208.394C94.3893 208.652 94.3813 208.934 94.2993 209.116C94.1203 209.49 93.8593 209.524 93.8733 209.524Z" fill="#263238"/>
<path d="M93.0013 206.125L67.4603 217.445C67.0753 217.616 66.6253 217.442 66.4543 217.057L66.4203 216.981C66.2493 216.596 66.4233 216.146 66.8083 215.975L92.3493 204.655C92.7343 204.484 93.1843 204.658 93.3553 205.043L93.3893 205.119C93.5603 205.505 93.3863 205.955 93.0013 206.125Z" fill="#E0E0E0"/>
<path d="M93.0013 206.125C92.9803 206.11 93.2413 206.053 93.3853 205.675C93.4533 205.489 93.4363 205.234 93.2823 204.985C93.1453 204.743 92.7973 204.557 92.4473 204.672C91.0283 205.31 89.0033 206.221 86.5083 207.344C81.4663 209.589 74.5273 212.679 66.8633 216.093C66.6623 216.181 66.5163 216.376 66.4913 216.593C66.4763 216.7 66.4923 216.81 66.5333 216.91C66.5823 217.034 66.6273 217.117 66.7063 217.196C66.8583 217.349 67.0913 217.414 67.2993 217.362C67.4993 217.297 67.7593 217.165 67.9853 217.07C68.9203 216.656 69.8423 216.249 70.7473 215.848C72.5583 215.048 74.3053 214.277 75.9703 213.541C79.2983 212.077 82.2963 210.759 84.8203 209.649C87.3313 208.555 89.3683 207.668 90.7963 207.046C91.4913 206.749 92.0373 206.516 92.4263 206.35C92.6033 206.278 92.7433 206.22 92.8533 206.175C92.9493 206.139 92.9993 206.121 93.0013 206.125C93.0033 206.129 92.9563 206.155 92.8633 206.201C92.7563 206.252 92.6193 206.317 92.4473 206.4C92.0633 206.577 91.5243 206.824 90.8373 207.14C89.4183 207.78 87.3923 208.693 84.8953 209.819C82.3773 210.944 79.3873 212.279 76.0673 213.762C74.4043 214.502 72.6593 215.278 70.8503 216.082C69.9453 216.484 69.0243 216.893 68.0903 217.308C67.8443 217.41 67.6493 217.52 67.3603 217.615C67.0663 217.688 66.7393 217.597 66.5243 217.381C66.4153 217.279 66.3383 217.127 66.2933 217.009C66.2363 216.868 66.2133 216.712 66.2343 216.561C66.2683 216.256 66.4763 215.979 66.7583 215.856C74.4353 212.47 81.3843 209.405 86.4343 207.177C88.9583 206.074 90.9893 205.18 92.4173 204.577C92.8213 204.454 93.2063 204.676 93.3493 204.947C93.5043 205.211 93.5173 205.501 93.4343 205.694C93.2623 206.09 92.9863 206.125 93.0013 206.125Z" fill="#263238"/>
<path d="M91.9413 202.811L65.7383 214.424C65.3533 214.595 64.9033 214.421 64.7323 214.036L64.6983 213.96C64.5273 213.575 64.7013 213.125 65.0863 212.954L91.2893 201.341C91.6743 201.17 92.1243 201.344 92.2953 201.729L92.3293 201.805C92.5003 202.19 92.3263 202.64 91.9413 202.811Z" fill="#E0E0E0"/>
<path d="M91.9413 202.811C91.9193 202.796 92.1893 202.738 92.3293 202.348C92.3973 202.156 92.3683 201.895 92.2053 201.646C92.0563 201.404 91.6863 201.231 91.3363 201.377C89.8843 202.031 87.8093 202.965 85.2533 204.117C80.0923 206.415 72.9873 209.579 65.1403 213.073C64.9353 213.163 64.7863 213.366 64.7663 213.588C64.7543 213.699 64.7743 213.809 64.8193 213.912C64.8723 214.038 64.9203 214.119 65.0063 214.197C65.1693 214.347 65.4133 214.397 65.6213 214.33C65.8403 214.242 66.0963 214.122 66.3303 214.02C67.2873 213.596 68.2313 213.179 69.1583 212.769C71.0123 211.95 72.8013 211.16 74.5053 210.407C77.9123 208.908 80.9823 207.558 83.5663 206.422C86.1373 205.302 88.2233 204.392 89.6843 203.756C90.3963 203.452 90.9553 203.213 91.3533 203.043C91.5343 202.968 91.6783 202.909 91.7893 202.864C91.8883 202.825 91.9403 202.807 91.9413 202.811C91.9423 202.815 91.8953 202.841 91.7993 202.888C91.6903 202.94 91.5503 203.007 91.3733 203.091C90.9803 203.271 90.4283 203.525 89.7243 203.849C88.2723 204.503 86.1973 205.438 83.6403 206.591C81.0633 207.742 78.0013 209.109 74.6023 210.627C72.9003 211.384 71.1133 212.179 69.2613 213.002C68.3353 213.413 67.3923 213.832 66.4353 214.257C66.1893 214.364 65.9703 214.469 65.7003 214.577C65.4053 214.672 65.0633 214.601 64.8333 214.39C64.7173 214.293 64.6303 214.137 64.5823 214.017C64.5203 213.877 64.4923 213.716 64.5083 213.561C64.5353 213.248 64.7463 212.96 65.0353 212.834C72.8943 209.367 80.0103 206.228 85.1793 203.948C87.7513 202.828 89.8383 201.919 91.2993 201.282C91.7033 201.124 92.1123 201.331 92.2703 201.603C92.4363 201.868 92.4613 202.165 92.3793 202.364C92.2103 202.775 91.9243 202.81 91.9413 202.811Z" fill="#263238"/>
<path d="M91.0823 199.407L63.8163 211.491C63.4313 211.662 62.9813 211.488 62.8103 211.103L62.7763 211.027C62.6053 210.642 62.7793 210.192 63.1643 210.021L90.4293 197.937C90.8143 197.766 91.2643 197.94 91.4353 198.325L91.4693 198.401C91.6413 198.786 91.4673 199.237 91.0823 199.407Z" fill="#E0E0E0"/>
<path d="M91.0823 199.407C91.0583 199.391 91.3433 199.332 91.4773 198.922C91.5433 198.722 91.4953 198.448 91.3183 198.2C91.1443 197.96 90.7493 197.814 90.3953 198.007C88.8893 198.685 86.7363 199.655 84.0833 200.85C78.7303 203.233 71.3603 206.515 63.2193 210.139C63.0053 210.232 62.8563 210.448 62.8433 210.679C62.8303 210.9 62.9513 211.162 63.1223 211.296C63.3043 211.437 63.5603 211.466 63.7693 211.37C64.0193 211.259 64.2683 211.149 64.5163 211.039C65.5093 210.6 66.4883 210.167 67.4493 209.741C69.3723 208.891 71.2283 208.072 72.9963 207.291C76.5303 205.736 79.7153 204.335 82.3943 203.156C85.0623 201.993 87.2253 201.049 88.7393 200.389C89.4783 200.073 90.0583 199.825 90.4693 199.649C90.6573 199.571 90.8073 199.51 90.9223 199.463C91.0273 199.422 91.0803 199.403 91.0823 199.407C91.0843 199.411 91.0343 199.438 90.9353 199.487C90.8233 199.54 90.6773 199.61 90.4933 199.697C90.0873 199.883 89.5133 200.146 88.7823 200.482C87.2763 201.16 85.1243 202.13 82.4703 203.325C79.7963 204.519 76.6203 205.937 73.0943 207.511C71.3283 208.296 69.4753 209.121 67.5533 209.975C66.5923 210.402 65.6143 210.836 64.6213 211.276C64.3733 211.386 64.1243 211.497 63.8743 211.607C63.5843 211.74 63.2193 211.701 62.9643 211.502C62.8383 211.405 62.7343 211.265 62.6783 211.125C62.6143 210.995 62.5703 210.822 62.5833 210.663C62.6003 210.338 62.8123 210.032 63.1133 209.902C71.2663 206.305 78.6473 203.048 84.0083 200.683C86.6763 199.52 88.8403 198.576 90.3533 197.916C90.7463 197.711 91.1983 197.883 91.3793 198.155C91.5643 198.425 91.6053 198.727 91.5263 198.938C91.4563 199.152 91.3233 199.272 91.2323 199.334C91.1393 199.396 91.0823 199.407 91.0823 199.407Z" fill="#263238"/>
<path d="M54.3843 200.023C54.4993 200.284 57.7843 206.191 59.4723 209.222C60.0923 210.335 61.1863 211.101 62.4443 211.305L64.2893 211.604L91.5263 199.647L92.5403 198.108C93.2493 197.032 93.4213 195.688 93.0043 194.469L89.6173 184.556L54.3843 200.023Z" fill="#005C4B"/>
<g opacity="0.3">
<path d="M70.2553 219.92C73.1393 219.362 75.7763 218.264 78.6513 216.987C80.9723 215.956 83.2803 215.019 85.7813 213.859C87.6143 213.009 89.2753 212.169 91.0843 211.28C92.0003 210.83 92.9183 210.145 93.0233 209.875L70.2553 219.92Z" fill="black"/>
</g>
<g opacity="0.3">
<path d="M67.8873 217.166C70.9763 216.518 73.8173 215.331 76.9163 213.955C79.4183 212.844 81.9043 211.829 84.6023 210.583C86.5793 209.67 88.3733 208.771 90.3263 207.819C91.3153 207.337 92.3133 206.617 92.4333 206.34L67.8873 217.166Z" fill="black"/>
</g>
<g opacity="0.3">
<path d="M66.5063 214.021C69.5953 213.373 72.4363 212.186 75.5353 210.81C78.0373 209.699 80.5233 208.684 83.2213 207.438C85.1983 206.525 86.9923 205.626 88.9453 204.674C89.9343 204.192 90.9323 203.472 91.0523 203.195L66.5063 214.021Z" fill="black"/>
</g>
<g opacity="0.3">
<path d="M65.1253 210.875C68.2143 210.227 71.0553 209.039 74.1543 207.664C76.6563 206.553 79.1423 205.539 81.8403 204.292C83.8173 203.379 85.6113 202.48 87.5643 201.528C88.5533 201.046 89.5513 200.326 89.6713 200.049L65.1253 210.875Z" fill="black"/>
</g>
<path opacity="0.3" d="M54.3843 200.023C54.4993 200.284 57.7843 206.191 59.4723 209.222C60.0923 210.335 61.1863 211.101 62.4443 211.305L64.2893 211.604L91.5263 199.647L92.5403 198.108C93.2493 197.032 93.4213 195.688 93.0043 194.469L89.6173 184.556L54.3843 200.023Z" fill="black"/>
<path d="M92.9133 196.073C92.9423 196.139 85.6803 199.39 76.6953 203.335C67.7073 207.281 60.4003 210.425 60.3713 210.359C60.3423 210.293 67.6033 207.043 76.5913 203.097C85.5753 199.152 92.8843 196.007 92.9133 196.073Z" fill="#263238"/>
<path d="M89.3453 184.46C89.3803 184.532 81.5083 188.095 71.7663 192.417C62.0203 196.741 54.0943 200.187 54.0603 200.116C54.0253 200.044 61.8953 196.482 71.6413 192.158C81.3833 187.836 89.3103 184.388 89.3453 184.46Z" fill="#263238"/>
<path d="M409.513 117.579L397.02 116.121C391.986 121.233 385.523 125.061 378.045 126.899C356.539 132.184 334.821 119.035 329.536 97.5288C324.25 76.0228 337.4 54.3048 358.906 49.0198C380.411 43.7348 402.129 56.8838 407.415 78.3898C409.622 87.3698 408.605 96.3818 405.117 104.224L405.131 104.206L409.513 117.579Z" fill="#87CEEB"/>
<path d="M409.513 117.579C409.513 117.579 409.4 117.274 409.203 116.695C409.001 116.101 408.713 115.249 408.334 114.132C407.575 111.874 406.461 108.558 405.012 104.245L405.228 104.284L405.214 104.302C405.171 104.356 405.092 104.365 405.038 104.322C404.993 104.286 404.98 104.224 405.002 104.173C407.096 99.3819 408.932 92.6529 408.247 84.6869C408.078 82.7059 407.763 80.6589 407.25 78.5849C406.639 76.5389 406.08 74.3959 405.119 72.3259C403.333 68.1489 400.715 64.0109 397.199 60.3699C393.694 56.7289 389.3 53.5929 384.245 51.4199C379.2 49.2419 373.493 48.0389 367.612 48.1609C355.865 48.2949 343.472 54.3299 336.034 64.9329C332.272 70.3239 329.761 76.4979 329.023 82.7879C328.213 89.0619 328.927 95.3519 330.866 101.023C332.786 106.713 336.045 111.703 339.936 115.709C343.841 119.721 348.427 122.734 353.156 124.713C357.889 126.701 362.756 127.654 367.344 127.795C367.919 127.802 368.489 127.81 369.055 127.817C369.621 127.834 370.182 127.834 370.736 127.764C371.845 127.666 372.936 127.57 374.008 127.475C376.118 127.054 378.18 126.756 380.085 126.141C387.772 123.829 393.331 119.671 396.937 116.037C396.963 116.01 397.001 115.998 397.036 116.002C401.063 116.504 404.164 116.891 406.279 117.155C407.324 117.289 408.123 117.391 408.682 117.462C409.224 117.533 409.513 117.579 409.513 117.579C409.513 117.579 409.257 117.561 408.727 117.506C408.174 117.448 407.385 117.364 406.352 117.255C404.213 117.023 401.078 116.682 397.006 116.239L397.104 116.204C393.512 119.893 387.937 124.124 380.19 126.496C378.271 127.125 376.19 127.437 374.061 127.87C372.978 127.97 371.877 128.072 370.757 128.176C370.198 128.248 369.631 128.252 369.059 128.236C368.487 128.231 367.911 128.226 367.33 128.221C362.692 128.096 357.765 127.148 352.971 125.15C348.181 123.161 343.531 120.122 339.567 116.066C335.618 112.016 332.307 106.964 330.353 101.199C328.38 95.4549 327.649 89.0779 328.468 82.7139C329.214 76.3349 331.756 70.0719 335.572 64.6049C336.002 63.9079 336.535 63.2899 337.052 62.6629L338.602 60.7859L340.313 59.0699C340.876 58.4929 341.442 57.9219 342.081 57.4339C342.7 56.9239 343.317 56.4149 343.933 55.9069C344.535 55.3809 345.239 54.9949 345.885 54.5349C346.55 54.1029 347.186 53.6259 347.872 53.2359C348.568 52.8629 349.262 52.4899 349.953 52.1189C355.526 49.2259 361.64 47.7029 367.599 47.6179C373.561 47.5019 379.343 48.7299 384.448 50.9459C389.564 53.1579 394.005 56.3439 397.542 60.0379C401.09 63.7319 403.725 67.9269 405.515 72.1559C406.478 74.2509 407.036 76.4189 407.643 78.4879C408.153 80.5849 408.462 82.6539 408.623 84.6539C409.275 92.6999 407.379 99.4709 405.23 104.273L405.018 104.144L405.032 104.127C405.075 104.073 405.153 104.064 405.207 104.106C405.227 104.122 405.241 104.144 405.248 104.166C406.645 108.538 407.719 111.898 408.45 114.187C408.801 115.296 409.068 116.142 409.255 116.732C409.435 117.302 409.513 117.579 409.513 117.579Z" fill="#263238"/>
<path d="M350.005 88.888L354.803 83.581L364.984 91.752L380.105 74.387L385.051 79.203L364.753 101.532L350.005 88.888Z" fill="white"/>
<path d="M299.475 121.047C301.289 120.821 303.948 120.489 307.401 120.058C307.431 120.055 307.463 120.065 307.486 120.088C310.578 123.204 315.344 126.769 321.935 128.751C323.568 129.278 325.337 129.534 327.146 129.895C328.065 129.976 329 130.059 329.951 130.142C330.426 130.202 330.907 130.203 331.392 130.188C331.877 130.182 332.366 130.176 332.859 130.169C336.793 130.048 340.966 129.231 345.024 127.526C346.065 127.09 347.098 126.594 348.116 126.041C347.805 125.921 347.492 125.808 347.182 125.678C342.487 123.729 337.929 120.75 334.044 116.774C330.173 112.805 326.928 107.853 325.013 102.202C323.079 96.5719 322.363 90.3209 323.165 84.0839C323.896 77.8309 326.388 71.6929 330.128 66.3339C330.55 65.6509 331.072 65.0449 331.579 64.4299L333.098 62.5909L333.751 61.9359C333.376 61.9179 333.001 61.8929 332.628 61.8879C327.585 61.7829 322.693 62.8149 318.367 64.6819C314.033 66.5459 310.265 69.2349 307.26 72.3559C304.246 75.4779 302.001 79.0259 300.47 82.6069C299.646 84.3809 299.166 86.2189 298.643 87.9729C298.203 89.7519 297.932 91.5069 297.788 93.2049C297.201 100.036 298.775 105.805 300.571 109.913C300.59 109.956 300.579 110.008 300.541 110.039C299.309 113.705 298.361 116.528 297.714 118.452C297.39 119.41 297.142 120.14 296.969 120.649C296.8 121.145 296.703 121.407 296.703 121.407C296.703 121.407 296.951 121.368 297.416 121.308C297.894 121.249 298.579 121.162 299.475 121.047Z" fill="#87CEEB"/>
<path d="M299.475 121.047C299.475 121.047 299.243 121.097 298.78 121.166C298.297 121.236 297.609 121.337 296.711 121.467L296.616 121.481L296.646 121.389C297.42 119.05 298.704 115.168 300.414 110L300.454 109.941C300.434 109.932 300.461 110.005 300.432 109.935L300.363 109.773L300.223 109.445C300.132 109.224 300.041 109.001 299.949 108.775C299.764 108.324 299.597 107.855 299.425 107.378C299.088 106.421 298.788 105.409 298.519 104.351C297.989 102.234 297.613 99.916 297.516 97.441C297.412 94.968 297.575 92.34 298.077 89.641C298.31 88.283 298.733 86.934 299.143 85.57C299.543 84.193 300.119 82.825 300.745 81.476C303.25 76.053 307.479 70.836 313.253 67.137C318.983 63.425 326.243 61.265 333.761 61.683L334.33 61.715L333.929 62.118C333.726 62.322 333.501 62.547 333.276 62.773L333.292 62.755C328.705 67.923 325.197 74.471 323.798 81.675C321.926 91.55 323.914 101.715 328.731 109.539C333.517 117.426 340.765 123.001 348.193 125.834L348.679 126.019L348.219 126.238C346.4 127.103 344.649 128.015 342.812 128.59C340.992 129.198 339.169 129.64 337.374 129.934C333.794 130.529 330.288 130.455 327.127 130.076L327.113 130.074L327.107 130.073C325.954 129.84 324.818 129.649 323.717 129.403C322.61 129.169 321.565 128.812 320.557 128.477C318.546 127.767 316.712 126.929 315.075 126.01C311.798 124.168 309.302 122.072 307.455 120.201C307.44 120.105 307.23 120.2 307.08 120.196C306.922 120.215 306.766 120.233 306.612 120.251C306.305 120.287 306.007 120.323 305.718 120.357C305.141 120.425 304.602 120.488 304.1 120.547C303.103 120.662 302.257 120.759 301.565 120.839C300.895 120.911 300.377 120.968 300.006 121.008C299.657 121.042 299.475 121.047 299.475 121.047C299.475 121.047 299.652 121.007 300.001 120.955C300.37 120.903 300.887 120.83 301.554 120.736C302.244 120.643 303.089 120.529 304.084 120.396C304.585 120.33 305.124 120.259 305.7 120.182C305.989 120.144 306.286 120.105 306.593 120.065C306.747 120.045 306.902 120.024 307.06 120.004L307.299 119.973C307.352 119.971 307.35 119.956 307.449 119.963C307.487 119.97 307.526 119.989 307.554 120.018L307.598 120.061C309.455 121.898 311.952 123.957 315.215 125.759C318.478 127.566 322.494 129.046 327.179 129.717L327.16 129.714C328.765 129.85 330.398 130.034 332.089 129.986C333.792 129.975 335.533 129.822 337.309 129.532C339.082 129.235 340.881 128.792 342.676 128.185C344.488 127.612 346.214 126.704 348.007 125.846L348.033 126.25C340.512 123.407 333.161 117.781 328.304 109.8C323.41 101.874 321.391 91.584 323.287 81.578C324.71 74.262 328.263 67.649 332.899 62.431L332.912 62.416L332.915 62.413C333.14 62.187 333.365 61.962 333.568 61.758L333.736 62.192C326.326 61.773 319.17 63.889 313.51 67.537C307.807 71.173 303.621 76.306 301.127 81.655C300.497 83.002 299.933 84.324 299.53 85.691C299.113 87.059 298.692 88.379 298.458 89.715C297.95 92.381 297.775 94.982 297.865 97.429C297.947 99.879 298.306 102.177 298.817 104.279C299.076 105.329 299.367 106.334 299.694 107.286C299.861 107.761 300.024 108.227 300.203 108.676C300.293 108.901 300.382 109.123 300.47 109.343L300.606 109.669L300.674 109.831C300.707 109.859 300.739 110.076 300.621 110.144L300.661 110.085C298.894 115.262 297.579 119.144 296.753 121.431L296.689 121.353C297.593 121.247 298.283 121.165 298.769 121.108C299.238 121.057 299.475 121.047 299.475 121.047Z" fill="#263238"/>
<path d="M700.513 132.029H688.071C685.613 132.029 683.621 130.037 683.621 127.579V59.565C683.621 57.107 685.613 55.115 688.071 55.115H700.513C702.971 55.115 704.963 57.107 704.963 59.565V127.579C704.963 130.036 702.971 132.029 700.513 132.029Z" fill="#005C4B"/>
<path d="M633.498 135.294H621.363C618.821 135.294 616.76 133.233 616.76 130.691V104.981C616.76 102.439 618.821 100.378 621.363 100.378H633.498C636.04 100.378 638.101 102.439 638.101 104.981V130.691C638.102 133.233 636.041 135.294 633.498 135.294Z" fill="#005C4B"/>
<path d="M666.162 135.294H654.658C651.942 135.294 649.739 133.092 649.739 130.375V86.3089C649.739 83.5929 651.941 81.3899 654.658 81.3899H666.162C668.878 81.3899 671.081 83.5919 671.081 86.3089V130.375C671.081 133.092 668.878 135.294 666.162 135.294Z" fill="#005C4B"/>
<path d="M697.072 29.699C697.09 29.715 696.914 29.947 696.56 30.377C696.151 30.86 695.627 31.478 694.976 32.247C693.511 33.927 691.478 36.257 688.953 39.151C683.706 45.066 676.427 53.27 668.023 62.744L667.79 63.007L667.494 62.814C663.381 60.127 658.963 57.241 654.399 54.26L654.956 54.179C654.799 54.365 654.628 54.566 654.457 54.768C643.668 67.424 633.904 78.878 626.762 87.256L626.579 87.471L626.356 87.305C622.015 84.081 618.476 81.454 615.943 79.572C614.777 78.684 613.844 77.973 613.137 77.435C612.501 76.939 612.176 76.667 612.193 76.643C612.21 76.619 612.57 76.845 613.238 77.296C613.968 77.802 614.933 78.469 616.138 79.304C618.71 81.132 622.303 83.685 626.71 86.818L626.304 86.867C633.396 78.448 643.094 66.937 653.809 54.219C653.98 54.017 654.151 53.816 654.308 53.63L654.551 53.343L654.865 53.549C659.423 56.54 663.835 59.435 667.943 62.13L667.414 62.199C675.908 52.806 683.264 44.672 688.568 38.807C691.167 35.981 693.26 33.704 694.769 32.063C695.461 31.332 696.019 30.743 696.454 30.283C696.843 29.883 697.054 29.683 697.072 29.699Z" fill="#263238"/>
<path d="M697.75 45.937C697.634 45.937 697.53 44.066 697.453 41.03C697.376 37.993 697.328 33.791 697.325 29.127L697.819 29.546C697.685 29.568 697.54 29.592 697.395 29.616C692.696 30.391 688.436 31.046 685.344 31.479C682.253 31.911 680.332 32.121 680.313 32.005C680.294 31.889 682.18 31.47 685.246 30.886C688.312 30.302 692.557 29.553 697.256 28.778C697.401 28.754 697.546 28.73 697.68 28.708L698.175 28.626V29.127C698.172 33.791 698.124 37.994 698.047 41.03C697.97 44.066 697.865 45.937 697.75 45.937Z" fill="#263238"/>
</svg>
