<svg width="161" height="106" viewBox="0 0 161 106" fill="none" xmlns="http://www.w3.org/2000/svg">
<path d="M25.9472 54.6042L7.70664 54.6042L7.70664 39.1949L25.9472 39.2536L25.9472 54.6003V54.6042ZM46.4649 34.2393L46.4943 34.2412C46.2691 31.8153 46.4453 28.3301 46.4473 24.7137C46.4473 22.1174 48.9202 19.0805 51.6242 18.8789C56.2803 18.8867 59.4464 20.3767 62.5811 23.5115C65.7158 26.6462 67.4212 30.0355 67.433 34.6915C67.2313 37.3955 63.938 39.702 61.8958 39.7157C57.8839 39.7373 54.4457 40.0388 52.0217 39.8117L52.0687 54.6101L54.7668 54.6101C60.1434 54.6101 64.9581 52.3761 68.457 48.9672C71.9128 45.5975 73.7886 40.8318 73.5614 35.5217C73.4283 32.4007 72.6745 25.7729 66.499 19.5975C60.3353 13.4651 53.6155 12.5957 50.5003 12.4606C45.1903 12.2335 40.4265 14.1073 37.0549 17.5651C33.644 21.062 31.4119 25.8747 31.4119 31.2553L31.4119 33.9534L31.4863 78.3879L46.6078 78.6052L46.4669 34.2451L46.4649 34.2393Z" fill="white"/>
<path d="M56.7599 71.312V73.296C56.7599 73.936 57.2079 74.256 57.6879 74.256C58.7439 74.256 58.8719 73.552 58.8719 71.92V68.752C57.8799 69.456 56.7599 69.872 56.7599 71.312ZM58.8719 78V75.856H58.8079C58.1999 77.168 57.2719 78.224 55.2559 78.224C53.0479 78.224 51.7039 76.88 51.7039 74.48V71.76C51.7039 66.96 58.8719 67.536 58.8719 64.144C58.8719 63.408 58.6479 62.8 57.8159 62.8C56.9839 62.8 56.7599 63.408 56.7599 64.144V66.16H51.7039V64.464C51.7039 60.784 54.7759 59.472 57.8159 59.472C60.8559 59.472 63.9279 60.784 63.9279 64.464V78H58.8719ZM73.5849 59.696V62.096H73.6809C74.3529 60.496 75.4729 59.472 77.3289 59.472C79.8889 59.472 80.7529 61.168 80.7529 63.056V69.584H75.6969V65.136C75.6969 64.4 75.4729 63.632 74.6409 63.632C73.8089 63.632 73.5849 64.4 73.5849 65.136V78H68.5289V59.696H73.5849ZM90.2819 59.696V62.128H90.3459C90.8579 60.432 92.0099 59.472 93.8659 59.472C95.6899 59.472 96.8099 60.368 97.1619 62.128H97.2259C97.5139 60.496 98.9219 59.472 100.714 59.472C103.242 59.472 104.042 61.104 104.042 63.344V78H99.1779V65.296C99.1779 64.496 99.1139 63.632 98.1539 63.632C97.1939 63.632 97.1619 64.496 97.1619 65.296V78H92.2979V65.296C92.2979 64.496 92.2339 63.632 91.2739 63.632C90.3139 63.632 90.2819 64.496 90.2819 65.296V78H85.4179V59.696H90.2819ZM113.766 71.312V73.296C113.766 73.936 114.214 74.256 114.694 74.256C115.75 74.256 115.878 73.552 115.878 71.92V68.752C114.886 69.456 113.766 69.872 113.766 71.312ZM115.878 78V75.856H115.814C115.206 77.168 114.278 78.224 112.262 78.224C110.054 78.224 108.71 76.88 108.71 74.48V71.76C108.71 66.96 115.878 67.536 115.878 64.144C115.878 63.408 115.654 62.8 114.822 62.8C113.99 62.8 113.766 63.408 113.766 64.144V66.16H108.71V64.464C108.71 60.784 111.782 59.472 114.822 59.472C117.862 59.472 120.934 60.784 120.934 64.464V78H115.878Z" fill="white"/>
<path d="M46.1441 90.376H40.8321V87.176C40.8321 86.056 40.4801 85.416 39.4241 85.416C38.2721 85.416 38.0161 86.056 38.0161 87.176C38.0161 91.016 46.1441 92.136 46.1441 99.176C46.1441 103.464 43.8401 105.448 39.3921 105.448C36.0001 105.448 32.7041 104.296 32.7041 100.36V96.136H38.0161V100.072C38.0161 101.416 38.4321 101.8 39.4241 101.8C40.2881 101.8 40.8321 101.416 40.8321 100.072C40.8321 94.92 32.7041 94.824 32.7041 87.464C32.7041 83.336 35.4241 81.768 39.5201 81.768C43.1041 81.768 46.1441 82.984 46.1441 86.792V90.376ZM55.8038 91.08V100.616C55.8038 101.288 56.0598 101.896 56.8598 101.896C57.6598 101.896 57.9158 101.288 57.9158 100.616V91.08C57.9158 90.408 57.6598 89.8 56.8598 89.8C56.0598 89.8 55.8038 90.408 55.8038 91.08ZM62.9718 91.624V100.36C62.9718 103.752 60.0918 105.224 56.8598 105.224C53.6278 105.224 50.7478 103.752 50.7478 100.36V91.624C50.7478 88.328 52.9238 86.472 56.8598 86.472C60.7958 86.472 62.9718 88.328 62.9718 91.624ZM72.6608 105H67.6048V82.216H72.6608V105ZM82.3921 105H77.3361V86.696H82.3921V105ZM82.3921 85.448H77.3361V82.216H82.3921V85.448ZM92.0913 91.88V99.816C92.0913 100.616 92.5393 101.064 93.1473 101.064C93.7553 101.064 94.2033 100.616 94.2033 99.816V91.88C94.2033 91.08 93.7553 90.632 93.1473 90.632C92.5393 90.632 92.0913 91.08 92.0913 91.88ZM94.2033 105V102.696H94.1393C93.8833 104.52 92.5073 105.224 90.6513 105.224C87.8673 105.224 87.0353 102.856 87.0353 100.648V90.536C87.0353 88.2 87.9953 86.472 90.5553 86.472C92.4113 86.472 93.6913 87.528 94.1393 89.192H94.2033V82.216H99.2593V105H94.2033ZM108.916 98.312V100.296C108.916 100.936 109.364 101.256 109.844 101.256C110.9 101.256 111.028 100.552 111.028 98.92V95.752C110.036 96.456 108.916 96.872 108.916 98.312ZM111.028 105V102.856H110.964C110.356 104.168 109.428 105.224 107.412 105.224C105.204 105.224 103.86 103.88 103.86 101.48V98.76C103.86 93.96 111.028 94.536 111.028 91.144C111.028 90.408 110.804 89.8 109.972 89.8C109.14 89.8 108.916 90.408 108.916 91.144V93.16H103.86V91.464C103.86 87.784 106.932 86.472 109.972 86.472C113.012 86.472 116.084 87.784 116.084 91.464V105H111.028ZM125.773 105H120.717V86.696H125.773V105ZM125.773 85.448H120.717V82.216H125.773V85.448ZM135.473 86.696V89.096H135.569C136.241 87.496 137.361 86.472 139.217 86.472C141.777 86.472 142.641 88.168 142.641 90.056V96.584H137.585V92.136C137.585 91.4 137.361 90.632 136.529 90.632C135.697 90.632 135.473 91.4 135.473 92.136V105H130.417V86.696H135.473ZM159.466 96.424H152.298V100.136C152.298 101.224 152.682 101.896 153.354 101.896C154.154 101.896 154.41 101.224 154.41 100.136V97.768H159.466V100.456C159.466 103.912 156.906 105.224 153.354 105.224C150.122 105.224 147.242 103.752 147.242 100.36V91.624C147.242 88.328 149.418 86.472 153.354 86.472C156.586 86.472 159.466 87.688 159.466 91.624V96.424ZM152.298 93.384H154.41V90.888C154.41 90.184 154.058 89.8 153.354 89.8C152.65 89.8 152.298 90.184 152.298 90.888V93.384Z" fill="white"/>
</svg>
