<svg width="559" height="421" viewBox="0 0 559 421" fill="none" xmlns="http://www.w3.org/2000/svg">
<path d="M91.5896 420H453.002C453.002 420 675.636 240.902 466.263 61.2414C256.889 -118.42 226.043 151.752 185.114 178.696C144.185 205.64 55.3414 161.107 11.6466 254.215C-38.9287 361.984 91.5896 420 91.5896 420Z" fill="#87CEEB"/>
<path d="M35.3661 256.531C43.2482 251.802 59.9113 265.25 66.0478 283.175C69.8689 294.336 69.9238 310.142 75.0913 315.956C80.2589 321.77 110.002 354.771 89.5164 372.474C80.0427 380.662 61.7417 361.924 56.7892 338.24C53.3951 322.006 51.1366 310.271 45.7013 304.652C36.1189 294.748 20.8324 265.25 35.3661 256.531Z" fill="#B9E8DB"/>
<path d="M41.6877 266.542C46.3304 275.053 50.7484 283.685 55.0867 292.355C59.4165 301.03 63.6033 309.776 67.6954 318.567C71.7004 327.398 75.7054 336.233 79.3717 345.213C83.0411 354.188 86.5579 363.237 89.5143 372.473L86.9278 365.68C86.0685 363.416 85.121 361.184 84.223 358.935C83.3412 356.68 82.3958 354.45 81.457 352.218C80.5149 349.987 79.5964 347.746 78.6102 345.534C74.7913 336.633 70.7992 327.804 66.7211 319.018C62.7139 310.197 58.5164 301.464 54.3479 292.716C52.2712 288.339 50.159 283.978 48.0371 279.622L41.6877 266.542Z" fill="#6DA794"/>
<path d="M40.0734 280.631C43.1976 283.107 46.0927 285.816 48.933 288.581C51.7496 291.37 54.5103 294.217 57.0398 297.298C53.9145 294.823 51.0183 292.115 48.1802 289.348C45.3646 286.557 42.605 283.711 40.0734 280.631Z" fill="#6DA794"/>
<path d="M63.0032 285.274C63.7173 289.714 64.1077 294.176 64.4174 298.642C64.6949 303.111 64.8906 307.585 64.7594 312.08C64.0421 307.641 63.6528 303.178 63.3452 298.712C63.0699 294.244 62.8742 289.77 63.0032 285.274Z" fill="#6DA794"/>
<path d="M60.42 323.707C63.4538 326.167 66.2554 328.856 69.001 331.602C71.723 334.37 74.388 337.196 76.8185 340.254C73.7836 337.795 70.9809 335.106 68.2375 332.359C65.5166 329.588 62.8526 326.762 60.42 323.707Z" fill="#6DA794"/>
<path d="M83.9961 335.98C84.4188 339.58 84.5166 343.182 84.5338 346.783C84.5188 350.383 84.422 353.985 83.9961 357.586C83.5702 353.985 83.4734 350.383 83.4584 346.783C83.4767 343.181 83.5734 339.58 83.9961 335.98Z" fill="#6DA794"/>
<path d="M74.6074 217.668C87.2558 212.189 102.782 244.581 102.782 274.94C102.782 294.767 100.208 300.382 102.782 308.761C105.357 317.14 113.538 371.398 95.6669 372.474C77.7961 373.551 76.9357 319.2 77.3659 294.917C77.7961 270.634 50.7484 228.002 74.6074 217.668Z" fill="#B9E8DB"/>
<path d="M76.8185 229.725C80.6213 241.174 83.7187 252.859 86.2051 264.677C88.5862 276.497 90.3639 288.557 90.009 300.686C89.6993 312.734 89.624 324.792 90.2768 336.818C90.5983 342.829 91.1328 348.832 91.9975 354.79C92.8278 360.753 94.0323 366.667 95.6669 372.473C91.9534 360.975 90.2897 348.903 89.4498 336.868C88.6238 324.811 88.7077 312.723 88.9335 300.661C89.0895 294.645 88.8604 288.654 88.1635 282.672C87.4784 276.696 86.4912 270.758 85.3964 264.836C84.2531 258.923 82.9443 253.041 81.501 247.19C80.0825 241.334 78.5156 235.512 76.8185 229.725Z" fill="#6DA794"/>
<path d="M72.3693 248.133C75.1085 251.457 77.5767 254.961 79.9793 258.51C82.3539 262.078 84.6618 265.69 86.6966 269.487C83.9552 266.164 81.4871 262.66 79.0866 259.109C76.7131 255.541 74.4063 251.928 72.3693 248.133Z" fill="#6DA794"/>
<path d="M95.668 255.576C95.3658 258.624 94.9464 261.653 94.5108 264.678C94.086 267.706 93.5795 270.719 93.0719 273.731C92.5384 276.739 92.004 279.749 91.3866 282.743L90.4574 287.233C90.109 288.723 89.7971 290.219 89.4164 291.703C89.5573 290.177 89.7659 288.663 89.938 287.142L90.5715 282.601C90.9963 279.573 91.5039 276.56 92.0126 273.547C92.5471 270.539 93.0816 267.53 93.7 264.537C94.3044 261.541 94.9281 258.548 95.668 255.576Z" fill="#6DA794"/>
<path d="M80.7665 300.232C82.6013 304.219 84.1284 308.315 85.5802 312.436C87.0009 316.568 88.3453 320.727 89.3788 324.993C87.5419 321.006 86.0147 316.911 84.565 312.789C83.1454 308.657 81.8022 304.498 80.7665 300.232Z" fill="#6DA794"/>
<path d="M99.4988 327.583C98.4632 331.303 97.1253 334.901 95.7143 338.47C94.2721 342.026 92.7546 345.553 90.9317 348.956C91.9642 345.235 93.3031 341.638 94.7162 338.069C96.1606 334.513 97.6781 330.988 99.4988 327.583Z" fill="#6DA794"/>
<path d="M147.961 247.925C141.496 240.707 126.958 249.041 122.237 258.324C117.515 267.608 118.783 273.518 113.587 281.258C108.392 288.997 101.071 293.209 96.8715 308.659C92.6718 324.109 97.1887 331.575 95.4701 339.194C93.7516 346.814 90.7725 368.399 103.253 371.871C115.734 375.343 122.218 354.221 121.662 341.775C121.298 333.632 122.757 320.132 126.436 316.775C143.325 301.363 160.689 262.135 147.961 247.925Z" fill="#B9E8DB"/>
<path d="M103.253 371.871C102.565 361.595 102.569 351.269 103.222 340.974C103.559 335.827 104.138 330.692 104.99 325.593C105.888 320.509 107.008 315.422 108.957 310.586C110.938 305.76 113.574 301.314 116.149 296.85C118.756 292.403 121.438 288.009 124.138 283.627C126.828 279.24 129.496 274.84 132.047 270.376C133.327 268.145 134.572 265.896 135.722 263.597C136.857 261.295 137.96 258.96 138.645 256.476C138.066 258.989 137.045 261.379 135.968 263.716C134.882 266.055 133.702 268.348 132.487 270.62C130.036 275.154 127.428 279.598 124.821 284.037L116.982 297.335C114.444 301.795 111.84 306.26 109.939 310.98C108.068 315.716 106.875 320.723 105.967 325.763C105.072 330.812 104.514 335.921 104.072 341.038C103.644 346.157 103.387 351.294 103.275 356.436C103.13 361.578 103.132 366.724 103.253 371.871Z" fill="#6DA794"/>
<path d="M142.521 274.54C139.611 276.64 136.542 278.455 133.435 280.2C130.312 281.917 127.149 283.562 123.827 284.92C126.736 282.818 129.805 281.004 132.913 279.26C136.036 277.545 139.199 275.901 142.521 274.54Z" fill="#6DA794"/>
<path d="M119.818 274.54C119.621 276.797 119.307 279.032 118.975 281.264C118.656 283.499 118.254 285.716 117.85 287.935C117.422 290.149 116.992 292.363 116.481 294.56L115.71 297.856C115.415 298.948 115.155 300.046 114.827 301.132C114.915 300.002 115.071 298.883 115.192 297.759L115.668 294.407C115.989 292.173 116.391 289.955 116.794 287.736C117.223 285.523 117.654 283.309 118.166 281.111C118.667 278.912 119.185 276.715 119.818 274.54Z" fill="#6DA794"/>
<path d="M123.11 308.721C120.557 311.882 117.774 314.813 114.934 317.687C112.071 320.538 109.15 323.332 105.997 325.894C108.548 322.731 111.331 319.802 114.173 316.928C117.037 314.078 119.958 311.285 123.11 308.721Z" fill="#6DA794"/>
<path d="M98.5976 334.942C99.7838 337.907 100.654 340.951 101.446 344.015C102.208 347.086 102.89 350.178 103.253 353.351C102.065 350.387 101.195 347.342 100.404 344.278C99.6461 341.206 98.9643 338.114 98.5976 334.942Z" fill="#6DA794"/>
<path d="M119.522 370.967L108.541 419.683H76.8906L65.9102 370.967H119.522Z" fill="#6DA794"/>
<path d="M123.72 363.108H61.7116V379.256H123.72V363.108Z" fill="#005C4B"/>
<path d="M491.839 120.411H274.766V420.039H491.839V120.411Z" fill="#6DA794"/>
<path d="M558.852 120.411H491.839V420.039H558.852V120.411Z" fill="#005C4B"/>
<path d="M477.2 134.629H289.406V215.278H477.2V134.629Z" fill="#005C4B"/>
<path d="M477.2 229.801H289.406V310.451H477.2V229.801Z" fill="#005C4B"/>
<path d="M477.2 324.974H289.406V405.623H477.2V324.974Z" fill="#005C4B"/>
<path d="M428.101 235.824H408.956V310.452H428.101V235.824Z" fill="white"/>
<path d="M428.101 260.453H408.956V275.509H428.101V260.453Z" fill="#6DA794"/>
<path d="M428.101 281.798H408.956V290.55H428.101V281.798Z" fill="#6DA794"/>
<path d="M449.837 235.824H430.692V310.452H449.837V235.824Z" fill="white"/>
<path d="M449.837 260.453H430.692V275.509H449.837V260.453Z" fill="#6DA794"/>
<path d="M449.837 281.798H430.692V290.55H449.837V281.798Z" fill="#6DA794"/>
<path d="M471.572 235.824H452.427V310.452H471.572V235.824Z" fill="white"/>
<path d="M471.572 260.453H452.427V275.509H471.572V260.453Z" fill="#6DA794"/>
<path d="M471.572 281.798H452.427V290.55H471.572V281.798Z" fill="#6DA794"/>
<path d="M442.914 120.411H482.343V80.3179H442.914V120.411Z" fill="white"/>
<path d="M447.752 95.0579H482.343V85.3993H447.752V95.0579Z" fill="#6DA794"/>
<path d="M447.752 100.46H479.278V98.6869H447.752V100.46Z" fill="#6DA794"/>
<path d="M447.752 104.411H479.278V102.637H447.752V104.411Z" fill="#6DA794"/>
<path d="M447.752 108.361H479.278V106.588H447.752V108.361Z" fill="#6DA794"/>
<path d="M398.814 120.411H438.243V80.3179H398.814V120.411Z" fill="white"/>
<path d="M403.651 95.0579H438.242V85.3993H403.651V95.0579Z" fill="#6DA794"/>
<path d="M403.652 100.46H435.178V98.6869H403.652V100.46Z" fill="#6DA794"/>
<path d="M403.652 104.411H435.178V102.637H403.652V104.411Z" fill="#6DA794"/>
<path d="M403.652 108.361H435.178V106.588H403.652V108.361Z" fill="#6DA794"/>
<path d="M354.714 120.411H394.143V80.3179H354.714V120.411Z" fill="white"/>
<path d="M359.551 95.0579H394.142V85.3993H359.551V95.0579Z" fill="#6DA794"/>
<path d="M359.552 100.46H391.078V98.6869H359.552V100.46Z" fill="#6DA794"/>
<path d="M359.552 104.411H391.078V102.637H359.552V104.411Z" fill="#6DA794"/>
<path d="M359.552 108.361H391.078V106.588H359.552V108.361Z" fill="#6DA794"/>
<path d="M472.276 186.569H455.03V215.278H472.276V186.569Z" fill="white"/>
<path d="M474.643 181.685H452.665V186.569H474.643V181.685Z" fill="white"/>
<path d="M470.063 192.888H457.243V210.592H470.063V192.888Z" fill="#6DA794"/>
<path d="M472.276 151.852H455.03V180.561H472.276V151.852Z" fill="white"/>
<path d="M474.643 146.968H452.665V151.852H474.643V146.968Z" fill="white"/>
<path d="M470.063 158.171H457.243V175.876H470.063V158.171Z" fill="#6DA794"/>
<path d="M448.887 186.569H431.641V215.278H448.887V186.569Z" fill="white"/>
<path d="M451.254 181.685H429.276V186.569H451.254V181.685Z" fill="white"/>
<path d="M446.674 192.888H433.854V210.592H446.674V192.888Z" fill="#6DA794"/>
<path d="M448.887 151.852H431.641V180.561H448.887V151.852Z" fill="white"/>
<path d="M451.254 146.968H429.276V151.852H451.254V146.968Z" fill="white"/>
<path d="M446.674 158.171H433.854V175.876H446.674V158.171Z" fill="#6DA794"/>
<path d="M425.499 186.569H408.253V215.278H425.499V186.569Z" fill="white"/>
<path d="M427.865 181.685H405.887V186.569H427.865V181.685Z" fill="white"/>
<path d="M423.285 192.888H410.465V210.592H423.285V192.888Z" fill="#6DA794"/>
<path d="M425.499 151.852H408.253V180.561H425.499V151.852Z" fill="white"/>
<path d="M427.865 146.968H405.887V151.852H427.865V146.968Z" fill="white"/>
<path d="M423.285 158.171H410.465V175.876H423.285V158.171Z" fill="#6DA794"/>
<path d="M402.11 186.569H384.864V215.278H402.11V186.569Z" fill="white"/>
<path d="M404.476 181.685H382.498V186.569H404.476V181.685Z" fill="white"/>
<path d="M399.897 192.888H387.077V210.592H399.897V192.888Z" fill="#6DA794"/>
<path d="M402.11 151.852H384.864V180.561H402.11V151.852Z" fill="white"/>
<path d="M404.476 146.968H382.498V151.852H404.476V146.968Z" fill="white"/>
<path d="M399.897 158.171H387.077V175.876H399.897V158.171Z" fill="#6DA794"/>
<path d="M312.611 310.451H292.717V289.187C292.717 286.034 295.273 283.478 298.426 283.478H306.903C310.055 283.478 312.611 286.034 312.611 289.187V310.451Z" fill="white"/>
<path d="M308.43 280.808H296.899V283.558H308.43V280.808Z" fill="white"/>
<path d="M311.366 277.871H293.963V280.808H311.366V277.871Z" fill="white"/>
<path d="M309.422 290.013H292.717V304.573H309.422V290.013Z" fill="#6DA794"/>
<path d="M334.215 310.451H314.321V289.187C314.321 286.034 316.876 283.478 320.03 283.478H328.506C331.659 283.478 334.215 286.034 334.215 289.187V310.451Z" fill="white"/>
<path d="M330.034 280.808H318.503V283.558H330.034V280.808Z" fill="white"/>
<path d="M332.97 277.871H315.567V280.808H332.97V277.871Z" fill="white"/>
<path d="M331.027 290.013H314.322V304.573H331.027V290.013Z" fill="#6DA794"/>
<path d="M355.82 310.451H335.926V289.187C335.926 286.034 338.481 283.478 341.635 283.478H350.111C353.265 283.478 355.82 286.034 355.82 289.187V310.451Z" fill="white"/>
<path d="M351.639 280.808H340.107V283.558H351.639V280.808Z" fill="white"/>
<path d="M354.574 277.871H337.171V280.808H354.574V277.871Z" fill="white"/>
<path d="M352.631 290.013H335.926V304.573H352.631V290.013Z" fill="#6DA794"/>
<path d="M377.424 310.451H357.53V289.187C357.53 286.034 360.085 283.478 363.238 283.478H371.715C374.868 283.478 377.424 286.034 377.424 289.187V310.451Z" fill="white"/>
<path d="M373.242 280.808H361.711V283.558H373.242V280.808Z" fill="white"/>
<path d="M376.178 277.871H358.775V280.808H376.178V277.871Z" fill="white"/>
<path d="M374.236 290.013H357.531V304.573H374.236V290.013Z" fill="#6DA794"/>
<path d="M399.028 310.451H379.135V289.187C379.135 286.034 381.69 283.478 384.843 283.478H393.32C396.473 283.478 399.028 286.034 399.028 289.187V310.451Z" fill="white"/>
<path d="M394.847 280.808H383.316V283.558H394.847V280.808Z" fill="white"/>
<path d="M397.783 277.871H380.38V280.808H397.783V277.871Z" fill="white"/>
<path d="M395.84 290.013H379.135V304.573H395.84V290.013Z" fill="#6DA794"/>
<path d="M312.611 276.744H292.717V255.479C292.717 252.327 295.273 249.77 298.426 249.77H306.903C310.055 249.77 312.611 252.325 312.611 255.479V276.744Z" fill="white"/>
<path d="M308.43 247.1H296.899V249.85H308.43V247.1Z" fill="white"/>
<path d="M311.366 244.163H293.963V247.1H311.366V244.163Z" fill="white"/>
<path d="M309.422 256.305H292.717V270.865H309.422V256.305Z" fill="#6DA794"/>
<path d="M334.215 276.744H314.321V255.479C314.321 252.327 316.876 249.77 320.03 249.77H328.506C331.659 249.77 334.215 252.325 334.215 255.479V276.744Z" fill="white"/>
<path d="M330.034 247.1H318.503V249.85H330.034V247.1Z" fill="white"/>
<path d="M332.97 244.163H315.567V247.1H332.97V244.163Z" fill="white"/>
<path d="M331.027 256.305H314.322V270.865H331.027V256.305Z" fill="#6DA794"/>
<path d="M355.82 276.744H335.926V255.479C335.926 252.327 338.481 249.77 341.635 249.77H350.111C353.265 249.77 355.82 252.325 355.82 255.479V276.744Z" fill="white"/>
<path d="M351.639 247.1H340.107V249.85H351.639V247.1Z" fill="white"/>
<path d="M354.574 244.163H337.171V247.1H354.574V244.163Z" fill="white"/>
<path d="M352.631 256.305H335.926V270.865H352.631V256.305Z" fill="#6DA794"/>
<path d="M377.424 276.744H357.53V255.479C357.53 252.327 360.085 249.77 363.238 249.77H371.715C374.868 249.77 377.424 252.325 377.424 255.479V276.744Z" fill="white"/>
<path d="M373.242 247.1H361.711V249.85H373.242V247.1Z" fill="white"/>
<path d="M376.178 244.163H358.775V247.1H376.178V244.163Z" fill="white"/>
<path d="M374.236 256.305H357.531V270.865H374.236V256.305Z" fill="#6DA794"/>
<path d="M399.028 276.744H379.135V255.479C379.135 252.327 381.69 249.77 384.843 249.77H393.32C396.473 249.77 399.028 252.325 399.028 255.479V276.744Z" fill="white"/>
<path d="M394.847 247.1H383.316V249.85H394.847V247.1Z" fill="white"/>
<path d="M397.783 244.163H380.38V247.1H397.783V244.163Z" fill="white"/>
<path d="M395.84 256.305H379.135V270.865H395.84V256.305Z" fill="#6DA794"/>
<path d="M338.632 405.466H292.954V367.405C292.954 364.137 295.603 361.49 298.869 361.49H332.716C335.983 361.49 338.631 364.139 338.631 367.405V405.466H338.632Z" fill="white"/>
<path d="M338.632 353.87H292.954V361.49H338.632V353.87Z" fill="white"/>
<path d="M318.819 355.7H312.767C311.448 355.7 310.378 354.63 310.378 353.311V351.191C310.378 349.872 311.448 348.801 312.767 348.801H318.819C320.138 348.801 321.208 349.872 321.208 351.191V353.311C321.208 354.632 320.138 355.7 318.819 355.7Z" fill="white"/>
<path d="M336.152 375.461H295.435V395.819H336.152V375.461Z" fill="#6DA794"/>
<path d="M386.465 405.466H340.787V367.405C340.787 364.137 343.436 361.49 346.702 361.49H380.55C383.817 361.49 386.465 364.139 386.465 367.405V405.466Z" fill="white"/>
<path d="M386.465 353.87H340.787V361.49H386.465V353.87Z" fill="white"/>
<path d="M366.652 355.7H360.6C359.281 355.7 358.211 354.63 358.211 353.311V351.191C358.211 349.872 359.281 348.801 360.6 348.801H366.652C367.971 348.801 369.042 349.872 369.042 351.191V353.311C369.042 354.632 367.971 355.7 366.652 355.7Z" fill="white"/>
<path d="M383.984 375.461H343.267V395.819H383.984V375.461Z" fill="#6DA794"/>
<path d="M434.297 405.466H388.619V367.405C388.619 364.137 391.268 361.49 394.534 361.49H428.381C431.648 361.49 434.296 364.139 434.296 367.405V405.466H434.297Z" fill="white"/>
<path d="M434.297 353.87H388.619V361.49H434.297V353.87Z" fill="white"/>
<path d="M414.484 355.7H408.432C407.113 355.7 406.043 354.63 406.043 353.311V351.191C406.043 349.872 407.113 348.801 408.432 348.801H414.484C415.803 348.801 416.874 349.872 416.874 351.191V353.311C416.874 354.632 415.805 355.7 414.484 355.7Z" fill="white"/>
<path d="M431.817 375.461H391.1V395.819H431.817V375.461Z" fill="#6DA794"/>
<path d="M378.347 183.03H353.417V215.278H378.347V183.03Z" fill="white"/>
<path d="M378.347 183.03H353.417L358.201 176.453H373.565L378.347 183.03Z" fill="white"/>
<path d="M376.413 170.055H355.352V176.453H376.413V170.055Z" fill="white"/>
<path d="M374.789 190.203H353.417V204.7H374.789V190.203Z" fill="#6DA794"/>
<path d="M349.869 183.03H324.939V215.278H349.869V183.03Z" fill="white"/>
<path d="M349.869 183.03H324.939L329.722 176.453H345.086L349.869 183.03Z" fill="white"/>
<path d="M347.935 170.055H326.874V176.453H347.935V170.055Z" fill="white"/>
<path d="M346.311 190.203H324.939V204.7H346.311V190.203Z" fill="#6DA794"/>
<path d="M321.391 183.03H296.461V215.278H321.391V183.03Z" fill="white"/>
<path d="M321.39 183.03H296.461L301.244 176.453H316.608L321.39 183.03Z" fill="white"/>
<path d="M319.457 170.055H298.396V176.453H319.457V170.055Z" fill="white"/>
<path d="M317.833 190.203H296.461V204.7H317.833V190.203Z" fill="#6DA794"/>
<path d="M472.139 329.235H443.585V404.005H472.139V329.235Z" fill="white"/>
<path d="M466.6 329.235H449.124V376.753H466.6V329.235Z" fill="#6DA794"/>
<path d="M466.6 381.884H449.124V390.503H466.6V381.884Z" fill="#6DA794"/>
<path d="M350.808 60.6953H328.003V120.411H350.808V60.6953Z" fill="white"/>
<path d="M346.385 60.6953H332.428V98.646H346.385V60.6953Z" fill="#6DA794"/>
<path d="M346.385 102.743H332.428V109.629H346.385V102.743Z" fill="#6DA794"/>
<path d="M326.262 60.6953H303.457V120.411H326.262V60.6953Z" fill="white"/>
<path d="M321.838 60.6953H307.88V98.646H321.838V60.6953Z" fill="#6DA794"/>
<path d="M321.838 102.743H307.88V109.629H321.838V102.743Z" fill="#6DA794"/>
<path d="M301.715 60.6953H278.91V120.411H301.715V60.6953Z" fill="white"/>
<path d="M297.291 60.6953H283.334V98.646H297.291V60.6953Z" fill="#6DA794"/>
<path d="M297.291 102.743H283.334V109.629H297.291V102.743Z" fill="#6DA794"/>
<path d="M300.491 119.166C296.835 119.383 277.177 108.005 265.024 124.87C255.309 138.353 263.164 148.184 261.366 155.128C259.568 162.072 250.988 169.814 255.515 184.689C262.09 206.288 325.525 209.444 330.942 178.809C333.535 164.143 321.391 158.83 321.357 151.275C321.325 143.719 321.325 117.926 300.491 119.166Z" fill="#6DA794"/>
<path d="M296.087 189.781C290.541 189.467 268.678 201.211 264.785 205.285C260.891 209.359 243.464 251.458 243.011 257.794C242.558 264.131 263.204 285.334 275.547 292.65C277.839 294.008 286.323 282.012 285.829 279.523C285.336 277.033 262.815 257.511 262.646 255.474C262.476 253.438 271.643 225.428 271.643 225.428C271.643 225.428 266.381 232.727 265.702 237.481C265.023 242.234 269.316 247.497 269.546 248.345C269.776 249.194 269.546 274.826 269.546 274.826H323.926C323.926 274.826 321.719 231.901 319.512 226.119C319.512 226.119 327.66 248.345 326.472 251.062C325.283 253.777 306.497 279.975 306.837 280.994C307.177 282.012 311.492 290.673 318.833 292.141C320.53 292.481 345.54 260.964 346.898 253.494C348.256 246.025 330.149 207.549 325.169 202.117C320.19 196.685 302.089 190.121 296.087 189.781Z" fill="#B9E8DB"/>
<path d="M302.021 188.6C300.839 191.643 289.641 211.61 287.779 211.771C285.559 211.962 287.599 196.911 289.8 190.461C290.044 189.754 290.207 189.008 290.316 188.26C291.144 182.15 287.845 175.021 287.845 175.021C286.609 171.721 303.381 162.961 301.18 169.236C300.08 172.387 300.297 177.262 300.773 181.322C301.261 185.355 302.021 188.6 302.021 188.6Z" fill="white"/>
<path opacity="0.5" d="M301.179 169.235C300.079 172.386 300.296 177.261 300.772 181.321C297.118 185.028 293.276 187.106 290.315 188.261C291.143 182.15 287.844 175.021 287.844 175.021C286.608 171.72 303.38 162.96 301.179 169.235Z" fill="#B9E8DB"/>
<path d="M290.085 189.441C289.813 190.867 289.011 194.847 287.993 199.898C285.358 212.99 281.257 233.209 281.054 234.215V234.229C281.04 234.243 281.04 234.256 281.04 234.256C281.556 230.575 280.415 225.375 278.976 220.621C277.224 214.863 275.011 209.771 274.698 208.902C274.128 207.326 282.398 199.314 282.398 199.314C282.398 199.314 277.075 200.197 276.885 199.314C276.708 198.432 290.397 187.88 290.085 189.441Z" fill="#D4EDE8"/>
<path d="M301.382 198.5C301.382 198.5 301.722 198.717 302.251 199.057C302.265 199.057 302.265 199.057 302.265 199.057C302.537 199.247 302.849 199.451 303.189 199.696C305.443 201.245 308.974 203.933 308.418 205.169C308.051 206.011 303.611 208.496 298.273 212.665C298.273 212.665 298.273 212.665 298.273 212.679C292.136 217.5 284.829 224.562 281.135 234.013C281.963 231.704 288.468 213.71 294.661 200.809C297.335 195.227 299.957 190.596 302.021 188.6C302.673 187.976 312.437 196.002 312.017 197.482C311.595 198.948 301.382 198.5 301.382 198.5Z" fill="#D4EDE8"/>
<path d="M294.661 200.808C288.468 213.709 281.964 231.703 281.135 234.012C281.108 234.066 281.081 234.134 281.067 234.202C281.053 234.216 281.053 234.216 281.053 234.216C281.256 233.211 285.358 212.991 287.992 199.899C289.581 200.441 291.864 200.944 294.661 200.808Z" fill="#6DA794"/>
<path d="M283.948 277.014C284.824 276.487 289.298 280.683 289.128 281.447C288.958 282.21 286.124 291.954 277.415 294.857C276.906 295.027 272.089 292.268 272.153 291.376C272.216 290.485 274.188 282.89 283.948 277.014Z" fill="#D4EDE8"/>
<path d="M323.834 287.573C324.361 288.449 320.164 292.922 319.401 292.752C318.637 292.582 308.893 289.748 305.991 281.039C305.821 280.53 308.579 275.713 309.471 275.777C310.361 275.841 317.957 277.814 323.834 287.573Z" fill="#D4EDE8"/>
<path d="M278.772 290.529C278.772 290.529 279.79 284.418 285.731 281.617C285.731 281.617 288.517 282.58 290.13 283.175C291.742 283.769 297.162 281.648 299.162 283.694C300.613 285.182 294.191 286.171 293.766 286.936C293.341 287.699 305.247 288.905 305.111 290.857C304.976 292.809 294.817 291.294 294.987 292.142C295.157 292.991 304.731 292.142 304.85 294.179C304.968 296.216 295.156 295.751 294.987 296.345C294.817 296.939 302.197 296.98 302.197 298.253C302.198 299.525 288.618 301.562 278.772 290.529Z" fill="white"/>
<path d="M317.476 288.322C317.476 288.322 316.457 282.211 310.516 279.41C310.516 279.41 307.73 280.373 306.118 280.968C304.504 281.562 299.085 279.441 297.086 281.488C295.634 282.975 302.057 283.964 302.482 284.728C302.906 285.492 291.001 286.697 291.137 288.649C291.272 290.601 301.431 289.086 301.261 289.934C301.091 290.783 291.517 289.934 291.398 291.971C291.279 294.008 301.091 293.543 301.261 294.137C301.431 294.731 294.051 294.772 294.051 296.045C294.051 297.318 307.63 299.355 317.476 288.322Z" fill="white"/>
<path d="M281.054 274.826C280.887 271.442 280.81 268.057 280.746 264.674C280.679 261.289 280.685 257.905 280.652 254.522C280.683 251.137 280.68 247.753 280.744 244.369C280.81 240.985 280.887 237.6 281.055 234.216C281.223 237.6 281.3 240.985 281.365 244.369C281.429 247.754 281.426 251.138 281.457 254.522C281.424 257.906 281.429 261.291 281.364 264.674C281.298 268.058 281.22 271.442 281.054 274.826Z" fill="#6DA794"/>
<path d="M266.762 243.259C265.635 241.859 264.985 240.092 264.68 238.302C264.366 236.5 264.45 234.647 264.763 232.855C265.078 231.055 265.73 229.346 266.499 227.718C266.896 226.909 267.38 226.146 267.828 225.372C268.367 224.651 268.876 223.915 269.437 223.223C269.08 224.049 268.667 224.829 268.29 225.627C267.959 226.448 267.587 227.243 267.268 228.056C267.008 228.891 266.625 229.681 266.434 230.531L266.075 231.781L265.819 233.052C265.504 234.747 265.378 236.475 265.51 238.198C265.665 239.91 265.997 241.646 266.762 243.259Z" fill="#6DA794"/>
<path d="M310.55 274.826C312.422 271.319 314.563 267.995 316.77 264.717C319.004 261.456 321.306 258.242 323.88 255.211C322.01 258.719 319.868 262.043 317.659 265.32C315.423 268.58 313.121 271.794 310.55 274.826Z" fill="#6DA794"/>
<path d="M283.947 277.014C281.234 274.955 278.746 272.665 276.316 270.317C273.908 267.945 271.557 265.516 269.435 262.85C272.15 264.906 274.637 267.197 277.066 269.547C279.473 271.92 281.824 274.351 283.947 277.014Z" fill="#6DA794"/>
<path d="M289.132 245.743C289.132 246.774 288.296 247.61 287.265 247.61C286.234 247.61 285.398 246.774 285.398 245.743C285.398 244.711 286.234 243.876 287.265 243.876C288.296 243.876 289.132 244.711 289.132 245.743Z" fill="#6DA794"/>
<path d="M289.132 256.389C289.132 257.42 288.296 258.256 287.265 258.256C286.234 258.256 285.398 257.42 285.398 256.389C285.398 255.357 286.234 254.522 287.265 254.522C288.296 254.522 289.132 255.357 289.132 256.389Z" fill="#6DA794"/>
<path d="M289.132 267.033C289.132 268.065 288.296 268.9 287.265 268.9C286.234 268.9 285.398 268.065 285.398 267.033C285.398 266.002 286.234 265.166 287.265 265.166C288.296 265.166 289.132 266.002 289.132 267.033Z" fill="#6DA794"/>
<path d="M297.65 228.454L305.879 228.203L314.316 228.029L314.731 228.02L314.741 228.454C314.793 230.734 314.779 233.012 314.802 235.291L314.844 242.129L314.846 242.413L314.603 242.572C311.837 244.382 309.031 246.133 306.248 247.917L305.981 248.088L305.72 247.917L301.57 245.203L297.449 242.442L297.275 242.326L297.28 242.13C297.328 239.809 297.358 237.486 297.44 235.204L297.65 228.454ZM297.65 228.454L297.861 235.38C297.942 237.656 297.973 239.892 298.022 242.13L297.852 241.818L302.065 244.436L306.249 247.1H305.721C308.492 245.297 311.243 243.463 314.033 241.688L313.791 242.131L313.833 235.293C313.856 233.015 313.842 230.735 313.894 228.456L314.319 228.881L306.09 228.706L297.65 228.454Z" fill="#6DA794"/>
<path d="M315.409 153.059C311.495 179.561 291.986 183.014 282.671 181.332C277.284 180.351 271.509 176.749 267.611 170.589C266.183 168.312 264.992 165.693 264.189 162.731C263.416 159.889 262.968 156.72 262.968 153.252C262.968 136.318 273.087 121.72 287.522 120.127C302.759 118.46 319.129 127.954 315.409 153.059Z" fill="white"/>
<path d="M309.836 159.685C309.836 156.4 311.809 153.401 314.868 152.205C317.235 151.279 319.928 150.994 321.74 153.152C325.646 157.803 319.693 171.753 309.836 166.359V159.685Z" fill="white"/>
<path d="M313.576 164.006C313.576 164.006 313.952 155.738 319.982 154.215L313.576 164.006Z" fill="#B9E8DB"/>
<path d="M262.961 147.478C262.942 149.704 274.026 136.814 279.764 128.629C279.764 128.629 283.985 148.886 304.069 152.903C305.929 153.275 304.015 163.676 307.913 162.746C309.928 162.266 308.361 161.388 311.314 156.96C312.088 155.802 318.795 148.198 317.214 136.479C315.628 124.72 296.971 116.601 287.964 117.716C278.958 118.833 263.147 124.413 262.961 147.478Z" fill="#6DA794"/>
<path d="M278.637 158.081C277.832 158.031 277.087 161.305 277.645 161.677C278.203 162.049 279.505 162.112 279.815 161.429C280.125 160.747 279.629 158.143 278.637 158.081Z" fill="#B9E8DB"/>
<path d="M269.382 160.313C270.744 160.313 271.847 159.064 271.847 157.523C271.847 155.982 270.744 154.733 269.382 154.733C268.021 154.733 266.917 155.982 266.917 157.523C266.917 159.064 268.021 160.313 269.382 160.313Z" fill="#005C4B"/>
<path d="M264.197 155.524C264.401 156.078 264.751 156.586 265.235 156.743C265.742 156.903 266.219 156.801 266.59 156.396C266.987 156.027 267.351 155.514 267.873 155.157C268.384 154.784 269.048 154.618 269.638 154.734C269.046 154.847 268.53 155.093 268.132 155.48C267.728 155.864 267.413 156.34 266.958 156.788C266.726 157.001 266.433 157.215 266.071 157.283C265.707 157.333 265.377 157.281 265.069 157.121C264.442 156.793 264.187 156.112 264.197 155.524Z" fill="#005C4B"/>
<path d="M295.637 158.08C295.637 159.723 294.461 161.056 293.008 161.056C291.556 161.056 290.379 159.723 290.379 158.08C290.379 156.437 291.556 155.104 293.008 155.104C294.46 155.104 295.637 156.437 295.637 158.08Z" fill="#005C4B"/>
<path d="M298.357 155.988C298.369 156.577 298.113 157.258 297.486 157.584C297.177 157.744 296.847 157.795 296.484 157.747C296.122 157.679 295.829 157.465 295.596 157.252C295.142 156.803 294.826 156.327 294.422 155.943C294.024 155.558 293.509 155.311 292.916 155.199C293.507 155.083 294.17 155.248 294.681 155.622C295.204 155.979 295.567 156.492 295.964 156.86C296.335 157.266 296.813 157.369 297.319 157.208C297.803 157.051 298.154 156.542 298.357 155.988Z" fill="#005C4B"/>
<path d="M264.934 152.439C264.934 152.439 267.29 148.037 272.219 150.641L264.934 152.439Z" fill="#6DA794"/>
<path d="M297.665 152.81C297.665 152.81 295.308 148.408 290.379 151.012L297.665 152.81Z" fill="#6DA794"/>
<path d="M290.043 166.741C289.775 168.332 288.421 170.312 285.132 170.893H285.117C283.123 171.205 281.65 170.878 280.623 170.268C278.852 169.256 278.376 167.441 278.852 166.652C279.953 164.807 281.962 165.908 283.881 165.462C285.355 165.105 287.899 163.155 289.626 164.792C289.998 165.134 290.177 165.878 290.043 166.741Z" fill="#005C4B"/>
<path d="M290.043 166.741C289.775 168.332 288.421 170.312 285.132 170.893H285.117C283.123 171.205 281.65 170.878 280.623 170.268C281.099 167.976 283.807 166.22 287.081 166.22C288.153 166.22 289.15 166.414 290.043 166.741Z" fill="#B9E8DB"/>
<path d="M271.346 166.214C271.346 168.431 269.739 170.262 267.611 170.589C266.183 168.312 264.992 165.693 264.189 162.731C264.948 162.137 265.885 161.794 266.912 161.794C269.367 161.794 271.346 163.773 271.346 166.214Z" fill="#B9E8DB"/>
<path d="M303.432 166.22C303.432 168.665 301.45 170.648 299.005 170.648C296.56 170.648 294.578 168.666 294.578 166.22C294.578 163.775 296.56 161.792 299.005 161.792C301.45 161.794 303.432 163.776 303.432 166.22Z" fill="#B9E8DB"/>
<path d="M437.261 274.826H93.686V292.757H437.261V274.826Z" fill="#6DA794"/>
<path d="M426.917 292.757H114.128V310.688H426.917V292.757Z" fill="#005C4B"/>
<path d="M413.375 310.687H127.67V419.907H413.375V310.687Z" fill="#6DA794"/>
<path d="M141.024 263.411H218.657C221.618 263.411 224.017 261.011 224.017 258.051V207.934C224.017 204.973 221.617 202.574 218.657 202.574H141.024C138.064 202.574 135.664 204.974 135.664 207.934V258.051C135.664 261.011 138.065 263.411 141.024 263.411Z" fill="#005C4B"/>
<path d="M160.531 274.826H183.957L188.03 232.992H165.963L160.531 274.826Z" fill="#6DA794"/>
<path d="M187.352 274.712H254.051V269.593H187.352V274.712Z" fill="#005C4B"/>
<path d="M275.504 328.852H261.65V369.334H275.504V328.852Z" fill="#D4EDE8"/>
<path d="M248.335 342.166V356.02H288.818V342.166H248.335Z" fill="#D4EDE8"/>
<path d="M525.777 256.531C517.895 251.802 501.232 265.25 495.096 283.175C491.275 294.336 491.22 310.142 486.052 315.956C480.885 321.77 451.142 354.771 471.626 372.474C481.1 380.662 499.401 361.924 504.353 338.24C507.747 322.006 510.006 310.271 515.441 304.652C525.025 294.748 540.311 265.25 525.777 256.531Z" fill="#B9E8DB"/>
<path d="M519.456 266.542L513.106 279.622C510.985 283.978 508.872 288.339 506.796 292.716C502.627 301.464 498.43 310.197 494.423 319.018C490.344 327.805 486.352 336.633 482.533 345.534C481.546 347.746 480.628 349.987 479.687 352.218C478.747 354.451 477.801 356.68 476.921 358.935C476.021 361.184 475.075 363.416 474.216 365.68L471.629 372.473C474.587 363.237 478.104 354.19 481.772 345.213C485.438 336.233 489.443 327.398 493.448 318.567C497.54 309.776 501.727 301.03 506.057 292.355C510.395 283.685 514.812 275.054 519.456 266.542Z" fill="#6DA794"/>
<path d="M521.07 280.631C518.539 283.711 515.779 286.557 512.963 289.348C510.125 292.115 507.229 294.823 504.104 297.298C506.633 294.217 509.393 291.37 512.211 288.581C515.051 285.815 517.946 283.107 521.07 280.631Z" fill="#6DA794"/>
<path d="M498.14 285.274C498.269 289.77 498.074 294.244 497.798 298.712C497.491 303.178 497.101 307.641 496.384 312.08C496.252 307.585 496.449 303.111 496.726 298.642C497.036 294.176 497.425 289.714 498.14 285.274Z" fill="#6DA794"/>
<path d="M500.724 323.707C498.291 326.762 495.627 329.588 492.906 332.359C490.163 335.107 487.36 337.795 484.325 340.254C486.756 337.196 489.421 334.371 492.143 331.602C494.888 328.856 497.69 326.167 500.724 323.707Z" fill="#6DA794"/>
<path d="M477.147 335.98C477.57 339.58 477.668 343.182 477.685 346.783C477.67 350.383 477.573 353.985 477.147 357.586C476.722 353.985 476.625 350.383 476.61 346.783C476.627 343.181 476.725 339.58 477.147 335.98Z" fill="#6DA794"/>
<path d="M486.536 217.668C473.888 212.189 458.361 244.581 458.361 274.94C458.361 294.767 460.936 300.382 458.361 308.761C455.787 317.14 447.606 371.398 465.476 372.474C483.346 373.551 484.207 319.2 483.777 294.917C483.346 270.634 510.395 228.002 486.536 217.668Z" fill="#B9E8DB"/>
<path d="M484.325 229.725C482.628 235.512 481.061 241.335 479.643 247.192C478.198 253.043 476.89 258.926 475.746 264.838C474.651 270.76 473.664 276.699 472.979 282.674C472.282 288.655 472.053 294.646 472.209 300.663C472.435 312.724 472.519 324.813 471.693 336.87C470.854 348.905 469.19 360.977 465.476 372.475C467.11 366.669 468.315 360.755 469.145 354.792C470.01 348.834 470.544 342.831 470.866 336.82C471.519 324.794 471.443 312.736 471.133 300.688C470.779 288.558 472.556 276.5 474.937 264.679C477.425 252.858 480.522 241.174 484.325 229.725Z" fill="#6DA794"/>
<path d="M488.774 248.133C486.737 251.928 484.43 255.541 482.057 259.109C479.657 262.66 477.188 266.164 474.447 269.487C476.482 265.69 478.789 262.078 481.164 258.51C483.567 254.961 486.035 251.457 488.774 248.133Z" fill="#6DA794"/>
<path d="M465.476 255.576C466.215 258.548 466.838 261.541 467.445 264.537C468.063 267.531 468.598 270.539 469.132 273.547C469.641 276.56 470.148 279.573 470.573 282.601L471.207 287.142C471.379 288.663 471.588 290.177 471.728 291.703C471.348 290.219 471.036 288.722 470.687 287.233L469.758 282.743C469.141 279.749 468.606 276.741 468.073 273.731C467.565 270.718 467.058 267.706 466.634 264.678C466.197 261.652 465.779 258.623 465.476 255.576Z" fill="#6DA794"/>
<path d="M480.377 300.232C479.341 304.497 477.998 308.657 476.579 312.789C475.129 316.911 473.603 321.006 471.765 324.993C472.798 320.727 474.142 316.568 475.562 312.436C477.015 308.315 478.542 304.221 480.377 300.232Z" fill="#6DA794"/>
<path d="M461.645 327.583C463.466 330.988 464.983 334.514 466.427 338.069C467.842 341.638 469.179 345.235 470.212 348.956C468.389 345.553 466.872 342.026 465.429 338.47C464.018 334.9 462.68 331.302 461.645 327.583Z" fill="#6DA794"/>
<path d="M413.183 247.925C419.647 240.707 434.185 249.041 438.906 258.324C443.629 267.608 442.361 273.518 447.556 281.258C452.752 288.997 460.072 293.209 464.272 308.659C468.472 324.109 463.955 331.575 465.673 339.194C467.392 346.814 470.371 368.399 457.89 371.871C445.41 375.343 438.926 354.221 439.482 341.775C439.845 333.632 438.387 320.132 434.708 316.775C417.819 301.363 400.455 262.135 413.183 247.925Z" fill="#B9E8DB"/>
<path d="M457.89 371.871C458.013 366.724 458.014 361.578 457.868 356.436C457.757 351.294 457.5 346.158 457.071 341.038C456.629 335.921 456.071 330.812 455.176 325.763C454.268 320.723 453.074 315.716 451.203 310.98C449.303 306.26 446.699 301.795 444.16 297.335L436.321 284.037C433.714 279.597 431.106 275.154 428.655 270.62C427.44 268.348 426.259 266.055 425.175 263.716C424.097 261.379 423.078 258.989 422.497 256.476C423.182 258.961 424.286 261.296 425.42 263.597C426.57 265.896 427.815 268.145 429.095 270.376C431.646 274.841 434.314 279.24 437.005 283.627C439.704 288.009 442.387 292.403 444.994 296.85C447.567 301.314 450.203 305.76 452.185 310.586C454.135 315.421 455.254 320.508 456.152 325.593C457.004 330.692 457.584 335.826 457.921 340.974C458.574 351.27 458.579 361.595 457.89 371.871Z" fill="#6DA794"/>
<path d="M418.622 274.54C421.943 275.901 425.106 277.546 428.23 279.26C431.339 281.004 434.408 282.818 437.317 284.92C433.995 283.562 430.832 281.917 427.709 280.2C424.602 278.455 421.533 276.639 418.622 274.54Z" fill="#6DA794"/>
<path d="M441.325 274.54C441.96 276.716 442.477 278.912 442.978 281.112C443.491 283.31 443.92 285.524 444.349 287.737C444.754 289.956 445.156 292.174 445.475 294.408L445.952 297.76C446.072 298.885 446.228 300.003 446.316 301.133C445.988 300.048 445.729 298.949 445.433 297.857L444.662 294.561C444.15 292.363 443.72 290.149 443.293 287.936C442.89 285.717 442.488 283.499 442.169 281.265C441.837 279.032 441.523 276.796 441.325 274.54Z" fill="#6DA794"/>
<path d="M438.033 308.721C441.185 311.285 444.106 314.078 446.97 316.928C449.812 319.801 452.596 322.731 455.147 325.894C451.994 323.332 449.073 320.538 446.21 317.687C443.37 314.813 440.586 311.882 438.033 308.721Z" fill="#6DA794"/>
<path d="M462.546 334.942C462.18 338.114 461.499 341.206 460.739 344.278C459.949 347.342 459.079 350.387 457.89 353.351C458.254 350.178 458.936 347.086 459.697 344.015C460.49 340.951 461.36 337.906 462.546 334.942Z" fill="#6DA794"/>
<path d="M441.622 370.967L452.602 419.683H484.253L495.233 370.967H441.622Z" fill="#6DA794"/>
<path d="M437.423 379.256H499.432V363.108H437.423V379.256Z" fill="#005C4B"/>
<path d="M193.707 173.586C212.651 165.927 221.8 144.361 214.142 125.417C206.483 106.473 184.917 97.324 165.973 104.983C147.028 112.641 137.88 134.207 145.538 153.151C153.197 172.096 174.763 181.245 193.707 173.586Z" fill="#6DA794"/>
<path d="M209.532 146.392C213.451 130.003 203.343 113.54 186.954 109.62C170.565 105.701 154.102 115.809 150.182 132.198C146.263 148.587 156.371 165.05 172.76 168.97C189.149 172.889 205.612 162.781 209.532 146.392Z" fill="#B9E8DB"/>
<path d="M180.19 118.706H179.618C179.247 118.706 178.946 118.405 178.946 118.034V113.143C178.946 112.772 179.247 112.471 179.618 112.471H180.19C180.561 112.471 180.862 112.772 180.862 113.143V118.034C180.862 118.405 180.562 118.706 180.19 118.706Z" fill="#005C4B"/>
<path d="M169.848 121.29L169.352 121.576C169.03 121.762 168.619 121.651 168.433 121.33L165.988 117.094C165.803 116.773 165.913 116.362 166.234 116.176L166.729 115.89C167.05 115.704 167.461 115.815 167.647 116.136L170.093 120.371C170.28 120.693 170.169 121.105 169.848 121.29Z" fill="#005C4B"/>
<path d="M162.183 128.699L161.897 129.193C161.711 129.515 161.3 129.625 160.978 129.44L156.743 126.994C156.422 126.808 156.312 126.397 156.497 126.076L156.783 125.581C156.969 125.259 157.38 125.15 157.701 125.335L161.937 127.78C162.258 127.966 162.369 128.377 162.183 128.699Z" fill="#005C4B"/>
<path d="M159.25 138.948V139.52C159.25 139.891 158.949 140.192 158.578 140.192H153.687C153.316 140.192 153.015 139.891 153.015 139.52V138.948C153.015 138.577 153.316 138.275 153.687 138.275H158.578C158.949 138.275 159.25 138.577 159.25 138.948Z" fill="#005C4B"/>
<path d="M161.833 149.29L162.119 149.785C162.305 150.107 162.195 150.517 161.873 150.703L157.638 153.149C157.316 153.335 156.906 153.224 156.72 152.903L156.433 152.408C156.247 152.086 156.358 151.676 156.68 151.49L160.915 149.044C161.236 148.859 161.647 148.969 161.833 149.29Z" fill="#005C4B"/>
<path d="M169.242 156.955L169.737 157.241C170.058 157.427 170.168 157.838 169.983 158.16L167.538 162.395C167.351 162.716 166.941 162.826 166.619 162.641L166.124 162.355C165.803 162.169 165.693 161.758 165.878 161.437L168.324 157.201C168.51 156.88 168.921 156.77 169.242 156.955Z" fill="#005C4B"/>
<path d="M179.491 159.889H180.063C180.434 159.889 180.736 160.19 180.736 160.561V165.452C180.736 165.823 180.434 166.124 180.063 166.124H179.491C179.12 166.124 178.819 165.823 178.819 165.452V160.561C178.819 160.19 179.12 159.889 179.491 159.889Z" fill="#005C4B"/>
<path d="M189.834 157.306L190.329 157.02C190.65 156.834 191.061 156.944 191.247 157.266L193.693 161.501C193.879 161.823 193.768 162.233 193.446 162.419L192.952 162.706C192.63 162.892 192.219 162.781 192.033 162.459L189.588 158.224C189.402 157.901 189.512 157.491 189.834 157.306Z" fill="#005C4B"/>
<path d="M197.499 149.896L197.785 149.401C197.971 149.08 198.382 148.97 198.703 149.155L202.938 151.6C203.26 151.786 203.37 152.197 203.185 152.519L202.899 153.015C202.713 153.336 202.302 153.446 201.98 153.261L197.745 150.815C197.423 150.629 197.314 150.217 197.499 149.896Z" fill="#005C4B"/>
<path d="M200.433 139.648V139.076C200.433 138.705 200.734 138.403 201.105 138.403H205.996C206.367 138.403 206.668 138.705 206.668 139.076V139.648C206.668 140.019 206.367 140.32 205.996 140.32H201.105C200.734 140.32 200.433 140.019 200.433 139.648Z" fill="#005C4B"/>
<path d="M197.848 129.305L197.562 128.809C197.376 128.488 197.487 128.077 197.808 127.891L202.044 125.445C202.365 125.259 202.776 125.37 202.962 125.692L203.248 126.186C203.434 126.508 203.323 126.919 203.002 127.105L198.767 129.55C198.445 129.736 198.034 129.627 197.848 129.305Z" fill="#005C4B"/>
<path d="M190.439 121.64L189.945 121.354C189.623 121.168 189.513 120.757 189.698 120.436L192.144 116.201C192.33 115.879 192.741 115.769 193.062 115.954L193.557 116.24C193.879 116.426 193.988 116.837 193.803 117.159L191.358 121.394C191.172 121.716 190.761 121.825 190.439 121.64Z" fill="#005C4B"/>
<path d="M180.063 139.297H179.491C179.12 139.297 178.819 138.996 178.819 138.625V123.873C178.819 123.502 179.12 123.201 179.491 123.201H180.063C180.434 123.201 180.736 123.502 180.736 123.873V138.625C180.736 138.996 180.434 139.297 180.063 139.297Z" fill="#6DA794"/>
<path d="M179.294 139.155L179.699 138.751C179.961 138.488 180.387 138.488 180.65 138.751L189.72 147.821C189.982 148.084 189.982 148.51 189.72 148.772L189.316 149.176C189.053 149.439 188.627 149.439 188.365 149.176L179.294 140.106C179.032 139.843 179.032 139.418 179.294 139.155Z" fill="#6DA794"/>
<path d="M182.332 139.297C182.332 140.673 181.216 141.788 179.841 141.788C178.465 141.788 177.35 140.673 177.35 139.297C177.35 137.922 178.465 136.806 179.841 136.806C181.216 136.806 182.332 137.922 182.332 139.297Z" fill="#005C4B"/>
</svg>
