<svg width="500" height="500" viewBox="0 0 500 500" fill="none" xmlns="http://www.w3.org/2000/svg">
<path d="M70.686 172.129C104.675 156.006 131.257 134.654 135.614 82.7979C102.932 72.7759 72.864 139.012 70.686 172.129Z" fill="#87CEEB" fill-opacity="0.5"/>
<path d="M123.905 375.965C115.185 372.059 102.794 390.28 102.794 390.28C102.794 390.28 135.308 329.858 120.654 321.674C112.776 317.274 102.592 335.279 102.592 335.279C102.592 335.279 110.811 278.057 77.963 280.634C45.114 283.213 62.161 338.452 62.161 338.452C62.161 338.452 48.948 321.845 42.197 327.832C30.219 338.453 70.543 392.811 70.543 392.811C70.543 392.811 55.46 376.748 47.457 381.966C39.454 387.185 89.824 431.739 89.824 431.739C89.824 431.739 132.625 379.871 123.905 375.965Z" fill="#005C4B" fill-opacity="0.3"/>
<path d="M447.262 304.478C452.187 286.606 455.39 268.255 456.713 249.762C459.423 211.893 453.298 170.759 427.248 143.14C393.346 107.196 337.843 104.922 292.717 84.797C270.903 75.069 251.12 60.889 228.56 53.044C206 45.199 178.466 45.005 160.827 61.11C138.991 81.047 140.953 116.532 124.198 140.895C113.784 156.037 97.16 165.45 82.905 177.048C68.65 188.646 55.655 205.134 57.553 223.414C61.03 256.902 110.554 273.005 109.718 306.663C109.103 331.439 79.902 350.926 85.128 375.153C90.553 400.299 128.296 406.465 135.609 431.129C135.63 431.199 135.642 431.27 135.662 431.341H374.335C385.541 419.94 395.785 407.594 404.937 394.488C424.01 367.174 438.412 336.596 447.262 304.478Z" fill="#87CEEB" fill-opacity="0.5"/>
<path d="M252.937 373.424C260.616 381.762 340.058 384.71 333.918 356.247C328.746 332.276 276.198 352.195 258.284 365.27C262.845 358.067 267.114 350.735 271.154 343.491C275.022 336.553 278.649 329.5 282.043 322.345C295.509 327.04 367.78 311.861 355.71 286.476C346.053 266.163 306.07 290.924 288.372 308.153C293.288 296.568 297.619 284.747 301.399 272.746C311.79 278.15 387.729 257.48 373.488 232.24C361.588 211.148 318.267 244.638 304.449 262.619C308.159 249.691 311.259 236.579 313.751 223.35C326.021 226.525 396.747 196.546 379.533 173.651C365.294 154.712 328.058 191.501 315.823 211.485C317.019 204.064 318.021 196.612 318.859 189.143C329.245 181.736 352.194 108.595 323.631 106.861C296.644 105.221 305.492 173.417 314.355 187.296C313.431 195.739 312.255 204.15 310.861 212.516C304.898 191.471 274.552 141.875 256.052 158.784C235.219 177.828 296.227 221.789 309.264 221.636C306.81 234.672 303.738 247.575 300.09 260.311C296.112 237.821 273.096 187.35 253.006 201.379C230.173 217.326 283.164 267.719 297.015 270.546C292.426 285.12 287.026 299.436 280.773 313.413C280.673 293.731 260.075 233.861 237.676 247.28C212.991 262.071 266.5 319.209 277.987 319.559C274.519 326.96 270.824 334.269 266.867 341.457C263.321 347.899 259.56 354.415 255.55 360.835C258.277 337.912 251.211 283.645 228.015 291.034C201.497 299.484 237.09 363.259 249.501 370.133C241.875 381.382 233.39 392.077 223.815 401.265C221.611 403.379 225.248 406.433 227.435 404.334C236.963 395.187 245.356 384.582 252.937 373.424Z" fill="#005C4B" fill-opacity="0.3"/>
<path d="M444.283 367.999C434.163 362.276 417.082 382.941 417.082 382.941C417.082 382.941 463.337 313.44 446.515 301.861C437.472 295.636 423.088 316.289 423.088 316.289C423.088 316.289 439.549 247.903 399.462 247.293C359.375 246.684 373.748 315.539 373.748 315.539C373.748 315.539 359.629 293.92 350.771 300.405C335.054 311.91 377.724 382.343 377.724 382.343C377.724 382.343 361.278 361.17 350.99 366.582C340.702 371.994 396.657 431.692 396.657 431.692C396.657 431.692 454.402 373.723 444.283 367.999Z" fill="#005C4B" fill-opacity="0.3"/>
<path d="M139.105 339.252C129.494 328.676 122.034 315.477 115.85 302.308C115.202 302.327 114.274 302.33 113.134 302.267C110.799 302.158 107.559 301.811 103.886 301.039C100.219 300.264 96.097 299.077 91.912 297.437C87.71 295.797 83.45 293.695 79.357 291.311C75.277 288.889 71.372 286.185 67.911 283.302C66.167 281.863 64.548 280.398 63.043 278.928C61.546 277.468 60.2 275.975 58.955 274.565C57.73 273.145 56.655 271.777 55.713 270.496C54.793 269.219 54.02 268.062 53.41 267.063C52.174 265.063 51.579 263.733 51.579 263.733C51.579 263.733 53.036 263.604 55.369 263.72C56.549 263.769 57.946 263.889 59.508 264.079C61.067 264.273 62.791 264.568 64.63 264.938C66.457 265.343 68.421 265.793 70.428 266.411C72.444 267.017 74.514 267.72 76.612 268.547C80.809 270.177 85.066 272.291 89.153 274.69C93.22 277.123 97.134 279.832 100.588 282.716C104.064 285.579 107.086 288.611 109.544 291.453C110.747 292.846 111.807 294.197 112.724 295.454C112.284 294.436 111.839 293.426 111.403 292.411C107.187 282.64 103.599 272.653 100.5 262.53C100.011 262.52 99.448 262.5 98.799 262.469C96.454 262.362 93.214 262.011 89.547 261.233C85.876 260.462 81.762 259.28 77.568 257.634C73.38 256.007 69.108 253.895 65.014 251.509C60.933 249.093 57.022 246.393 53.574 243.506C51.835 242.072 50.208 240.603 48.706 239.129C47.205 237.674 45.852 236.174 44.616 234.766C43.384 233.343 42.314 231.978 41.375 230.706C40.461 229.431 39.681 228.266 39.067 227.263C37.834 225.267 37.239 223.937 37.239 223.937C37.239 223.937 38.699 223.807 41.025 223.918C42.214 223.975 43.612 224.089 45.164 224.277C46.727 224.474 48.449 224.762 50.296 225.141C52.119 225.538 54.078 225.999 56.09 226.606C58.103 227.21 60.176 227.927 62.272 228.749C66.466 230.385 70.728 232.496 74.809 234.896C78.882 237.325 82.794 240.03 86.249 242.91C89.714 245.787 92.753 248.814 95.204 251.656C96.489 253.144 97.607 254.58 98.578 255.897C95.78 245.941 93.476 235.858 91.647 225.676C91.154 225.511 90.593 225.324 89.956 225.089C87.753 224.26 84.77 222.95 81.509 221.104C78.243 219.259 74.675 216.885 71.183 214.044C67.68 211.222 64.25 207.927 61.073 204.406C57.909 200.87 55.004 197.111 52.582 193.313C51.36 191.423 50.252 189.535 49.273 187.677C48.278 185.831 47.442 183.998 46.69 182.282C45.964 180.55 45.336 178.92 44.837 177.427C44.346 175.931 43.942 174.584 43.676 173.449C43.1 171.18 42.941 169.724 42.941 169.724C42.941 169.724 44.363 170.042 46.561 170.855C47.665 171.265 48.95 171.797 50.391 172.458C51.821 173.113 53.369 173.905 55.015 174.818C56.631 175.762 58.37 176.792 60.093 177.979C61.826 179.163 63.588 180.468 65.345 181.884C68.842 184.713 72.266 188.014 75.43 191.538C78.584 195.083 81.479 198.842 83.905 202.645C86.3 206.353 88.225 210.077 89.696 213.463C88.471 204.859 87.556 196.203 86.932 187.518C85.991 185.548 84.936 183.031 83.981 180.078C82.838 176.496 81.833 172.336 81.191 167.881C80.521 163.418 80.244 158.681 80.298 153.939C80.369 149.201 80.783 144.466 81.578 140.025C81.965 137.81 82.438 135.673 82.966 133.643C83.49 131.62 84.129 129.699 84.732 127.923C85.363 126.155 86.022 124.535 86.666 123.1C87.316 121.663 87.932 120.417 88.511 119.389C89.621 117.327 90.5 116.157 90.5 116.157C90.5 116.157 91.326 117.354 92.388 119.443C92.928 120.494 93.514 121.756 94.116 123.214C94.722 124.663 95.334 126.309 95.907 128.093C96.467 129.884 97.043 131.81 97.505 133.859C97.973 135.902 98.383 138.055 98.705 140.278C99.368 144.733 99.637 149.481 99.583 154.226C99.48 158.956 99.059 163.697 98.273 168.132C97.494 172.573 96.363 176.699 95.111 180.237C93.86 183.774 92.475 186.718 91.352 188.78C90.972 189.48 90.624 190.063 90.325 190.551C91.428 204.472 93.3 218.348 96.039 232.028C96.463 229.87 97.129 227.163 98.133 224.172C99.336 220.615 101.001 216.668 103.121 212.698C105.239 208.721 107.835 204.742 110.681 200.957C113.563 197.19 116.703 193.627 119.977 190.536C121.617 188.975 123.26 187.528 124.896 186.215C126.523 184.896 128.164 183.729 129.706 182.663C131.273 181.622 132.755 180.709 134.128 179.934C135.507 179.168 136.749 178.531 137.824 178.04C139.94 177.048 141.327 176.621 141.327 176.621C141.327 176.621 141.292 178.078 140.901 180.384C140.716 181.553 140.433 182.92 140.062 184.452C139.675 185.978 139.193 187.654 138.605 189.435C137.98 191.201 137.302 193.1 136.458 195.025C135.622 196.941 134.675 198.921 133.614 200.904C131.495 204.886 128.897 208.868 126.031 212.641C123.137 216.404 119.985 219.956 116.717 223.053C113.465 226.159 110.094 228.812 106.981 230.916C103.876 233.016 101.01 234.564 98.887 235.546C98.139 235.898 97.476 236.183 96.939 236.388C99.877 250.058 103.676 263.513 108.502 276.613C108.565 276.176 108.636 275.688 108.725 275.142C109.117 272.83 109.851 269.662 111.048 266.106C112.245 262.546 113.909 258.606 116.027 254.634C118.146 250.661 120.733 246.674 123.595 242.885C126.474 239.118 129.619 235.555 132.896 232.457C134.516 230.912 136.169 229.459 137.805 228.152C139.43 226.836 141.075 225.668 142.616 224.599C144.181 223.552 145.665 222.632 147.038 221.869C148.409 221.104 149.651 220.462 150.73 219.969C152.844 218.989 154.242 218.555 154.242 218.555C154.242 218.555 154.203 220.009 153.812 222.322C153.623 223.481 153.339 224.85 152.967 226.384C152.583 227.912 152.105 229.591 151.504 231.372C150.899 233.143 150.214 235.044 149.362 236.95C148.532 238.88 147.583 240.859 146.516 242.844C144.396 246.811 141.804 250.793 138.934 254.57C136.05 258.334 132.894 261.894 129.625 264.994C126.364 268.096 123 270.749 119.893 272.847C116.782 274.946 113.924 276.488 111.794 277.481C110.743 277.973 109.866 278.332 109.259 278.567C111.137 283.568 113.156 288.52 115.352 293.4C118.037 299.39 120.922 305.506 124.112 311.488C124.176 310.933 124.264 310.265 124.403 309.492C124.787 307.171 125.513 304.005 126.726 300.458C127.91 296.894 129.577 292.942 131.703 288.986C133.821 284.997 136.405 281.015 139.274 277.234C142.147 273.463 145.284 269.905 148.552 266.807C150.185 265.245 151.844 263.803 153.483 262.492C155.103 261.174 156.754 260.005 158.292 258.939C159.846 257.899 161.34 256.978 162.714 256.21C164.091 255.446 165.337 254.811 166.397 254.319C168.523 253.329 169.913 252.899 169.913 252.899C169.913 252.899 169.871 254.353 169.492 256.669C169.295 257.824 169.016 259.201 168.64 260.725C168.263 262.258 167.772 263.928 167.187 265.718C166.572 267.48 165.885 269.393 165.032 271.294C164.201 273.222 163.259 275.2 162.192 277.183C160.068 281.161 157.474 285.136 154.611 288.918C151.715 292.673 148.578 296.236 145.296 299.339C142.039 302.444 138.676 305.085 135.572 307.191C132.454 309.292 129.599 310.828 127.462 311.82C126.392 312.33 125.502 312.69 124.884 312.923C129.617 321.624 135.041 329.988 141.546 337.144C142.928 338.681 140.493 340.782 139.105 339.252Z" fill="#005C4B" fill-opacity="0.3"/>
<path d="M321.411 291.161C312.406 297.924 286.205 317.569 271.683 328.1C274.026 344.164 286.412 357.047 286.412 357.047C286.412 357.047 301.719 339.005 309.889 329.199C318.059 319.393 324.406 311.752 326.361 305.938C326.631 305.134 326.074 304.632 325.663 304.381L326.687 303.482C327.935 302.386 328.015 300.47 326.862 299.274C326.129 298.514 325.079 298.265 324.11 298.491L325.93 297.045C327.434 295.85 327.777 293.704 326.72 292.1C325.544 290.312 323.121 289.877 321.411 291.161Z" fill="#FFA8A7"/>
<path d="M279.948 322.909L299.164 294.162C300.275 292.501 302.504 292.023 304.198 293.083C305.969 294.191 306.47 296.545 305.304 298.279L293.768 315.437C293.768 315.437 285.959 329.492 279.948 322.909Z" fill="#FFA8A7"/>
<path d="M303.787 320.999C303.752 322.334 303.546 323.682 303.106 325.006L301.548 324.488C303.432 318.812 300.388 311.812 298.026 308.732L299.328 307.732C300.83 309.689 303.937 315.206 303.787 320.999Z" fill="#ED6F70"/>
<path d="M324.029 298.455L309.368 310.728L309.895 311.358L324.557 299.085L324.029 298.455Z" fill="#ED6F70"/>
<path d="M325.569 304.429L312.962 316.837L313.538 317.423L326.145 305.014L325.569 304.429Z" fill="#ED6F70"/>
<path d="M203.347 286.734C215.484 294.54 227.18 311.65 243.344 346.306L272.605 325.87L295.46 351.781L257.505 395.088C251.574 401.855 241.228 402.391 234.629 396.274L223.224 385.701C223.222 385.702 207.445 295.34 203.347 286.734Z" fill="#455A64"/>
<path d="M191.816 244.533C194.241 249.922 204.569 263.124 213.101 269.5L212.742 271.476C212.742 271.476 193.343 258.005 189.93 246.239C186.517 234.475 191.816 244.533 191.816 244.533Z" fill="#3C4066"/>
<path d="M193.106 260.393C200.245 260.393 206.032 251.874 206.032 241.365C206.032 230.856 200.245 222.337 193.106 222.337C185.967 222.337 180.18 230.856 180.18 241.365C180.18 251.874 185.967 260.393 193.106 260.393Z" fill="#005C4B"/>
<path d="M212.07 301.73L148.85 319.1L149.58 266.21L149.6 264.98L149.86 245.39L149.9 244.71C149.93 244.09 150 243.48 150.11 242.89C151.44 234.89 158.58 228.91 166.95 229.25C175.93 229.66 182.93 237.22 182.61 246.21L182.48 250.26L181.73 273.87L181.46 281.83L183.42 283.1L212.07 301.73Z" fill="#FFA8A7"/>
<path d="M183.42 283.1L183.35 283.57C167.11 282.52 156.35 272.64 149.6 264.98L149.86 245.39L149.9 244.71C149.93 244.09 150 243.48 150.11 242.89L153.12 239.75L182.48 250.26L181.73 273.87L181.46 281.83L183.42 283.1Z" fill="#FFA8A8"/>
<path d="M182.696 281.345C176.824 295.232 164.857 292.375 153.442 288.059C153.883 293.489 156.151 378.482 166.313 431.663H228.081C225.612 357.842 208.973 310.652 182.696 281.345Z" fill="white"/>
<path d="M160.513 290.369L194.783 333.959L181.417 283.733L186.036 286.067L198.651 336.205L193.779 337.831L159.509 297.395L160.513 290.369Z" fill="#005C4B"/>
<path d="M190.829 370.84C190.409 364.711 177.949 359.371 177.514 352.999C174.724 311.805 164.869 284.879 149.447 276.084C131.397 288.219 128.292 303.176 127.456 312.703C126.944 318.692 116.817 384.079 109.391 431.664H201.434C200.954 417.618 192.576 395.047 190.829 370.84Z" fill="#455A64"/>
<path d="M181.591 278.462L181.417 283.733C193.505 296.885 202.943 320.113 208.244 349.959C214.266 383.762 210.567 431.027 210.567 431.027C210.567 431.027 230.792 430.783 243.707 430.783C241.57 403.836 235.313 370.599 230.972 350.743C226.813 331.721 218.299 276.431 181.591 278.462Z" fill="#455A64"/>
<path d="M140.963 239.051C144.77 250.031 148.8 252.451 152.819 252.054C159.756 272.949 173.224 283.113 187.321 282.307C198.753 281.681 201.523 265.802 201.499 250.89C201.474 247.444 201.326 244.022 201.102 240.874C200.717 235.741 199.794 228.608 198.116 220.475C212.286 195.729 187.797 184.481 166.741 200.252C165.976 199.395 165.112 198.688 164.153 198.219C159.939 196.004 154.199 198.28 147.821 209.847C137.596 214.017 136.935 227.431 140.963 239.051Z" fill="#263238"/>
<path d="M201.5 250.89L201.46 250.91C190.77 257.74 180.16 252.06 177.73 252.34C175.34 252.59 169.41 254.79 167.58 254.19C165.74 253.6 163.34 251.44 160.42 244.41C158.8 248.46 149.74 251.48 146.75 239.89C143.75 228.34 153.43 227.32 159.67 239.21C159.06 235.95 159.02 231.27 158.88 225.14C182.41 198.53 194.6 213.37 198.12 220.48C198.25 221.11 198.37 221.73 198.5 222.34C198.76 223.71 199.01 225.04 199.23 226.34C200.22 232.03 200.81 237.02 201.1 240.87C201.33 244.02 201.47 247.44 201.5 250.89Z" fill="#FFA8A7"/>
<path d="M199.23 226.34C197.85 225.41 196.16 224.59 193.63 224.71C191.32 224.83 190.91 222.18 192.66 221.55C194.91 220.75 196.9 221.29 198.5 222.34C198.76 223.71 199.01 225.04 199.23 226.34Z" fill="#FFA8A8"/>
<path d="M157.989 240.775C157.325 239.935 156.73 239.082 156.043 238.31C155.375 237.526 154.664 236.788 153.875 236.161C153.1 235.521 152.246 234.973 151.324 234.64C150.864 234.475 150.378 234.372 149.903 234.419C149.427 234.446 148.954 234.659 148.631 235.098C148.764 234.568 149.261 234.145 149.812 233.987C150.368 233.818 150.961 233.837 151.506 233.963C152.614 234.2 153.59 234.783 154.441 235.465C155.287 236.162 156.017 236.981 156.599 237.889C157.21 238.778 157.656 239.765 157.989 240.775Z" fill="#F18B8B"/>
<path d="M157.179 239.384C156.697 239.007 156.16 238.745 155.601 238.572C155.043 238.403 154.462 238.297 153.889 238.34C153.317 238.348 152.755 238.511 152.291 238.828C151.821 239.142 151.484 239.643 151.252 240.21C151.302 239.601 151.581 238.982 152.08 238.555C152.575 238.123 153.236 237.935 153.869 237.892C154.509 237.883 155.145 237.997 155.721 238.25C156.294 238.503 156.829 238.874 157.179 239.384Z" fill="#F18B8B"/>
<path d="M188.314 249.686C194.041 249.928 196.828 247.646 196.48 246.1C196.132 244.554 191.509 241.23 188.317 235.036" stroke="#EA5455" stroke-width="0.7" stroke-miterlimit="10" stroke-linecap="round"/>
<path d="M177.82 236.889C177.757 238.521 178.783 239.885 180.111 239.936C181.439 239.987 182.566 238.706 182.629 237.074C182.692 235.442 181.666 234.078 180.338 234.027C179.01 233.976 177.883 235.258 177.82 236.889Z" fill="#005C4B"/>
<path d="M194.193 236.01C194.162 237.642 195.215 238.986 196.544 239.011C197.873 239.036 198.975 237.733 199.005 236.1C199.036 234.468 197.983 233.124 196.654 233.099C195.326 233.074 194.224 234.377 194.193 236.01Z" fill="#005C4B"/>
<path d="M180.29 222.357C175.831 220.615 171.535 224.941 169.668 227.489C168.748 228.744 169.512 229.514 170.81 228.528C172.406 227.316 176.119 225.463 179.397 225.54C181.715 225.594 182.021 223.033 180.29 222.357Z" fill="#FFA8A8"/>
<path d="M179.536 221.255C174.981 219.782 170.951 224.356 169.239 227.011C168.396 228.319 169.204 229.042 170.441 227.98C171.962 226.675 175.558 224.603 178.834 224.485C181.152 224.401 181.305 221.827 179.536 221.255Z" fill="#263238"/>
<path d="M192.659 220.553C196.766 219.082 200.016 222.102 201.613 224.576C202.457 225.883 201.728 227.111 200.405 226.159C198.778 224.989 196.909 223.548 193.635 223.711C191.319 223.826 190.909 221.18 192.659 220.553Z" fill="#263238"/>
<path d="M199.02 257.08C198.96 257.48 198.89 257.86 198.8 258.23C198.47 259.85 198.02 261.19 197.48 262.25C194.95 267.25 190.47 266.24 187.02 260.13C186.72 259.6 186.43 259.03 186.15 258.43C186.11 258.35 186.08 258.27 186.04 258.19C192.07 255.69 197.01 255.84 199.02 257.08Z" fill="#A43B3B"/>
<path d="M274.681 421.927L300.399 419.766C301.787 419.649 303.006 418.796 303.591 417.531C304.715 415.098 303.088 412.286 300.418 412.049L274.126 409.712L274.681 421.927Z" fill="#ED6F70"/>
<path d="M323.837 411.403C322.388 414.801 319.199 417.089 315.612 417.462C314.985 417.527 314.34 417.527 313.689 417.472L297.332 416.01L274.678 421.931L256.698 425.117L249.723 425.318L255.088 400.058L258.921 401.084L267.522 403.492C271.273 404.542 275.212 404.738 279.049 404.065L290.436 402.067C294.674 401.316 299.033 401.742 303.044 403.306L323.837 411.403Z" fill="#FFA8A7"/>
<path d="M302.62 408.412L302.296 409.469L320.546 415.077L320.871 414.019L302.62 408.412Z" fill="#ED6F70"/>
<path d="M162.099 294.059C149.613 316.534 165.483 414.025 165.483 414.025L257.282 429.657L267.269 400.185L190.375 364.444C190.377 364.443 183.586 328.974 162.099 294.059Z" fill="#455A64"/>
<path d="M198.924 419.556L175.668 415.061C161.844 410.863 151.351 399.548 148.205 385.448L140.228 349.694" stroke="#005C4B" stroke-width="0.8978" stroke-miterlimit="10"/>
<path d="M93.23 433.223H434.327C435.358 433.223 436.203 432.379 436.203 431.348C436.203 430.316 435.359 429.473 434.327 429.473H93.23C92.199 429.473 91.355 430.317 91.355 431.348C91.354 432.379 92.198 433.223 93.23 433.223Z" fill="#005C4B"/>
<path d="M57.347 433.223H78.392C79.424 433.223 80.268 432.379 80.268 431.348C80.268 430.316 79.424 429.473 78.392 429.473H57.347C56.316 429.473 55.472 430.317 55.472 431.348C55.471 432.379 56.315 433.223 57.347 433.223Z" fill="#005C4B"/>
<path d="M318.062 179.211H213.451C200.933 179.211 190.691 168.969 190.691 156.451C190.691 143.933 200.933 133.691 213.451 133.691H318.062C330.58 133.691 340.822 143.933 340.822 156.451C340.822 168.969 330.58 179.211 318.062 179.211Z" fill="#005C4B"/>
<path d="M438.209 273.642H349.273C338.631 273.642 329.923 264.934 329.923 254.292C329.923 243.65 338.63 234.942 349.273 234.942H438.209C448.851 234.942 457.559 243.65 457.559 254.292C457.559 264.934 448.852 273.642 438.209 273.642Z" fill="#005C4B"/>
<path d="M424.132 418.334H329.073C325.333 418.334 322.605 414.796 323.556 411.179L341.555 342.728C342.672 338.482 346.51 335.522 350.901 335.522H445.504C450.537 335.522 454.208 340.284 452.928 345.151L436.114 409.095C434.683 414.539 429.761 418.334 424.132 418.334Z" fill="#6F73A6"/>
<path d="M457.93 345.15L441.11 409.09C439.68 414.54 434.76 418.33 429.13 418.33H334.07C330.33 418.33 327.61 414.8 328.56 411.18L346.56 342.73C347.67 338.48 351.51 335.52 355.9 335.52H450.5C455.54 335.52 459.21 340.28 457.93 345.15Z" fill="#005C4B"/>
<path d="M397.28 418.33H358.97L381.11 373.65L397.28 418.33Z" fill="#383B5E"/>
<path d="M412.56 281.77V327.297" stroke="#005C4B" stroke-miterlimit="10"/>
<path d="M235.692 183.859L220.628 210.534" stroke="#005C4B" stroke-miterlimit="10"/>
<path d="M436.86 243.117H369.598V247.198H436.86V243.117Z" fill="white"/>
<path d="M365.836 243.117H353.478V247.198H365.836V243.117Z" fill="white"/>
<path d="M422.372 252.557H390.557V256.638H422.372V252.557Z" fill="white"/>
<path d="M436.859 252.557H425.381V256.638H436.859V252.557Z" fill="white"/>
<path d="M387.655 252.557H353.478V256.638H387.655V252.557Z" fill="white"/>
<path d="M405.152 261.998H377.444V266.079H405.152V261.998Z" fill="white"/>
<path d="M374.327 261.998H353.478V266.079H374.327V261.998Z" fill="white"/>
<path d="M309.167 145.028H241.905V149.109H309.167V145.028Z" fill="white"/>
<path d="M238.144 145.028H225.786V149.109H238.144V145.028Z" fill="white"/>
<path d="M294.679 154.468H262.864V158.549H294.679V154.468Z" fill="white"/>
<path d="M309.167 154.468H297.689V158.549H309.167V154.468Z" fill="white"/>
<path d="M259.963 154.468H225.786V158.549H259.963V154.468Z" fill="white"/>
<path d="M277.46 163.909H249.752V167.99H277.46V163.909Z" fill="white"/>
<path d="M246.635 163.909H225.786V167.99H246.635V163.909Z" fill="white"/>
<path d="M418.111 429.479H273.686V421.931L325.914 418.797H355.232V425.365H416.591L418.111 429.479Z" fill="#383B5E"/>
<path d="M381.113 373.647H413.402L418.111 429.479H368.781L381.113 373.647Z" fill="#E0E0E0"/>
<path d="M355.232 418.797V425.365H326.101L325.914 418.797H355.232Z" fill="#2C2E4A"/>
<path d="M434.586 400.158H427.737L428.305 397.986H435.155L434.586 400.158Z" fill="#303352"/>
<path d="M434.433 399.105H428.44L428.714 398.061H434.707L434.433 399.105Z" fill="white"/>
<path d="M433.35 404.876H426.501L427.07 402.704H433.919L433.35 404.876Z" fill="#303352"/>
<path d="M433.198 403.823H427.205L427.478 402.779H433.471L433.198 403.823Z" fill="white"/>
<path d="M432.115 409.593H425.266L425.834 407.421H432.684L432.115 409.593Z" fill="#303352"/>
<path d="M431.962 408.54H425.969L426.243 407.496H432.236L431.962 408.54Z" fill="white"/>
<path d="M152.719 260.393C159.858 260.393 165.645 251.874 165.645 241.365C165.645 230.856 159.858 222.337 152.719 222.337C145.58 222.337 139.793 230.856 139.793 241.365C139.793 251.874 145.58 260.393 152.719 260.393Z" fill="#005C4B"/>
<path d="M150.955 256.176C156.027 256.176 160.139 249.387 160.139 241.013C160.139 232.639 156.027 225.85 150.955 225.85C145.883 225.85 141.771 232.639 141.771 241.013C141.771 249.387 145.883 256.176 150.955 256.176Z" fill="#5D6191"/>
<path d="M156.29 225.037H149.666C149.289 225.037 148.981 224.728 148.981 224.352C148.981 223.975 149.29 223.667 149.666 223.667H156.29C156.667 223.667 156.975 223.975 156.975 224.352C156.975 224.728 156.667 225.037 156.29 225.037Z" fill="#303352"/>
<path d="M218.242 269.553C218.242 272.601 215.771 275.073 212.722 275.073C209.673 275.073 207.202 272.602 207.202 269.553C207.202 266.504 209.673 264.033 212.722 264.033C215.771 264.033 218.242 266.505 218.242 269.553Z" fill="#005C4B"/>
<path d="M214.705 267.204C214.705 268.647 213.535 269.817 212.092 269.817C210.649 269.817 209.479 268.647 209.479 267.204C209.479 265.761 210.649 264.591 212.092 264.591C213.535 264.592 214.705 265.762 214.705 267.204Z" fill="#51568A"/>
<path d="M156.115 224.377C156.046 214.921 162.881 201.636 172.275 196.746L165.931 199.043C152.87 205.679 149.987 217.71 149.776 224.345L156.115 224.377Z" fill="#51568A"/>
<path d="M199.02 257.08C198.96 257.48 198.89 257.86 198.8 258.23C197.21 258.53 195.52 258.72 193.77 258.81C191.07 258.95 188.48 258.8 186.15 258.43C186.11 258.35 186.08 258.27 186.04 258.19C192.07 255.69 197.01 255.84 199.02 257.08Z" fill="white"/>
<path d="M197.48 262.25C194.95 267.25 190.47 266.24 187.02 260.13C187.68 260.05 188.36 260.01 189.06 260.01C192.34 260.01 195.32 260.87 197.48 262.25Z" fill="#BB4344"/>
<path d="M203.577 339.123L191.389 341.719L195.683 361.879L207.871 359.284L203.577 339.123Z" fill="#87CEEB"/>
<path d="M195.875 336.076C196.649 335.816 197.466 336.335 197.559 337.146L197.969 340.706L196.813 340.921L195.159 337.911C194.774 337.209 195.117 336.331 195.875 336.076Z" fill="#DAD4F8"/>
<path d="M410.998 172.032H377.213C373.215 172.032 369.973 175.273 369.973 179.272V203.404C369.973 207.402 373.214 210.644 377.213 210.644H410.998C414.996 210.644 418.238 207.403 418.238 203.404V179.272C418.238 175.273 414.996 172.032 410.998 172.032ZM409.381 176.858L394.105 188.321L378.83 176.858H409.381ZM410.998 205.817H377.213C375.88 205.817 374.8 204.737 374.8 203.404V179.875L392.658 193.268C393.076 193.581 393.584 193.751 394.106 193.751C394.628 193.751 395.136 193.582 395.554 193.268L413.412 179.875V203.404C413.411 204.736 412.331 205.817 410.998 205.817Z" fill="#005C4B"/>
<path d="M413.462 183.783C417.672 183.783 421.084 180.371 421.084 176.161C421.084 171.952 417.672 168.539 413.462 168.539C409.253 168.539 405.84 171.952 405.84 176.161C405.84 180.371 409.253 183.783 413.462 183.783Z" fill="#87CEEB"/>
<path d="M114.49 146.62C118.83 146.62 122.349 150.139 122.349 154.479C122.349 155.926 123.522 157.099 124.969 157.099C126.416 157.099 127.589 155.926 127.589 154.479C127.589 147.245 121.724 141.38 114.49 141.38C113.043 141.38 111.87 142.553 111.87 144C111.87 145.447 113.043 146.62 114.49 146.62Z" fill="#87CEEB"/>
<path d="M114.49 136.141C124.618 136.141 132.828 144.351 132.828 154.479C132.828 155.926 134.001 157.099 135.448 157.099C136.895 157.099 138.068 155.926 138.068 154.479C138.068 141.457 127.512 130.901 114.49 130.901C113.043 130.901 111.87 132.074 111.87 133.521C111.87 134.968 113.043 136.141 114.49 136.141Z" fill="#87CEEB"/>
<path d="M137.413 167.342C137.12 166.487 136.407 165.843 135.527 165.639L119.808 162.05C118.941 161.853 118.034 162.11 117.398 162.731C117.031 163.072 117.005 163.098 115.302 166.346C109.652 163.742 105.124 159.196 102.544 153.535C105.871 151.858 105.897 151.858 106.238 151.465C106.859 150.829 107.116 149.922 106.919 149.055L103.33 133.52C103.126 132.64 102.482 131.927 101.627 131.634C101.015 131.415 100.383 131.257 99.741 131.162C99.079 131.008 98.403 130.921 97.724 130.9C91.068 130.9 85.673 136.295 85.673 142.951C85.702 165.221 103.748 183.266 126.017 183.295C132.673 183.295 138.068 177.9 138.068 171.244C138.069 170.577 138.016 169.911 137.911 169.253C137.801 168.604 137.634 167.964 137.413 167.342ZM126.017 178.057C106.635 178.043 90.927 162.334 90.912 142.952C90.926 139.196 93.967 136.155 97.723 136.141H98.587L101.39 148.297L99.975 149.03C97.722 150.209 95.94 151.152 96.884 153.196C99.994 162.001 106.902 168.938 115.694 172.084C117.895 172.975 118.759 171.324 119.938 169.045L120.698 167.604L132.827 170.381V171.246C132.814 175.001 129.773 178.042 126.017 178.057Z" fill="#005C4B"/>
<path d="M416.124 275.209V289.426" stroke="#005C4B" stroke-miterlimit="10"/>
<path d="M189.164 97.3625C192.855 93.6717 192.855 87.6877 189.164 83.9969C185.473 80.3061 179.489 80.3061 175.798 83.9969C172.107 87.6877 172.107 93.6717 175.798 97.3625C179.489 101.053 185.473 101.053 189.164 97.3625Z" fill="#DAD4F8"/>
<path d="M263.761 95.5941C263.761 98.0991 261.73 100.131 259.225 100.131C256.72 100.131 254.689 98.1001 254.689 95.5941C254.689 93.0891 256.72 91.0581 259.225 91.0581C261.73 91.0571 263.761 93.0881 263.761 95.5941Z" fill="#DAD4F8"/>
<path d="M158.667 150.409C158.667 152.706 156.805 154.567 154.509 154.567C152.212 154.567 150.35 152.705 150.35 150.409C150.35 148.112 152.212 146.251 154.509 146.251C156.805 146.251 158.667 148.113 158.667 150.409Z" stroke="#DAD4F8" stroke-width="2" stroke-miterlimit="10"/>
<path d="M266.451 63.855C308.105 87.055 418.831 91.8 447.303 160.872C452.576 112.364 384.558 83.364 266.451 63.855Z" fill="#87CEEB" fill-opacity="0.5"/>
</svg>
